Reijima-Italic[wght].glyphspackage
{
color = 10;
glyphname = exclam;
layers = (
{
layerId = "85FAA1A3-2184-4466-B7C1-269FA7F78F7B";
shapes = (
{
closed = 1;
nodes = (
(266,240,l),
(366,730,l),
(132,730,l),
(91,240,l)
);
},
{
closed = 1;
nodes = (
(242,0,l),
(266,170,l),
(71,170,l),
(47,0,l)
);
}
);
width = 373;
},
{
layerId = "840EB1FB-AC3A-40D2-8862-608CEC91F102";
shapes = (
{
closed = 1;
nodes = (
(214,223,l),
(306,730,l),
(143,730,l),
(90,223,l)
);
},
{
closed = 1;
nodes = (
(195,0,l),
(215,143,l),
(66,143,l),
(46,0,l)
);
}
);
width = 324;
},
{
layerId = "E063002F-8124-4781-80CF-71870B1E9574";
shapes = (
{
closed = 1;
nodes = (
(167,207,l),
(251,730,l),
(160,730,l),
(95,207,l)
);
},
{
closed = 1;
nodes = (
(153,0,l),
(168,107,l),
(65,107,l),
(50,0,l)
);
}
);
width = 286;
},
{
layerId = "E3F1C297-59E6-4938-934E-5A7468ADCF5D";
shapes = (
{
closed = 1;
nodes = (
(126,190,l),
(203,730,l),
(183,730,l),
(106,190,l)
);
},
{
closed = 1;
nodes = (
(118,0,l),
(126,60,l),
(68,60,l),
(59,0,l)
);
}
);
width = 261;
}
);
leftKerningGroup = I;
rightKerningGroup = I;
unicode = 33;
}
{
color = 10;
glyphname = quotedbl;
layers = (
{
layerId = "85FAA1A3-2184-4466-B7C1-269FA7F78F7B";
shapes = (
{
closed = 1;
nodes = (
(264,470,l),
(336,770,l),
(131,770,l),
(118,470,l)
);
},
{
closed = 1;
nodes = (
(508,470,l),
(580,770,l),
(375,770,l),
(361,470,l)
);
}
);
width = 575;
},
{
layerId = "840EB1FB-AC3A-40D2-8862-608CEC91F102";
shapes = (
{
closed = 1;
nodes = (
(228,470,l),
(290,770,l),
(141,770,l),
(117,470,l)
);
},
{
closed = 1;
nodes = (
(446,470,l),
(509,770,l),
(360,770,l),
(335,470,l)
);
}
);
width = 514;
},
{
layerId = "E063002F-8124-4781-80CF-71870B1E9574";
shapes = (
{
closed = 1;
nodes = (
(186,470,l),
(238,770,l),
(150,770,l),
(116,470,l)
);
},
{
closed = 1;
nodes = (
(382,470,l),
(434,770,l),
(346,770,l),
(312,470,l)
);
}
);
width = 448;
},
{
layerId = "E3F1C297-59E6-4938-934E-5A7468ADCF5D";
shapes = (
{
closed = 1;
nodes = (
(136,470,l),
(179,770,l),
(160,770,l),
(117,470,l)
);
},
{
closed = 1;
nodes = (
(312,470,l),
(355,770,l),
(335,770,l),
(292,470,l)
);
}
);
width = 379;
}
);
leftKerningGroup = quote;
rightKerningGroup = quote;
unicode = 34;
}
{
color = 10;
glyphname = numbersign;
layers = (
{
layerId = "85FAA1A3-2184-4466-B7C1-269FA7F78F7B";
shapes = (
{
closed = 1;
nodes = (
(204,0,l),
(252,155,l),
(311,155,l),
(262,0,l),
(438,0,l),
(486,155,l),
(577,155,l),
(599,305,l),
(534,305,l),
(579,445,l),
(670,445,l),
(691,595,l),
(625,595,l),
(667,730,l),
(492,730,l),
(450,595,l),
(391,595,l),
(433,730,l),
(258,730,l),
(216,595,l),
(126,595,l),
(105,445,l),
(169,445,l),
(125,305,l),
(33,305,l),
(11,155,l),
(77,155,l),
(28,0,l)
);
},
{
closed = 1;
nodes = (
(344,489,l),
(302,455,l),
(448,455,l),
(432,489,l),
(359,261,l),
(401,295,l),
(254,295,l),
(271,261,l)
);
}
);
width = 680;
},
{
layerId = "840EB1FB-AC3A-40D2-8862-608CEC91F102";
shapes = (
{
closed = 1;
nodes = (
(173,0,l),
(228,172,l),
(332,172,l),
(277,0,l),
(402,0,l),
(455,172,l),
(559,172,l),
(575,285,l),
(491,285,l),
(548,465,l),
(652,465,l),
(669,578,l),
(584,578,l),
(631,730,l),
(507,730,l),
(460,578,l),
(357,578,l),
(403,730,l),
(279,730,l),
(232,578,l),
(129,578,l),
(112,465,l),
(196,465,l),
(140,285,l),
(35,285,l),
(19,172,l),
(104,172,l),
(50,0,l)
);
},
{
closed = 1;
nodes = (
(327,502,l),
(288,468,l),
(459,468,l),
(440,502,l),
(360,248,l),
(400,282,l),
(229,282,l),
(247,248,l)
);
}
);
width = 664;
},
{
layerId = "E063002F-8124-4781-80CF-71870B1E9574";
shapes = (
{
closed = 1;
nodes = (
(143,0,l),
(202,192,l),
(352,192,l),
(291,0,l),
(365,0,l),
(424,192,l),
(540,192,l),
(550,262,l),
(446,262,l),
(518,488,l),
(634,488,l),
(644,558,l),
(541,558,l),
(594,730,l),
(521,730,l),
(468,558,l),
(320,558,l),
(373,730,l),
(301,730,l),
(248,558,l),
(131,558,l),
(121,488,l),
(225,488,l),
(153,262,l),
(36,262,l),
(26,192,l),
(131,192,l),
(71,0,l)
);
},
{
closed = 1;
nodes = (
(306,515,l),
(275,488,l),
(470,488,l),
(454,515,l),
(366,235,l),
(397,262,l),
(202,262,l),
(218,235,l)
);
}
);
width = 647;
},
{
layerId = "E3F1C297-59E6-4938-934E-5A7468ADCF5D";
shapes = (
{
closed = 1;
nodes = (
(112,0,l),
(180,215,l),
(374,215,l),
(306,0,l),
(327,0,l),
(395,215,l),
(522,215,l),
(525,235,l),
(402,235,l),
(489,515,l),
(617,515,l),
(619,535,l),
(495,535,l),
(556,730,l),
(536,730,l),
(475,535,l),
(281,535,l),
(342,730,l),
(321,730,l),
(260,535,l),
(132,535,l),
(130,515,l),
(254,515,l),
(167,235,l),
(38,235,l),
(35,215,l),
(160,215,l),
(92,0,l)
);
},
{
closed = 1;
nodes = (
(278,528,l),
(262,515,l),
(481,515,l),
(472,528,l),
(377,222,l),
(394,235,l),
(174,235,l),
(183,222,l)
);
}
);
width = 631;
}
);
leftKerningGroup = numbersign;
rightKerningGroup = numbersign;
unicode = 35;
}
{
color = 10;
glyphname = dollar;
layers = (
{
layerId = "F0609150-BC11-4FE2-8226-BD34AC3E2B30";
name = "Medium.Medium [499]";
shapes = (
{
closed = 1;
nodes = (
(481,-10,o),
(583,66,o),
(583,198,cs),
(583,305,o),
(514,369,o),
(328,433,cs),
(214,469,o),
(172,502,o),
(172,553,cs),
(172,611,o),
(224,640,o),
(328,640,cs),
(406,640,o),
(469,624,o),
(545,587,c),
(570,685,l),
(502,721,o),
(416,740,o),
(323,740,cs),
(151,740,o),
(56,674,o),
(56,553,cs),
(56,448,o),
(126,384,o),
(307,324,cs),
(429,286,o),
(473,253,o),
(473,195,cs),
(473,128,o),
(414,90,o),
(308,90,cs),
(226,90,o),
(143,115,o),
(77,160,c),
(52,62,l),
(119,15,o),
(209,-10,o),
(308,-10,cs)
);
},
{
closed = 1;
nodes = (
(324,-105,l),
(324,45,l),
(229,45,l),
(229,-105,l)
);
},
{
closed = 1;
nodes = (
(324,45,l),
(324,375,l),
(229,375,l),
(229,45,l)
);
},
{
closed = 1;
nodes = (
(418,375,l),
(418,685,l),
(323,685,l),
(323,375,l)
);
},
{
closed = 1;
nodes = (
(418,685,l),
(418,835,l),
(323,835,l),
(323,685,l)
);
}
);
width = 635;
},
{
layerId = "F9698058-C3ED-4784-8026-F545AF1EE3F4";
associatedMasterId = "85FAA1A3-2184-4466-B7C1-269FA7F78F7B";
name = "Black [499]";
shapes = (
{
closed = 1;
nodes = (
(512,-10,o),
(624,76,o),
(624,215,cs),
(624,325,o),
(553,388,o),
(349,458,c),
(268,480,o),
(239,497,o),
(239,525,cs),
(239,558,o),
(278,575,o),
(354,575,cs),
(423,575,o),
(478,561,o),
(554,525,c),
(594,690,l),
(531,721,o),
(436,740,o),
(344,740,cs),
(146,740,o),
(39,664,o),
(39,525,cs),
(39,408,o),
(114,341,o),
(319,275,c),
(399,254,o),
(424,239,o),
(424,210,cs),
(424,174,o),
(390,155,o),
(329,155,cs),
(257,155,o),
(165,184,o),
(96,229,c),
(56,64,l),
(118,18,o),
(221,-10,o),
(329,-10,cs)
);
},
{
closed = 1;
nodes = (
(331,-105,l),
(331,65,l),
(181,65,l),
(181,-105,l)
);
},
{
closed = 1;
nodes = (
(316,65,l),
(316,365,l),
(196,365,l),
(196,65,l)
);
},
{
closed = 1;
nodes = (
(476,365,l),
(476,665,l),
(346,665,l),
(346,365,l)
);
},
{
closed = 1;
nodes = (
(481,665,l),
(481,835,l),
(331,835,l),
(331,665,l)
);
}
);
width = 663;
},
{
layerId = "85FAA1A3-2184-4466-B7C1-269FA7F78F7B";
shapes = (
{
closed = 1;
nodes = (
(435,-10,o),
(599,69,o),
(599,246,cs),
(599,337,o),
(534,395,o),
(363,458,c),
(293,479,o),
(266,495,o),
(266,520,cs),
(266,571,o),
(350,575,o),
(385,575,cs),
(452,575,o),
(504,561,o),
(573,525,c),
(636,690,l),
(579,721,o),
(489,740,o),
(399,740,cs),
(237,740,o),
(68,678,o),
(68,491,cs),
(68,394,o),
(137,334,o),
(308,275,c),
(377,256,o),
(401,241,o),
(401,216,cs),
(401,165,o),
(340,155,o),
(301,155,cs),
(231,155,o),
(145,184,o),
(85,229,c),
(22,64,l),
(76,18,o),
(172,-10,o),
(278,-10,cs)
);
},
{
closed = 1;
nodes = (
(340,-105,l),
(364,65,l),
(218,65,l),
(194,-105,l)
);
},
{
closed = 1;
nodes = (
(364,65,l),
(407,365,l),
(261,365,l),
(218,65,l)
);
},
{
closed = 1;
nodes = (
(407,365,l),
(450,665,l),
(304,665,l),
(261,365,l)
);
},
{
closed = 1;
nodes = (
(450,665,l),
(474,835,l),
(328,835,l),
(304,665,l)
);
}
);
width = 646;
},
{
layerId = "840EB1FB-AC3A-40D2-8862-608CEC91F102";
shapes = (
{
closed = 1;
nodes = (
(420,-10,o),
(574,63,o),
(574,236,cs),
(574,325,o),
(510,382,o),
(350,441,c),
(262,470,o),
(226,495,o),
(226,533,cs),
(226,609,o),
(321,618,o),
(377,618,cs),
(450,618,o),
(506,604,o),
(575,566,c),
(622,687,l),
(562,721,o),
(478,740,o),
(388,740,cs),
(239,740,o),
(85,684,o),
(85,512,cs),
(85,422,o),
(150,364,o),
(307,308,c),
(400,277,o),
(436,252,o),
(436,210,cs),
(436,132,o),
(345,112,o),
(283,112,cs),
(206,112,o),
(126,138,o),
(67,183,c),
(21,63,l),
(78,16,o),
(167,-10,o),
(266,-10,cs)
);
},
{
closed = 1;
nodes = (
(318,-105,l),
(340,52,l),
(230,52,l),
(208,-105,l)
);
},
{
closed = 1;
nodes = (
(340,52,l),
(386,372,l),
(276,372,l),
(230,52,l)
);
},
{
closed = 1;
nodes = (
(386,372,l),
(430,678,l),
(320,678,l),
(276,372,l)
);
},
{
closed = 1;
nodes = (
(430,678,l),
(452,835,l),
(342,835,l),
(320,678,l)
);
}
);
width = 635;
},
{
layerId = "E063002F-8124-4781-80CF-71870B1E9574";
shapes = (
{
closed = 1;
nodes = (
(406,-10,o),
(547,60,o),
(547,224,cs),
(547,311,o),
(484,366,o),
(334,422,c),
(225,461,o),
(182,496,o),
(182,548,cs),
(182,647,o),
(290,667,o),
(368,667,cs),
(445,667,o),
(507,650,o),
(572,612,c),
(602,683,l),
(541,721,o),
(464,740,o),
(375,740,cs),
(242,740,o),
(99,689,o),
(99,534,cs),
(99,450,o),
(160,396,o),
(307,343,c),
(423,303,o),
(467,267,o),
(467,209,cs),
(467,99,o),
(362,63,o),
(268,63,cs),
(187,63,o),
(110,88,o),
(54,132,c),
(25,61,l),
(82,15,o),
(165,-10,o),
(258,-10,cs)
);
},
{
closed = 1;
nodes = (
(294,-105,l),
(313,30,l),
(245,30,l),
(226,-105,l)
);
},
{
closed = 1;
nodes = (
(313,30,l),
(363,378,l),
(295,378,l),
(245,30,l)
);
},
{
closed = 1;
nodes = (
(363,378,l),
(409,700,l),
(341,700,l),
(295,378,l)
);
},
{
closed = 1;
nodes = (
(409,700,l),
(428,835,l),
(360,835,l),
(341,700,l)
);
}
);
width = 617;
},
{
layerId = "B8EEB0EC-5761-489A-97E9-2848B66A2A07";
associatedMasterId = "E3F1C297-59E6-4938-934E-5A7468ADCF5D";
name = "Thin [499]";
shapes = (
{
closed = 1;
nodes = (
(458,-10,o),
(547,60,o),
(547,180,cs),
(547,283,o),
(485,338,o),
(310,399,cs),
(154,453,o),
(98,501,o),
(98,580,cs),
(98,670,o),
(172,720,o),
(307,720,cs),
(389,720,o),
(461,701,o),
(526,663,c),
(536,680,l),
(468,720,o),
(392,740,o),
(307,740,cs),
(161,740,o),
(78,682,o),
(78,580,cs),
(78,491,o),
(140,437,o),
(304,381,cs),
(471,324,o),
(527,273,o),
(527,180,cs),
(527,72,o),
(448,10,o),
(307,10,cs),
(221,10,o),
(139,34,o),
(79,76,c),
(67,60,l),
(131,15,o),
(217,-10,o),
(307,-10,cs)
);
},
{
closed = 1;
nodes = (
(333,-105,l),
(333,0,l),
(313,0,l),
(313,-105,l)
);
},
{
closed = 1;
nodes = (
(333,0,l),
(333,385,l),
(313,385,l),
(313,0,l)
);
},
{
closed = 1;
nodes = (
(333,385,l),
(333,730,l),
(313,730,l),
(313,385,l)
);
},
{
closed = 1;
nodes = (
(333,730,l),
(333,835,l),
(313,835,l),
(313,730,l)
);
}
);
width = 614;
},
{
layerId = "E3F1C297-59E6-4938-934E-5A7468ADCF5D";
shapes = (
{
closed = 1;
nodes = (
(394,-10,o),
(518,59,o),
(518,210,cs),
(518,294,o),
(461,344,o),
(316,399,cs),
(185,448,o),
(134,492,o),
(134,559,cs),
(134,683,o),
(255,720,o),
(359,720,cs),
(439,720,o),
(507,701,o),
(565,663,c),
(577,680,l),
(516,720,o),
(445,740,o),
(362,740,cs),
(243,740,o),
(114,693,o),
(114,555,cs),
(114,481,o),
(171,432,o),
(307,381,cs),
(446,330,o),
(499,284,o),
(499,207,cs),
(499,69,o),
(382,10,o),
(257,10,cs),
(174,10,o),
(98,34,o),
(45,76,c),
(31,60,l),
(87,15,o),
(168,-10,o),
(255,-10,cs)
);
},
{
closed = 1;
nodes = (
(267,-105,l),
(282,0,l),
(262,0,l),
(247,-105,l)
);
},
{
closed = 1;
nodes = (
(282,0,l),
(337,385,l),
(317,385,l),
(262,0,l)
);
},
{
closed = 1;
nodes = (
(337,385,l),
(386,730,l),
(366,730,l),
(317,385,l)
);
},
{
closed = 1;
nodes = (
(386,730,l),
(401,835,l),
(381,835,l),
(366,730,l)
);
}
);
width = 597;
}
);
leftKerningGroup = S;
rightKerningGroup = S;
unicode = 36;
}
{
color = 10;
glyphname = percent;
layers = (
{
layerId = "85FAA1A3-2184-4466-B7C1-269FA7F78F7B";
shapes = (
{
closed = 1;
nodes = (
(334,0,l),
(798,730,l),
(658,730,l),
(194,0,l)
);
},
{
closed = 1;
nodes = (
(375,286,o),
(418,443,o),
(418,583,cs),
(418,688,o),
(370,736,o),
(269,736,cs),
(99,736,o),
(56,581,o),
(56,441,cs),
(56,334,o),
(103,286,o),
(205,286,cs)
);
},
{
closed = 1;
nodes = (
(204,408,o),
(196,420,o),
(196,452,cs),
(196,493,o),
(205,614,o),
(252,614,cs),
(270,614,o),
(278,602,o),
(278,570,cs),
(278,529,o),
(269,408,o),
(222,408,cs)
);
},
{
closed = 1;
nodes = (
(883,-6,o),
(926,151,o),
(926,291,cs),
(926,396,o),
(878,444,o),
(777,444,cs),
(607,444,o),
(564,289,o),
(564,149,cs),
(564,42,o),
(611,-6,o),
(713,-6,cs)
);
},
{
closed = 1;
nodes = (
(712,116,o),
(704,128,o),
(704,160,cs),
(704,201,o),
(713,322,o),
(760,322,cs),
(778,322,o),
(786,310,o),
(786,278,cs),
(786,237,o),
(777,116,o),
(730,116,cs)
);
}
);
width = 972;
},
{
layerId = "840EB1FB-AC3A-40D2-8862-608CEC91F102";
shapes = (
{
closed = 1;
nodes = (
(298,0,l),
(782,730,l),
(648,730,l),
(164,0,l)
);
},
{
closed = 1;
nodes = (
(368,286,o),
(413,446,o),
(413,581,cs),
(413,686,o),
(366,736,o),
(269,736,cs),
(105,736,o),
(62,577,o),
(62,442,cs),
(62,336,o),
(108,286,o),
(205,286,cs)
);
},
{
closed = 1;
nodes = (
(191,387,o),
(177,406,o),
(177,452,cs),
(177,505,o),
(190,635,o),
(255,635,cs),
(284,635,o),
(297,617,o),
(297,571,cs),
(297,517,o),
(285,387,o),
(219,387,cs)
);
},
{
closed = 1;
nodes = (
(837,-6,o),
(882,154,o),
(882,289,cs),
(882,394,o),
(835,444,o),
(738,444,cs),
(574,444,o),
(531,285,o),
(531,150,cs),
(531,44,o),
(577,-6,o),
(674,-6,cs)
);
},
{
closed = 1;
nodes = (
(660,95,o),
(646,114,o),
(646,160,cs),
(646,213,o),
(659,343,o),
(724,343,cs),
(753,343,o),
(766,325,o),
(766,279,cs),
(766,225,o),
(754,95,o),
(688,95,cs)
);
}
);
width = 923;
},
{
layerId = "E063002F-8124-4781-80CF-71870B1E9574";
shapes = (
{
closed = 1;
nodes = (
(234,0,l),
(739,730,l),
(657,730,l),
(153,0,l)
);
},
{
closed = 1;
nodes = (
(354,286,o),
(397,453,o),
(397,580,cs),
(397,684,o),
(353,736,o),
(264,736,cs),
(109,736,o),
(67,569,o),
(67,442,cs),
(67,338,o),
(110,286,o),
(200,286,cs)
);
},
{
closed = 1;
nodes = (
(164,353,o),
(141,382,o),
(141,448,cs),
(141,523,o),
(161,669,o),
(255,669,cs),
(300,669,o),
(323,640,o),
(323,574,cs),
(323,499,o),
(303,353,o),
(209,353,cs)
);
},
{
closed = 1;
nodes = (
(780,-6,o),
(823,161,o),
(823,288,cs),
(823,392,o),
(779,444,o),
(690,444,cs),
(535,444,o),
(493,277,o),
(493,150,cs),
(493,46,o),
(536,-6,o),
(626,-6,cs)
);
},
{
closed = 1;
nodes = (
(590,61,o),
(567,90,o),
(567,156,cs),
(567,231,o),
(587,377,o),
(681,377,cs),
(726,377,o),
(749,348,o),
(749,282,cs),
(749,207,o),
(729,61,o),
(635,61,cs)
);
}
);
width = 870;
},
{
layerId = "E3F1C297-59E6-4938-934E-5A7468ADCF5D";
shapes = (
{
closed = 1;
nodes = (
(165,0,l),
(690,730,l),
(667,730,l),
(142,0,l)
);
},
{
closed = 1;
nodes = (
(333,286,o),
(374,465,o),
(374,581,cs),
(374,683,o),
(334,736,o),
(255,736,cs),
(112,736,o),
(71,557,o),
(71,441,cs),
(71,339,o),
(111,286,o),
(190,286,cs)
);
},
{
closed = 1;
nodes = (
(125,306,o),
(90,351,o),
(90,441,cs),
(90,545,o),
(123,716,o),
(252,716,cs),
(320,716,o),
(355,671,o),
(355,581,cs),
(355,477,o),
(322,306,o),
(193,306,cs)
);
},
{
closed = 1;
nodes = (
(711,-6,o),
(752,173,o),
(752,289,cs),
(752,391,o),
(712,444,o),
(633,444,cs),
(490,444,o),
(449,265,o),
(449,149,cs),
(449,47,o),
(489,-6,o),
(568,-6,cs)
);
},
{
closed = 1;
nodes = (
(503,14,o),
(468,59,o),
(468,149,cs),
(468,253,o),
(501,424,o),
(630,424,cs),
(698,424,o),
(733,379,o),
(733,289,cs),
(733,185,o),
(700,14,o),
(571,14,cs)
);
}
);
width = 812;
}
);
leftKerningGroup = percent;
rightKerningGroup = percent;
unicode = 37;
}
{
color = 10;
glyphname = quotesingle;
layers = (
{
layerId = "85FAA1A3-2184-4466-B7C1-269FA7F78F7B";
shapes = (
{
closed = 1;
nodes = (
(264,470,l),
(336,770,l),
(131,770,l),
(118,470,l)
);
}
);
width = 332;
},
{
layerId = "840EB1FB-AC3A-40D2-8862-608CEC91F102";
shapes = (
{
closed = 1;
nodes = (
(232,470,l),
(294,770,l),
(141,770,l),
(118,470,l)
);
}
);
width = 300;
},
{
layerId = "E063002F-8124-4781-80CF-71870B1E9574";
shapes = (
{
closed = 1;
nodes = (
(189,470,l),
(242,770,l),
(151,770,l),
(118,470,l)
);
}
);
width = 256;
},
{
layerId = "E3F1C297-59E6-4938-934E-5A7468ADCF5D";
shapes = (
{
closed = 1;
nodes = (
(137,470,l),
(180,770,l),
(161,770,l),
(118,470,l)
);
}
);
width = 205;
}
);
leftKerningGroup = quote;
rightKerningGroup = quote;
unicode = 39;
}
{
color = 10;
glyphname = parenleft;
layers = (
{
layerId = "85FAA1A3-2184-4466-B7C1-269FA7F78F7B";
shapes = (
{
closed = 1;
nodes = (
(320,-110,l),
(248,22,o),
(225,162,o),
(249,330,cs),
(273,498,o),
(336,638,o),
(446,770,c),
(286,770,l),
(176,659,o),
(97,497,o),
(73,330,cs),
(49,163,o),
(82,1,o),
(160,-110,c)
);
}
);
width = 412;
},
{
layerId = "840EB1FB-AC3A-40D2-8862-608CEC91F102";
shapes = (
{
closed = 1;
nodes = (
(295,-110,l),
(222,22,o),
(200,162,o),
(224,330,cs),
(248,498,o),
(310,638,o),
(421,770,c),
(298,770,l),
(189,652,o),
(116,496,o),
(92,330,cs),
(68,164,o),
(97,8,o),
(172,-110,c)
);
}
);
width = 413;
},
{
layerId = "E063002F-8124-4781-80CF-71870B1E9574";
shapes = (
{
closed = 1;
nodes = (
(255,-110,l),
(182,22,o),
(160,162,o),
(184,330,cs),
(208,498,o),
(270,638,o),
(381,770,c),
(304,770,l),
(195,645,o),
(128,496,o),
(104,330,cs),
(81,165,o),
(105,15,o),
(178,-110,c)
);
}
);
width = 381;
},
{
layerId = "E3F1C297-59E6-4938-934E-5A7468ADCF5D";
shapes = (
{
closed = 1;
nodes = (
(206,-110,l),
(134,22,o),
(111,162,o),
(135,330,cs),
(159,498,o),
(222,638,o),
(332,770,c),
(309,770,l),
(201,638,o),
(139,496,o),
(115,330,cs),
(91,164,o),
(113,22,o),
(183,-110,c)
);
}
);
width = 341;
}
);
leftKerningGroup = parenout;
rightKerningGroup = parenin;
unicode = 40;
}
{
color = 10;
glyphname = parenright;
layers = (
{
layerId = "85FAA1A3-2184-4466-B7C1-269FA7F78F7B";
shapes = (
{
closed = 1;
nodes = (
(136,-110,l),
(247,1,o),
(325,163,o),
(349,330,cs),
(373,497,o),
(341,659,o),
(262,770,c),
(102,770,l),
(175,638,o),
(198,498,o),
(174,330,cs),
(150,162,o),
(87,22,o),
(-24,-110,c)
);
}
);
width = 412;
},
{
layerId = "840EB1FB-AC3A-40D2-8862-608CEC91F102";
shapes = (
{
closed = 1;
nodes = (
(125,-110,l),
(235,8,o),
(308,164,o),
(332,330,cs),
(356,496,o),
(327,652,o),
(251,770,c),
(128,770,l),
(201,638,o),
(224,498,o),
(200,330,cs),
(176,162,o),
(113,22,o),
(2,-110,c)
);
}
);
width = 413;
},
{
layerId = "E063002F-8124-4781-80CF-71870B1E9574";
shapes = (
{
closed = 1;
nodes = (
(87,-110,l),
(196,15,o),
(265,165,o),
(288,330,cs),
(312,496,o),
(286,645,o),
(213,770,c),
(136,770,l),
(209,638,o),
(232,498,o),
(208,330,cs),
(184,162,o),
(121,22,o),
(10,-110,c)
);
}
);
width = 381;
},
{
layerId = "E3F1C297-59E6-4938-934E-5A7468ADCF5D";
shapes = (
{
closed = 1;
nodes = (
(42,-110,l),
(150,22,o),
(212,164,o),
(236,330,cs),
(260,496,o),
(238,638,o),
(168,770,c),
(145,770,l),
(218,638,o),
(241,498,o),
(217,330,cs),
(193,162,o),
(130,22,o),
(19,-110,c)
);
}
);
width = 341;
}
);
leftKerningGroup = parenin;
rightKerningGroup = parenout;
unicode = 41;
}
{
color = 10;
glyphname = asterisk;
layers = (
{
layerId = "85FAA1A3-2184-4466-B7C1-269FA7F78F7B";
shapes = (
{
closed = 1;
nodes = (
(278,410,l),
(334,300,l),
(465,388,l),
(400,493,l),
(531,529,l),
(505,673,l),
(379,627,l),
(401,760,l),
(255,760,l),
(240,627,l),
(125,673,l),
(59,529,l),
(178,493,l),
(83,388,l),
(190,300,l)
);
}
);
width = 523;
},
{
layerId = "840EB1FB-AC3A-40D2-8862-608CEC91F102";
shapes = (
{
closed = 1;
nodes = (
(276,443,l),
(343,317,l),
(443,383,l),
(369,506,l),
(519,549,l),
(501,657,l),
(353,607,l),
(376,759,l),
(267,759,l),
(249,607,l),
(114,657,l),
(65,549,l),
(202,506,l),
(94,383,l),
(174,317,l)
);
}
);
width = 512;
},
{
layerId = "E063002F-8124-4781-80CF-71870B1E9574";
shapes = (
{
closed = 1;
nodes = (
(274,481,l),
(351,339,l),
(412,379,l),
(330,520,l),
(501,571,l),
(489,637,l),
(320,583,l),
(347,756,l),
(280,756,l),
(256,583,l),
(103,637,l),
(73,571,l),
(227,520,l),
(106,379,l),
(155,339,l)
);
}
);
width = 494;
},
{
layerId = "E3F1C297-59E6-4938-934E-5A7468ADCF5D";
shapes = (
{
closed = 1;
nodes = (
(268,523,l),
(357,364,l),
(376,376,l),
(285,535,l),
(476,595,l),
(473,614,l),
(282,554,l),
(310,750,l),
(290,750,l),
(262,554,l),
(89,614,l),
(80,595,l),
(253,535,l),
(118,376,l),
(133,364,l)
);
}
);
width = 470;
}
);
leftKerningGroup = asterisk;
rightKerningGroup = asterisk;
unicode = 42;
}
{
color = 10;
glyphname = plus;
leftMetricsKey = "=H*.6";
rightMetricsKey = "=|";
layers = (
{
layerId = "85FAA1A3-2184-4466-B7C1-269FA7F78F7B";
leftMetricsKey = "=H*.8";
shapes = (
{
closed = 1;
nodes = (
(436,0,l),
(436,205,l),
(641,205,l),
(641,375,l),
(436,375,l),
(436,580,l),
(266,580,l),
(266,375,l),
(61,375,l),
(61,205,l),
(266,205,l),
(266,0,l)
);
}
);
width = 705;
},
{
layerId = "840EB1FB-AC3A-40D2-8862-608CEC91F102";
shapes = (
{
closed = 1;
nodes = (
(402,0,l),
(402,228,l),
(631,228,l),
(631,352,l),
(402,352,l),
(402,580,l),
(279,580,l),
(279,352,l),
(51,352,l),
(51,228,l),
(279,228,l),
(279,0,l)
);
}
);
width = 684;
},
{
layerId = "E063002F-8124-4781-80CF-71870B1E9574";
shapes = (
{
closed = 1;
nodes = (
(380,0,l),
(380,253,l),
(633,253,l),
(633,327,l),
(380,327,l),
(380,580,l),
(307,580,l),
(307,327,l),
(53,327,l),
(53,253,l),
(307,253,l),
(307,0,l)
);
}
);
width = 689;
},
{
layerId = "E3F1C297-59E6-4938-934E-5A7468ADCF5D";
shapes = (
{
closed = 1;
nodes = (
(356,0,l),
(356,280,l),
(636,280,l),
(636,300,l),
(356,300,l),
(356,580,l),
(336,580,l),
(336,300,l),
(56,300,l),
(56,280,l),
(336,280,l),
(336,0,l)
);
}
);
width = 694;
}
);
leftKerningGroup = "-";
rightKerningGroup = "-";
unicode = 43;
}
{
color = 10;
glyphname = comma;
layers = (
{
layerId = "85FAA1A3-2184-4466-B7C1-269FA7F78F7B";
shapes = (
{
closed = 1;
nodes = (
(102,-170,l),
(272,200,l),
(67,200,l),
(-45,-170,l)
);
}
);
width = 307;
},
{
layerId = "840EB1FB-AC3A-40D2-8862-608CEC91F102";
shapes = (
{
closed = 1;
nodes = (
(85,-170,l),
(234,153,l),
(82,153,l),
(-29,-170,l)
);
}
);
width = 307;
},
{
layerId = "E063002F-8124-4781-80CF-71870B1E9574";
shapes = (
{
closed = 1;
nodes = (
(58,-170,l),
(201,130,l),
(110,130,l),
(-14,-170,l)
);
}
);
width = 307;
},
{
layerId = "E3F1C297-59E6-4938-934E-5A7468ADCF5D";
shapes = (
{
closed = 1;
nodes = (
(20,-170,l),
(169,130,l),
(148,130,l),
(-2,-170,l)
);
}
);
width = 307;
}
);
leftKerningGroup = .;
rightKerningGroup = .;
unicode = 44;
}
{
color = 10;
glyphname = period;
layers = (
{
layerId = "85FAA1A3-2184-4466-B7C1-269FA7F78F7B";
shapes = (
{
closed = 1;
nodes = (
(208,0,l),
(237,200,l),
(42,200,l),
(13,0,l)
);
}
);
width = 307;
},
{
layerId = "840EB1FB-AC3A-40D2-8862-608CEC91F102";
shapes = (
{
closed = 1;
nodes = (
(186,0,l),
(208,153,l),
(58,153,l),
(36,0,l)
);
}
);
width = 307;
},
{
layerId = "E063002F-8124-4781-80CF-71870B1E9574";
shapes = (
{
closed = 1;
nodes = (
(163,0,l),
(178,107,l),
(75,107,l),
(60,0,l)
);
}
);
width = 307;
},
{
layerId = "E3F1C297-59E6-4938-934E-5A7468ADCF5D";
shapes = (
{
closed = 1;
nodes = (
(140,0,l),
(148,60,l),
(90,60,l),
(81,0,l)
);
}
);
width = 307;
}
);
leftKerningGroup = .;
rightKerningGroup = .;
unicode = 46;
}
{
color = 10;
glyphname = slash;
layers = (
{
layerId = "85FAA1A3-2184-4466-B7C1-269FA7F78F7B";
shapes = (
{
closed = 1;
nodes = (
(134,-40,l),
(600,770,l),
(425,770,l),
(-41,-40,l)
);
}
);
width = 539;
},
{
layerId = "840EB1FB-AC3A-40D2-8862-608CEC91F102";
shapes = (
{
closed = 1;
nodes = (
(97,-40,l),
(561,770,l),
(430,770,l),
(-33,-40,l)
);
}
);
width = 507;
},
{
layerId = "E063002F-8124-4781-80CF-71870B1E9574";
shapes = (
{
closed = 1;
nodes = (
(49,-40,l),
(509,770,l),
(430,770,l),
(-31,-40,l)
);
}
);
width = 457;
},
{
layerId = "E3F1C297-59E6-4938-934E-5A7468ADCF5D";
shapes = (
{
closed = 1;
nodes = (
(-8,-40,l),
(450,770,l),
(429,770,l),
(-29,-40,l)
);
}
);
width = 400;
}
);
leftKerningGroup = A;
rightKerningGroup = V;
unicode = 47;
}
{
color = 10;
glyphname = colon;
layers = (
{
layerId = "85FAA1A3-2184-4466-B7C1-269FA7F78F7B";
shapes = (
{
closed = 1;
nodes = (
(255,320,l),
(283,520,l),
(88,520,l),
(60,320,l)
);
},
{
closed = 1;
nodes = (
(209,0,l),
(238,200,l),
(43,200,l),
(14,0,l)
);
}
);
width = 307;
},
{
layerId = "840EB1FB-AC3A-40D2-8862-608CEC91F102";
shapes = (
{
closed = 1;
nodes = (
(238,367,l),
(260,520,l),
(110,520,l),
(88,367,l)
);
},
{
closed = 1;
nodes = (
(186,0,l),
(208,153,l),
(58,153,l),
(36,0,l)
);
}
);
width = 307;
},
{
layerId = "E063002F-8124-4781-80CF-71870B1E9574";
shapes = (
{
closed = 1;
nodes = (
(222,413,l),
(237,520,l),
(133,520,l),
(118,413,l)
);
},
{
closed = 1;
nodes = (
(163,0,l),
(178,107,l),
(74,107,l),
(59,0,l)
);
}
);
width = 307;
},
{
layerId = "E3F1C297-59E6-4938-934E-5A7468ADCF5D";
shapes = (
{
closed = 1;
nodes = (
(206,460,l),
(214,520,l),
(156,520,l),
(148,460,l)
);
},
{
closed = 1;
nodes = (
(140,0,l),
(149,60,l),
(91,60,l),
(82,0,l)
);
}
);
width = 307;
}
);
leftKerningGroup = n;
rightKerningGroup = u;
unicode = 58;
}
{
color = 10;
glyphname = semicolon;
layers = (
{
layerId = "85FAA1A3-2184-4466-B7C1-269FA7F78F7B";
shapes = (
{
closed = 1;
nodes = (
(259,320,l),
(287,520,l),
(92,520,l),
(64,320,l)
);
},
{
closed = 1;
nodes = (
(82,-170,l),
(252,200,l),
(47,200,l),
(-64,-170,l)
);
}
);
width = 307;
},
{
layerId = "840EB1FB-AC3A-40D2-8862-608CEC91F102";
shapes = (
{
closed = 1;
nodes = (
(245,367,l),
(267,520,l),
(118,520,l),
(96,367,l)
);
},
{
closed = 1;
nodes = (
(63,-170,l),
(223,153,l),
(70,153,l),
(-51,-170,l)
);
}
);
width = 307;
},
{
layerId = "E063002F-8124-4781-80CF-71870B1E9574";
shapes = (
{
closed = 1;
nodes = (
(231,413,l),
(246,520,l),
(141,520,l),
(126,413,l)
);
},
{
closed = 1;
nodes = (
(37,-170,l),
(191,130,l),
(99,130,l),
(-35,-170,l)
);
}
);
width = 307;
},
{
layerId = "E3F1C297-59E6-4938-934E-5A7468ADCF5D";
shapes = (
{
closed = 1;
nodes = (
(213,460,l),
(221,520,l),
(163,520,l),
(155,460,l)
);
},
{
closed = 1;
nodes = (
(5,-170,l),
(154,130,l),
(133,130,l),
(-16,-170,l)
);
}
);
width = 307;
}
);
leftKerningGroup = n;
rightKerningGroup = u;
unicode = 59;
}
{
color = 10;
glyphname = less;
rightMetricsKey = H;
layers = (
{
layerId = "85FAA1A3-2184-4466-B7C1-269FA7F78F7B";
shapes = (
{
closed = 1;
nodes = (
(632,170,l),
(203,289,l),
(203,291,l),
(632,410,l),
(632,590,l),
(52,400,l),
(52,180,l),
(632,-10,l)
);
}
);
width = 737;
},
{
layerId = "840EB1FB-AC3A-40D2-8862-608CEC91F102";
shapes = (
{
closed = 1;
nodes = (
(635,136,l),
(161,289,l),
(161,291,l),
(635,444,l),
(635,577,l),
(55,368,l),
(55,212,l),
(635,3,l)
);
}
);
width = 749;
},
{
layerId = "E063002F-8124-4781-80CF-71870B1E9574";
shapes = (
{
closed = 1;
nodes = (
(636,97,l),
(120,289,l),
(120,291,l),
(636,483,l),
(636,564,l),
(56,336,l),
(56,244,l),
(636,16,l)
);
}
);
width = 756;
},
{
layerId = "E3F1C297-59E6-4938-934E-5A7468ADCF5D";
shapes = (
{
closed = 1;
nodes = (
(637,52,l),
(79,289,l),
(79,291,l),
(637,528,l),
(637,550,l),
(57,303,l),
(57,277,l),
(637,30,l)
);
}
);
width = 765;
}
);
leftKerningGroup = "-";
rightKerningGroup = z;
unicode = 60;
}
{
color = 10;
glyphname = equal;
leftMetricsKey = I;
rightMetricsKey = "=|";
layers = (
{
layerId = "85FAA1A3-2184-4466-B7C1-269FA7F78F7B";
shapes = (
{
closed = 1;
nodes = (
(678,335,l),
(678,500,l),
(98,500,l),
(98,335,l)
);
},
{
closed = 1;
nodes = (
(678,80,l),
(678,245,l),
(98,245,l),
(98,80,l)
);
}
);
width = 778;
},
{
layerId = "840EB1FB-AC3A-40D2-8862-608CEC91F102";
shapes = (
{
closed = 1;
nodes = (
(686,350,l),
(686,470,l),
(106,470,l),
(106,350,l)
);
},
{
closed = 1;
nodes = (
(686,110,l),
(686,230,l),
(106,230,l),
(106,110,l)
);
}
);
width = 794;
},
{
layerId = "E063002F-8124-4781-80CF-71870B1E9574";
shapes = (
{
closed = 1;
nodes = (
(692,369,l),
(692,440,l),
(112,440,l),
(112,369,l)
);
},
{
closed = 1;
nodes = (
(692,140,l),
(692,211,l),
(112,211,l),
(112,140,l)
);
}
);
width = 807;
},
{
layerId = "E3F1C297-59E6-4938-934E-5A7468ADCF5D";
shapes = (
{
closed = 1;
nodes = (
(697,390,l),
(697,410,l),
(117,410,l),
(117,390,l)
);
},
{
closed = 1;
nodes = (
(697,170,l),
(697,190,l),
(117,190,l),
(117,170,l)
);
}
);
width = 817;
}
);
leftKerningGroup = equal;
rightKerningGroup = equal;
unicode = 61;
}
{
color = 10;
glyphname = greater;
leftMetricsKey = "|less";
rightMetricsKey = "|less";
layers = (
{
layerId = "85FAA1A3-2184-4466-B7C1-269FA7F78F7B";
shapes = (
{
closed = 1;
nodes = (
(102,-10,l),
(682,180,l),
(682,400,l),
(102,590,l),
(102,410,l),
(531,291,l),
(531,289,l),
(102,170,l)
);
}
);
width = 736;
},
{
layerId = "840EB1FB-AC3A-40D2-8862-608CEC91F102";
shapes = (
{
closed = 1;
nodes = (
(112,3,l),
(692,212,l),
(692,368,l),
(112,577,l),
(112,444,l),
(586,291,l),
(586,289,l),
(112,136,l)
);
}
);
width = 750;
},
{
layerId = "E063002F-8124-4781-80CF-71870B1E9574";
shapes = (
{
closed = 1;
nodes = (
(118,16,l),
(698,244,l),
(698,336,l),
(118,564,l),
(118,483,l),
(634,291,l),
(634,289,l),
(118,97,l)
);
}
);
width = 756;
},
{
layerId = "E3F1C297-59E6-4938-934E-5A7468ADCF5D";
shapes = (
{
closed = 1;
nodes = (
(126,30,l),
(706,277,l),
(706,303,l),
(126,550,l),
(126,528,l),
(684,291,l),
(684,289,l),
(126,52,l)
);
}
);
width = 766;
}
);
leftKerningGroup = z;
rightKerningGroup = "-";
unicode = 62;
}
{
color = 10;
glyphname = question;
layers = (
{
layerId = "85FAA1A3-2184-4466-B7C1-269FA7F78F7B";
shapes = (
{
closed = 1;
nodes = (
(344,240,l),
(355,279,o),
(396,325,o),
(457,365,cs),
(541,421,o),
(606,485,o),
(606,592,cs),
(606,691,o),
(526,740,o),
(367,740,cs),
(275,740,o),
(173,725,o),
(88,700,c),
(99,535,l),
(180,560,o),
(258,575,o),
(314,575,cs),
(373,575,o),
(396,565,o),
(396,538,cs),
(396,496,o),
(341,466,o),
(312,446,cs),
(208,373,o),
(159,311,o),
(149,240,c)
);
},
{
closed = 1;
nodes = (
(310,0,l),
(334,170,l),
(139,170,l),
(115,0,l)
);
}
);
width = 592;
},
{
layerId = "840EB1FB-AC3A-40D2-8862-608CEC91F102";
shapes = (
{
closed = 1;
nodes = (
(291,223,l),
(302,279,o),
(343,326,o),
(422,377,cs),
(504,430,o),
(577,494,o),
(577,598,cs),
(577,693,o),
(500,740,o),
(345,740,cs),
(258,740,o),
(164,726,o),
(84,701,c),
(94,581,l),
(173,606,o),
(241,618,o),
(308,618,cs),
(392,618,o),
(429,601,o),
(429,560,cs),
(429,505,o),
(364,463,o),
(324,437,cs),
(214,364,o),
(166,304,o),
(154,223,c)
);
},
{
closed = 1;
nodes = (
(266,0,l),
(286,143,l),
(136,143,l),
(116,0,l)
);
}
);
width = 562;
},
{
layerId = "E063002F-8124-4781-80CF-71870B1E9574";
shapes = (
{
closed = 1;
nodes = (
(244,207,l),
(256,279,o),
(295,327,o),
(394,389,cs),
(475,440,o),
(553,503,o),
(553,607,cs),
(553,697,o),
(480,740,o),
(330,740,cs),
(248,740,o),
(162,727,o),
(88,703,c),
(95,631,l),
(170,655,o),
(237,667,o),
(310,667,cs),
(419,667,o),
(469,641,o),
(469,586,cs),
(469,512,o),
(396,463,o),
(341,427,cs),
(224,353,o),
(179,296,o),
(166,207,c)
);
},
{
closed = 1;
nodes = (
(228,0,l),
(243,107,l),
(139,107,l),
(124,0,l)
);
}
);
width = 539;
},
{
layerId = "E3F1C297-59E6-4938-934E-5A7468ADCF5D";
shapes = (
{
closed = 1;
nodes = (
(197,190,l),
(210,280,o),
(248,328,o),
(365,401,cs),
(446,450,o),
(529,511,o),
(529,614,cs),
(529,699,o),
(458,740,o),
(314,740,cs),
(238,740,o),
(162,728,o),
(92,704,c),
(95,686,l),
(164,708,o),
(238,720,o),
(311,720,cs),
(446,720,o),
(509,685,o),
(509,612,cs),
(509,518,o),
(429,462,o),
(357,417,cs),
(234,342,o),
(191,287,o),
(177,190,c)
);
},
{
closed = 1;
nodes = (
(189,0,l),
(198,60,l),
(139,60,l),
(131,0,l)
);
}
);
width = 518;
}
);
leftKerningGroup = question;
rightKerningGroup = question;
unicode = 63;
}
{
color = 10;
glyphname = at;
leftMetricsKey = O;
rightMetricsKey = O;
layers = (
{
layerId = "85FAA1A3-2184-4466-B7C1-269FA7F78F7B";
shapes = (
{
closed = 1;
nodes = (
(512,-115,o),
(597,-85,o),
(662,-34,c),
(596,46,l),
(549,7,o),
(487,-15,o),
(415,-15,cs),
(253,-15,o),
(140,98,o),
(140,260,cs),
(140,422,o),
(253,535,o),
(415,535,cs),
(577,535,o),
(690,422,o),
(690,260,cs),
(690,217,o),
(681,175,o),
(666,142,c),
(721,167,l),
(614,167,l),
(614,453,l),
(474,453,l),
(472,401,l),
(470,401,l),
(438,441,o),
(403,460,o),
(357,460,cs),
(269,460,o),
(205,388,o),
(205,260,cs),
(205,131,o),
(271,60,o),
(357,60,cs),
(402,60,o),
(439,80,o),
(470,119,c),
(472,119,l),
(474,67,l),
(750,67,l),
(783,122,o),
(800,188,o),
(800,260,cs),
(800,477,o),
(638,635,o),
(415,635,cs),
(192,635,o),
(30,477,o),
(30,260,cs),
(30,43,o),
(192,-115,o),
(415,-115,cs)
);
},
{
closed = 1;
nodes = (
(374,176,o),
(351,205,o),
(351,260,cs),
(351,315,o),
(374,344,o),
(410,344,cs),
(445,344,o),
(468,317,o),
(468,264,cs),
(468,256,ls),
(468,203,o),
(445,176,o),
(410,176,cs)
);
}
);
width = 840;
},
{
layerId = "840EB1FB-AC3A-40D2-8862-608CEC91F102";
shapes = (
{
closed = 1;
nodes = (
(509,-114,o),
(591,-85,o),
(655,-35,c),
(600,34,l),
(551,-5,o),
(488,-27,o),
(416,-27,cs),
(246,-27,o),
(129,91,o),
(129,260,cs),
(129,429,o),
(246,547,o),
(416,547,cs),
(585,547,o),
(702,429,o),
(702,260,cs),
(702,210,o),
(690,163,o),
(671,126,c),
(727,151,l),
(603,151,l),
(603,456,l),
(487,456,l),
(486,398,l),
(484,398,l),
(453,442,o),
(414,463,o),
(365,463,cs),
(274,463,o),
(210,389,o),
(210,260,cs),
(210,130,o),
(275,57,o),
(365,57,cs),
(415,57,o),
(454,79,o),
(484,122,c),
(486,122,l),
(487,64,l),
(744,64,l),
(778,120,o),
(795,187,o),
(795,260,cs),
(795,478,o),
(637,634,o),
(416,634,cs),
(195,634,o),
(35,477,o),
(35,260,cs),
(35,44,o),
(195,-114,o),
(416,-114,cs)
);
},
{
closed = 1;
nodes = (
(360,152,o),
(330,190,o),
(330,260,cs),
(330,330,o),
(360,368,o),
(407,368,cs),
(454,368,o),
(483,330,o),
(483,267,cs),
(483,253,ls),
(483,190,o),
(454,152,o),
(407,152,cs)
);
}
);
width = 841;
},
{
layerId = "E063002F-8124-4781-80CF-71870B1E9574";
shapes = (
{
closed = 1;
nodes = (
(504,-111,o),
(583,-85,o),
(645,-38,c),
(607,10,l),
(555,-29,o),
(490,-50,o),
(417,-50,cs),
(234,-50,o),
(106,78,o),
(106,260,cs),
(106,442,o),
(234,570,o),
(417,570,cs),
(600,570,o),
(726,444,o),
(726,260,cs),
(726,198,o),
(710,141,o),
(681,96,c),
(729,119,l),
(591,119,l),
(591,461,l),
(515,461,l),
(514,404,l),
(512,404,l),
(484,446,o),
(435,470,o),
(381,470,cs),
(283,470,o),
(219,392,o),
(219,260,cs),
(219,127,o),
(284,50,o),
(381,50,cs),
(436,50,o),
(484,75,o),
(512,117,c),
(514,117,l),
(515,59,l),
(736,59,l),
(773,116,o),
(791,184,o),
(791,260,cs),
(791,478,o),
(637,631,o),
(417,631,cs),
(197,631,o),
(41,477,o),
(41,260,cs),
(41,44,o),
(197,-111,o),
(417,-111,cs)
);
},
{
closed = 1;
nodes = (
(339,113,o),
(298,167,o),
(298,260,cs),
(298,352,o),
(339,407,o),
(405,407,cs),
(470,407,o),
(512,354,o),
(512,272,cs),
(512,248,ls),
(512,166,o),
(470,113,o),
(405,113,cs)
);
}
);
width = 841;
},
{
layerId = "197DEB4F-431F-44AB-9E75-DFE960AF7369";
partSelection = {
Wt = 2;
};
associatedMasterId = "E3F1C297-59E6-4938-934E-5A7468ADCF5D";
shapes = (
{
closed = 1;
nodes = (
(501,-108,o),
(577,-84,o),
(638,-41,c),
(613,-9,l),
(559,-47,o),
(492,-68,o),
(417,-68,c),
(224,-68,o),
(89,67,o),
(89,260,c),
(89,453,o),
(224,588,o),
(417,588,c),
(612,588,o),
(745,455,o),
(745,260,c),
(745,188,o),
(725,124,o),
(690,73,c),
(728,94,l),
(583,94,l),
(583,466,l),
(536,466,l),
(535,411,l),
(533,411,l),
(508,449,o),
(451,475,o),
(393,475,c),
(291,475,o),
(226,394,o),
(226,260,cs),
(226,124,o),
(291,45,o),
(393,45,c),
(451,45,o),
(508,71,o),
(533,110,c),
(535,110,l),
(536,54,l),
(731,54,l),
(769,112,o),
(789,181,o),
(789,260,c),
(789,479,o),
(638,628,o),
(417,628,c),
(199,628,o),
(45,476,o),
(45,260,c),
(45,44,o),
(199,-108,o),
(417,-108,c)
);
},
{
closed = 1;
nodes = (
(324,86,o),
(275,151,o),
(275,260,cs),
(275,368,o),
(325,434,o),
(405,434,c),
(483,434,o),
(534,372,o),
(534,276,c),
(534,244,l),
(534,148,o),
(483,86,o),
(405,86,c)
);
}
);
width = 834;
},
{
layerId = "E3F1C297-59E6-4938-934E-5A7468ADCF5D";
shapes = (
{
closed = 1;
nodes = (
(490,-105,o),
(563,-84,o),
(623,-43,c),
(612,-27,l),
(555,-65,o),
(487,-85,o),
(411,-85,c),
(208,-85,o),
(66,57,o),
(66,260,c),
(66,463,o),
(208,605,o),
(411,605,c),
(617,605,o),
(756,466,o),
(756,260,c),
(756,179,o),
(733,107,o),
(692,51,c),
(720,70,l),
(569,70,l),
(569,470,l),
(549,470,l),
(549,387,l),
(547,387,l),
(521,447,o),
(471,480,o),
(398,480,c),
(292,480,o),
(226,396,o),
(226,260,cs),
(226,122,o),
(290,40,o),
(398,40,c),
(471,40,o),
(521,73,o),
(547,133,c),
(549,133,l),
(549,50,l),
(717,50,l),
(755,108,o),
(776,179,o),
(776,260,c),
(776,479,o),
(630,625,o),
(411,625,c),
(196,625,o),
(46,475,o),
(46,260,c),
(46,45,o),
(196,-105,o),
(411,-105,c)
);
},
{
closed = 1;
nodes = (
(303,60,o),
(246,135,o),
(246,260,cs),
(246,383,o),
(304,460,o),
(398,460,c),
(494,460,o),
(549,394,o),
(549,280,c),
(549,240,l),
(549,126,o),
(494,60,o),
(398,60,c)
);
}
);
width = 831;
}
);
partsSettings = (
{
bottomValue = 0;
name = Wt;
topValue = 1000;
}
);
leftKerningGroup = o;
rightKerningGroup = o;
unicode = 64;
}
{
color = 10;
glyphname = A;
layers = (
{
anchors = (
{
name = bottom;
position = "{316, 0}";
},
{
name = ogonek;
position = "{667, 0}";
},
{
name = top;
position = "{346, 730}";
},
{
name = top_ring;
position = "{317, 665}";
}
);
layerId = "85FAA1A3-2184-4466-B7C1-269FA7F78F7B";
shapes = (
{
closed = 1;
nodes = (
(179,0,l),
(395,560,l),
(397,560,l),
(452,0,l),
(667,0,l),
(552,730,l),
(289,730,l),
(-35,0,l)
);
},
{
closed = 1;
nodes = (
(525,135,l),
(549,300,l),
(169,300,l),
(145,135,l)
);
}
);
width = 715;
},
{
anchors = (
{
name = bottom;
position = "{311, 0}";
},
{
name = ogonek;
position = "{648, 0}";
},
{
name = top;
position = "{311, 730}";
},
{
name = top_ring;
position = "{312, 682}";
}
);
layerId = "840EB1FB-AC3A-40D2-8862-608CEC91F102";
shapes = (
{
closed = 1;
nodes = (
(123,0,l),
(397,611,l),
(399,611,l),
(499,0,l),
(649,0,l),
(508,730,l),
(324,730,l),
(-27,0,l)
);
},
{
closed = 1;
nodes = (
(530,167,l),
(547,289,l),
(157,289,l),
(140,167,l)
);
}
);
width = 706;
},
{
anchors = (
{
name = bottom;
position = "{300, 0}";
},
{
name = ogonek;
position = "{625, 0}";
},
{
name = top;
position = "{300, 730}";
},
{
name = top_ring;
position = "{300, 698}";
}
);
layerId = "E063002F-8124-4781-80CF-71870B1E9574";
shapes = (
{
closed = 1;
nodes = (
(60,0,l),
(394,661,l),
(396,661,l),
(539,0,l),
(625,0,l),
(457,730,l),
(352,730,l),
(-25,0,l)
);
},
{
closed = 1;
nodes = (
(529,201,l),
(539,274,l),
(139,274,l),
(129,201,l)
);
}
);
width = 683;
},
{
anchors = (
{
name = bottom;
position = "{289, 0}";
},
{
name = ogonek;
position = "{601, 0}";
},
{
name = top;
position = "{289, 730}";
},
{
name = top_ring;
position = "{289, 715}";
}
);
layerId = "E3F1C297-59E6-4938-934E-5A7468ADCF5D";
shapes = (
{
closed = 1;
nodes = (
(-2,0,l),
(389,711,l),
(391,711,l),
(579,0,l),
(601,0,l),
(406,730,l),
(379,730,l),
(-23,0,l)
);
},
{
closed = 1;
nodes = (
(527,237,l),
(530,257,l),
(120,257,l),
(118,237,l)
);
}
);
width = 661;
}
);
leftKerningGroup = A;
rightKerningGroup = A;
unicode = 65;
}
{
color = 10;
glyphname = B;
layers = (
{
layerId = "85FAA1A3-2184-4466-B7C1-269FA7F78F7B";
shapes = (
{
closed = 1;
nodes = (
(294,0,ls),
(454,0,o),
(639,52,o),
(639,244,cs),
(639,324,o),
(589,372,o),
(495,384,c),
(496,386,l),
(596,401,o),
(667,474,o),
(667,576,cs),
(667,677,o),
(572,730,o),
(389,730,cs),
(126,730,l),
(21,0,l)
);
},
{
closed = 1;
nodes = (
(299,575,l),
(377,575,ls),
(440,575,o),
(466,562,o),
(466,526,cs),
(466,459,o),
(416,450,o),
(359,450,cs),
(183,450,l),
(162,300,l),
(337,300,ls),
(408,300,o),
(440,282,o),
(440,241,cs),
(440,169,o),
(377,155,o),
(317,155,cs),
(239,155,l)
);
}
);
width = 680;
},
{
layerId = "840EB1FB-AC3A-40D2-8862-608CEC91F102";
shapes = (
{
closed = 1;
nodes = (
(291,0,ls),
(453,0,o),
(629,49,o),
(629,242,cs),
(629,323,o),
(580,372,o),
(488,386,c),
(488,388,l),
(586,407,o),
(651,480,o),
(651,580,cs),
(651,680,o),
(564,730,o),
(389,730,cs),
(135,730,l),
(31,0,l)
);
},
{
closed = 1;
nodes = (
(255,613,l),
(379,613,ls),
(470,613,o),
(510,592,o),
(510,543,cs),
(510,452,o),
(429,437,o),
(354,437,cs),
(162,437,l),
(146,323,l),
(338,323,ls),
(442,323,o),
(490,296,o),
(490,238,cs),
(490,135,o),
(391,117,o),
(308,117,cs),
(184,117,l)
);
}
);
width = 668;
},
{
layerId = "E063002F-8124-4781-80CF-71870B1E9574";
shapes = (
{
closed = 1;
nodes = (
(288,0,ls),
(451,0,o),
(619,47,o),
(619,239,cs),
(619,322,o),
(570,372,o),
(474,388,c),
(474,390,l),
(572,411,o),
(636,482,o),
(636,583,cs),
(636,682,o),
(554,730,o),
(389,730,cs),
(145,730,l),
(41,0,l)
);
},
{
closed = 1;
nodes = (
(213,658,l),
(382,658,ls),
(501,658,o),
(556,628,o),
(556,562,cs),
(556,444,o),
(446,420,o),
(348,420,cs),
(140,420,l),
(130,350,l),
(338,350,ls),
(475,350,o),
(540,314,o),
(540,236,cs),
(540,97,o),
(412,72,o),
(298,72,cs),
(129,72,l)
);
}
);
width = 662;
},
{
layerId = "E3F1C297-59E6-4938-934E-5A7468ADCF5D";
shapes = (
{
closed = 1;
nodes = (
(285,0,ls),
(448,0,o),
(609,45,o),
(609,236,cs),
(609,322,o),
(558,371,o),
(453,390,c),
(454,392,l),
(556,415,o),
(619,479,o),
(619,586,cs),
(619,683,o),
(543,730,o),
(389,730,cs),
(155,730,l),
(51,0,l)
);
},
{
closed = 1;
nodes = (
(172,710,l),
(386,710,ls),
(531,710,o),
(600,669,o),
(600,582,cs),
(600,433,o),
(467,400,o),
(342,400,cs),
(118,400,l),
(115,380,l),
(339,380,ls),
(509,380,o),
(589,334,o),
(589,233,cs),
(589,56,o),
(436,20,o),
(287,20,cs),
(73,20,l)
);
}
);
width = 657;
}
);
leftKerningGroup = H;
rightKerningGroup = B;
unicode = 66;
}
{
color = 10;
glyphname = C;
layers = (
{
anchors = (
{
name = bottom;
position = "{346, 0}";
},
{
name = top;
position = "{346, 730}";
}
);
layerId = "85FAA1A3-2184-4466-B7C1-269FA7F78F7B";
shapes = (
{
closed = 1;
nodes = (
(460,-10,o),
(543,8,o),
(620,46,c),
(602,216,l),
(526,178,o),
(460,160,o),
(401,160,cs),
(297,160,o),
(240,216,o),
(240,318,cs),
(240,453,o),
(312,570,o),
(460,570,cs),
(518,570,o),
(580,552,o),
(645,514,c),
(711,684,l),
(645,722,o),
(567,740,o),
(476,740,cs),
(197,740,o),
(35,556,o),
(35,287,cs),
(35,95,o),
(152,-10,o),
(369,-10,cs)
);
}
);
width = 694;
},
{
anchors = (
{
name = bottom;
position = "{348, 0}";
},
{
name = top;
position = "{348, 730}";
}
);
layerId = "840EB1FB-AC3A-40D2-8862-608CEC91F102";
shapes = (
{
closed = 1;
nodes = (
(455,-10,o),
(536,9,o),
(611,49,c),
(598,171,l),
(523,132,o),
(455,113,o),
(389,113,cs),
(258,113,o),
(184,186,o),
(184,312,cs),
(184,479,o),
(282,617,o),
(461,617,cs),
(528,617,o),
(591,598,o),
(653,559,c),
(702,681,l),
(638,721,o),
(562,740,o),
(473,740,cs),
(203,740,o),
(40,549,o),
(40,289,cs),
(40,99,o),
(157,-10,o),
(366,-10,cs)
);
}
);
width = 690;
},
{
anchors = (
{
name = bottom;
position = "{351, 0}";
},
{
name = top;
position = "{351, 730}";
}
);
layerId = "E063002F-8124-4781-80CF-71870B1E9574";
shapes = (
{
closed = 1;
nodes = (
(451,-10,o),
(532,11,o),
(605,52,c),
(594,123,l),
(522,83,o),
(451,63,o),
(378,63,cs),
(221,63,o),
(127,154,o),
(127,305,cs),
(127,504,o),
(256,667,o),
(465,667,cs),
(538,667,o),
(604,647,o),
(663,607,c),
(694,678,l),
(633,719,o),
(558,740,o),
(472,740,cs),
(210,740,o),
(47,543,o),
(47,292,cs),
(47,104,o),
(164,-10,o),
(365,-10,cs)
);
}
);
width = 689;
},
{
anchors = (
{
name = bottom;
position = "{354, 0}";
},
{
name = top;
position = "{354, 730}";
}
);
layerId = "E3F1C297-59E6-4938-934E-5A7468ADCF5D";
shapes = (
{
closed = 1;
nodes = (
(447,-10,o),
(526,12,o),
(598,55,c),
(589,72,l),
(521,31,o),
(446,10,o),
(366,10,cs),
(181,10,o),
(71,122,o),
(71,299,cs),
(71,529,o),
(227,720,o),
(467,720,cs),
(547,720,o),
(617,699,o),
(673,658,c),
(686,675,l),
(627,718,o),
(554,740,o),
(470,740,cs),
(217,740,o),
(52,538,o),
(52,295,cs),
(52,109,o),
(169,-10,o),
(363,-10,cs)
);
}
);
width = 687;
}
);
leftKerningGroup = O;
rightKerningGroup = C;
unicode = 67;
}
{
color = 10;
glyphname = D;
layers = (
{
anchors = (
{
name = bottom;
position = "{308, 0}";
},
{
name = center;
position = "{308, 365}";
},
{
name = top;
position = "{308, 730}";
}
);
layerId = "85FAA1A3-2184-4466-B7C1-269FA7F78F7B";
shapes = (
{
closed = 1;
nodes = (
(265,0,ls),
(569,0,o),
(686,184,o),
(686,464,cs),
(686,649,o),
(587,730,o),
(369,730,c),
(126,730,l),
(21,0,l)
);
},
{
closed = 1;
nodes = (
(298,570,l),
(359,570,ls),
(450,570,o),
(486,541,o),
(486,452,cs),
(486,320,o),
(466,160,o),
(301,160,cs),
(239,160,l)
);
}
);
width = 699;
},
{
anchors = (
{
name = bottom;
position = "{305, 0}";
},
{
name = center;
position = "{305, 365}";
},
{
name = top;
position = "{305, 730}";
}
);
layerId = "840EB1FB-AC3A-40D2-8862-608CEC91F102";
shapes = (
{
closed = 1;
nodes = (
(249,0,ls),
(546,0,o),
(675,179,o),
(675,457,cs),
(675,643,o),
(571,730,o),
(353,730,cs),
(135,730,l),
(31,0,l)
);
},
{
closed = 1;
nodes = (
(255,610,l),
(344,610,ls),
(476,610,o),
(535,561,o),
(535,440,cs),
(535,263,o),
(478,120,o),
(274,120,cs),
(185,120,l)
);
}
);
width = 695;
},
{
anchors = (
{
name = bottom;
position = "{303, 0}";
},
{
name = center;
position = "{303, 365}";
},
{
name = top;
position = "{303, 730}";
}
);
layerId = "E063002F-8124-4781-80CF-71870B1E9574";
shapes = (
{
closed = 1;
nodes = (
(233,0,ls),
(520,0,o),
(665,174,o),
(665,448,cs),
(665,637,o),
(557,730,o),
(337,730,cs),
(145,730,l),
(41,0,l)
);
},
{
closed = 1;
nodes = (
(213,657,l),
(331,657,ls),
(503,657,o),
(585,587,o),
(585,437,cs),
(585,218,o),
(482,73,o),
(247,73,cs),
(129,73,l)
);
}
);
width = 690;
},
{
anchors = (
{
name = bottom;
position = "{300, 0}";
},
{
name = center;
position = "{300, 365}";
},
{
name = top;
position = "{300, 730}";
}
);
layerId = "E3F1C297-59E6-4938-934E-5A7468ADCF5D";
shapes = (
{
closed = 1;
nodes = (
(216,0,ls),
(496,0,o),
(655,171,o),
(655,443,cs),
(655,631,o),
(540,730,o),
(321,730,cs),
(155,730,l),
(51,0,l)
);
},
{
closed = 1;
nodes = (
(172,710,l),
(318,710,ls),
(528,710,o),
(635,619,o),
(635,442,cs),
(635,181,o),
(488,20,o),
(219,20,cs),
(73,20,l)
);
}
);
width = 685;
}
);
leftKerningGroup = H;
rightKerningGroup = O;
unicode = 68;
}
{
color = 10;
glyphname = E;
layers = (
{
anchors = (
{
name = bottom;
position = "{285, 0}";
},
{
name = ogonek;
position = "{548, 0}";
},
{
name = top;
position = "{315, 730}";
},
{
name = topleft;
position = "{-22, 730}";
}
);
layerId = "85FAA1A3-2184-4466-B7C1-269FA7F78F7B";
shapes = (
{
closed = 1;
nodes = (
(548,0,l),
(571,160,l),
(239,160,l),
(259,298,l),
(571,298,l),
(593,452,l),
(281,452,l),
(298,570,l),
(629,570,l),
(652,730,l),
(126,730,l),
(21,0,l)
);
}
);
width = 643;
},
{
anchors = (
{
name = bottom;
position = "{287, 0}";
},
{
name = ogonek;
position = "{539, 0}";
},
{
name = top;
position = "{287, 730}";
},
{
name = topleft;
position = "{-26, 730}";
}
);
layerId = "840EB1FB-AC3A-40D2-8862-608CEC91F102";
shapes = (
{
closed = 1;
nodes = (
(538,0,l),
(555,119,l),
(185,119,l),
(214,322,l),
(565,322,l),
(581,437,l),
(230,437,l),
(255,611,l),
(625,611,l),
(642,730,l),
(135,730,l),
(31,0,l)
);
}
);
width = 635;
},
{
anchors = (
{
name = bottom;
position = "{289, 0}";
},
{
name = ogonek;
position = "{529, 0}";
},
{
name = top;
position = "{289, 730}";
},
{
name = topleft;
position = "{-32, 730}";
}
);
layerId = "E063002F-8124-4781-80CF-71870B1E9574";
shapes = (
{
closed = 1;
nodes = (
(528,0,l),
(539,72,l),
(129,72,l),
(169,349,l),
(559,349,l),
(569,420,l),
(179,420,l),
(213,658,l),
(622,658,l),
(633,730,l),
(145,730,l),
(41,0,l)
);
}
);
width = 633;
},
{
anchors = (
{
name = bottom;
position = "{290, 0}";
},
{
name = ogonek;
position = "{520, 0}";
},
{
name = top;
position = "{290, 730}";
},
{
name = topleft;
position = "{-39, 730}";
}
);
layerId = "E3F1C297-59E6-4938-934E-5A7468ADCF5D";
shapes = (
{
closed = 1;
nodes = (
(519,0,l),
(521,20,l),
(73,20,l),
(124,380,l),
(553,380,l),
(556,400,l),
(127,400,l),
(172,710,l),
(620,710,l),
(623,730,l),
(155,730,l),
(51,0,l)
);
}
);
width = 630;
}
);
leftKerningGroup = H;
rightKerningGroup = E;
unicode = 69;
}
{
color = 10;
glyphname = F;
layers = (
{
layerId = "85FAA1A3-2184-4466-B7C1-269FA7F78F7B";
shapes = (
{
closed = 1;
nodes = (
(216,0,l),
(255,270,l),
(567,270,l),
(589,430,l),
(277,430,l),
(297,565,l),
(629,565,l),
(652,730,l),
(125,730,l),
(21,0,l)
);
}
);
width = 637;
},
{
layerId = "840EB1FB-AC3A-40D2-8862-608CEC91F102";
shapes = (
{
closed = 1;
nodes = (
(168,0,l),
(210,296,l),
(561,296,l),
(578,415,l),
(227,415,l),
(255,608,l),
(625,608,l),
(642,730,l),
(135,730,l),
(31,0,l)
);
}
);
width = 620;
},
{
layerId = "E063002F-8124-4781-80CF-71870B1E9574";
shapes = (
{
closed = 1;
nodes = (
(119,0,l),
(165,324,l),
(555,324,l),
(566,396,l),
(176,396,l),
(213,657,l),
(622,657,l),
(632,730,l),
(145,730,l),
(41,0,l)
);
}
);
width = 615;
},
{
layerId = "E3F1C297-59E6-4938-934E-5A7468ADCF5D";
shapes = (
{
closed = 1;
nodes = (
(70,0,l),
(121,355,l),
(550,355,l),
(553,375,l),
(124,375,l),
(171,710,l),
(620,710,l),
(623,730,l),
(155,730,l),
(51,0,l)
);
}
);
width = 611;
}
);
leftKerningGroup = H;
rightKerningGroup = F;
unicode = 70;
}
{
color = 10;
glyphname = G;
layers = (
{
anchors = (
{
name = bottom;
position = "{368, 0}";
},
{
name = top;
position = "{368, 730}";
}
);
layerId = "85FAA1A3-2184-4466-B7C1-269FA7F78F7B";
shapes = (
{
closed = 1;
nodes = (
(510,-10,o),
(618,12,o),
(698,50,c),
(756,452,l),
(375,452,l),
(352,287,l),
(537,287,l),
(515,131,l),
(544,177,l),
(505,161,o),
(472,155,o),
(429,155,cs),
(301,155,o),
(237,209,o),
(237,317,cs),
(237,468,o),
(318,575,o),
(478,575,cs),
(549,575,o),
(625,556,o),
(679,524,c),
(743,684,l),
(683,720,o),
(597,740,o),
(501,740,cs),
(230,740,o),
(36,572,o),
(36,297,cs),
(36,103,o),
(168,-10,o),
(405,-10,cs)
);
}
);
width = 787;
},
{
anchors = (
{
name = bottom;
position = "{368, 0}";
},
{
name = top;
position = "{368, 730}";
}
);
layerId = "840EB1FB-AC3A-40D2-8862-608CEC91F102";
shapes = (
{
closed = 1;
nodes = (
(502,-10,o),
(610,11,o),
(689,48,c),
(745,435,l),
(368,435,l),
(351,317,l),
(591,317,l),
(560,102,l),
(585,144,l),
(535,122,o),
(478,112,o),
(419,112,cs),
(265,112,o),
(182,183,o),
(182,313,cs),
(182,495,o),
(296,618,o),
(483,618,cs),
(560,618,o),
(637,599,o),
(693,566,c),
(740,683,l),
(680,720,o),
(595,740,o),
(501,740,cs),
(232,740,o),
(41,567,o),
(41,297,cs),
(41,103,o),
(171,-10,o),
(401,-10,cs)
);
}
);
width = 787;
},
{
anchors = (
{
name = bottom;
position = "{371, 0}";
},
{
name = top;
position = "{371, 730}";
}
);
layerId = "E063002F-8124-4781-80CF-71870B1E9574";
shapes = (
{
closed = 1;
nodes = (
(496,-10,o),
(604,11,o),
(682,46,c),
(735,417,l),
(362,417,l),
(352,348,l),
(647,348,l),
(608,74,l),
(627,105,l),
(566,79,o),
(485,63,o),
(409,63,cs),
(228,63,o),
(128,152,o),
(128,307,cs),
(128,522,o),
(273,667,o),
(491,667,cs),
(573,667,o),
(652,647,o),
(709,612,c),
(739,681,l),
(679,719,o),
(595,740,o),
(502,740,cs),
(235,740,o),
(47,562,o),
(47,296,cs),
(47,104,o),
(175,-10,o),
(398,-10,cs)
);
}
);
width = 788;
},
{
anchors = (
{
name = bottom;
position = "{373, 0}";
},
{
name = top;
position = "{373, 730}";
}
);
layerId = "E3F1C297-59E6-4938-934E-5A7468ADCF5D";
shapes = (
{
closed = 1;
nodes = (
(490,-10,o),
(598,11,o),
(674,44,c),
(725,400,l),
(354,400,l),
(352,380,l),
(703,380,l),
(655,45,l),
(669,62,l),
(595,30,o),
(490,10,o),
(398,10,cs),
(188,10,o),
(71,116,o),
(71,298,cs),
(71,548,o),
(248,720,o),
(500,720,cs),
(586,720,o),
(667,700,o),
(725,663,c),
(738,680,l),
(678,718,o),
(594,740,o),
(502,740,cs),
(238,740,o),
(52,557,o),
(52,295,cs),
(52,103,o),
(177,-10,o),
(395,-10,cs)
);
}
);
width = 788;
}
);
leftKerningGroup = O;
rightKerningGroup = G;
unicode = 71;
}
{
color = 10;
glyphname = H;
layers = (
{
anchors = (
{
name = bottom;
position = "{329, 0}";
},
{
name = center;
position = "{329, 365}";
},
{
name = top;
position = "{329, 730}";
},
{
name = topleft;
position = "{-22, 730}";
}
);
layerId = "85FAA1A3-2184-4466-B7C1-269FA7F78F7B";
shapes = (
{
closed = 1;
nodes = (
(636,0,l),
(740,730,l),
(545,730,l),
(441,0,l)
);
},
{
closed = 1;
nodes = (
(216,0,l),
(321,730,l),
(126,730,l),
(21,0,l)
);
},
{
closed = 1;
nodes = (
(580,290,l),
(604,460,l),
(185,460,l),
(160,290,l)
);
}
);
width = 741;
},
{
anchors = (
{
name = bottom;
position = "{326, 0}";
},
{
name = center;
position = "{326, 365}";
},
{
name = top;
position = "{326, 730}";
},
{
name = topleft;
position = "{-22, 730}";
}
);
layerId = "840EB1FB-AC3A-40D2-8862-608CEC91F102";
shapes = (
{
closed = 1;
nodes = (
(619,0,l),
(723,730,l),
(587,730,l),
(483,0,l)
);
},
{
closed = 1;
nodes = (
(168,0,l),
(272,730,l),
(135,730,l),
(31,0,l)
);
},
{
closed = 1;
nodes = (
(596,318,l),
(614,441,l),
(162,441,l),
(145,318,l)
);
}
);
width = 735;
},
{
anchors = (
{
name = bottom;
position = "{322, 0}";
},
{
name = center;
position = "{322, 365}";
},
{
name = top;
position = "{322, 730}";
},
{
name = topleft;
position = "{-22, 730}";
}
);
layerId = "E063002F-8124-4781-80CF-71870B1E9574";
shapes = (
{
closed = 1;
nodes = (
(603,0,l),
(708,730,l),
(630,730,l),
(525,0,l)
);
},
{
closed = 1;
nodes = (
(119,0,l),
(223,730,l),
(145,730,l),
(41,0,l)
);
},
{
closed = 1;
nodes = (
(614,348,l),
(625,421,l),
(140,421,l),
(130,348,l)
);
}
);
width = 728;
},
{
anchors = (
{
name = bottom;
position = "{319, 0}";
},
{
name = center;
position = "{319, 365}";
},
{
name = top;
position = "{319, 730}";
},
{
name = topleft;
position = "{-22, 730}";
}
);
layerId = "E3F1C297-59E6-4938-934E-5A7468ADCF5D";
shapes = (
{
closed = 1;
nodes = (
(587,0,l),
(691,730,l),
(672,730,l),
(567,0,l)
);
},
{
closed = 1;
nodes = (
(70,0,l),
(174,730,l),
(155,730,l),
(51,0,l)
);
},
{
closed = 1;
nodes = (
(631,380,l),
(634,400,l),
(118,400,l),
(115,380,l)
);
}
);
width = 721;
}
);
leftKerningGroup = H;
rightKerningGroup = H;
unicode = 72;
}
{
color = 10;
glyphname = I;
layers = (
{
anchors = (
{
name = bottom;
position = "{130, 0}";
},
{
name = ogonek;
position = "{232, 0}";
},
{
name = top;
position = "{130, 730}";
},
{
name = topleft;
position = "{-23, 730}";
}
);
layerId = "85FAA1A3-2184-4466-B7C1-269FA7F78F7B";
shapes = (
{
closed = 1;
nodes = (
(232,0,l),
(336,730,l),
(131,730,l),
(27,0,l)
);
}
);
width = 343;
},
{
anchors = (
{
name = bottom;
position = "{110, 0}";
},
{
name = ogonek;
position = "{181, 0}";
},
{
name = top;
position = "{110, 730}";
},
{
name = topleft;
position = "{-21, 730}";
}
);
layerId = "840EB1FB-AC3A-40D2-8862-608CEC91F102";
shapes = (
{
closed = 1;
nodes = (
(181,0,l),
(286,730,l),
(143,730,l),
(39,0,l)
);
}
);
width = 304;
},
{
anchors = (
{
name = bottom;
position = "{90, 0}";
},
{
name = ogonek;
position = "{130, 0}";
},
{
name = top;
position = "{90, 730}";
},
{
name = topleft;
position = "{-22, 730}";
}
);
layerId = "E063002F-8124-4781-80CF-71870B1E9574";
shapes = (
{
closed = 1;
nodes = (
(130,0,l),
(234,730,l),
(154,730,l),
(50,0,l)
);
}
);
width = 263;
},
{
anchors = (
{
name = bottom;
position = "{69, 0}";
},
{
name = ogonek;
position = "{79, 0}";
},
{
name = top;
position = "{69, 730}";
},
{
name = topleft;
position = "{-23, 730}";
}
);
layerId = "E3F1C297-59E6-4938-934E-5A7468ADCF5D";
shapes = (
{
closed = 1;
nodes = (
(79,0,l),
(183,730,l),
(163,730,l),
(59,0,l)
);
}
);
width = 222;
}
);
leftKerningGroup = I;
rightKerningGroup = I;
unicode = 73;
}
{
color = 10;
glyphname = J;
layers = (
{
anchors = (
{
name = bottom;
position = "{246, 0}";
},
{
name = top;
position = "{246, 730}";
}
);
layerId = "85FAA1A3-2184-4466-B7C1-269FA7F78F7B";
shapes = (
{
closed = 1;
nodes = (
(397,-10,o),
(500,78,o),
(528,280,cs),
(593,730,l),
(393,730,l),
(329,280,ls),
(318,203,o),
(276,165,o),
(204,165,cs),
(162,165,o),
(93,178,o),
(20,199,c),
(-34,29,l),
(33,4,o),
(112,-10,o),
(192,-10,cs)
);
}
);
width = 588;
},
{
anchors = (
{
name = bottom;
position = "{251, 0}";
},
{
name = top;
position = "{251, 730}";
}
);
layerId = "840EB1FB-AC3A-40D2-8862-608CEC91F102";
shapes = (
{
closed = 1;
nodes = (
(391,-10,o),
(494,81,o),
(523,280,cs),
(587,730,l),
(446,730,l),
(382,280,ls),
(366,169,o),
(309,115,o),
(206,115,cs),
(151,115,o),
(81,131,o),
(15,160,c),
(-26,36,l),
(38,6,o),
(115,-10,o),
(196,-10,cs)
);
}
);
width = 590;
},
{
anchors = (
{
name = bottom;
position = "{251, 0}";
},
{
name = top;
position = "{251, 730}";
}
);
layerId = "E063002F-8124-4781-80CF-71870B1E9574";
shapes = (
{
closed = 1;
nodes = (
(382,-10,o),
(483,84,o),
(511,280,cs),
(575,730,l),
(495,730,l),
(431,280,ls),
(410,133,o),
(337,63,o),
(203,63,cs),
(135,63,o),
(63,82,o),
(4,116,c),
(-23,43,l),
(35,9,o),
(114,-10,o),
(196,-10,cs)
);
}
);
width = 587;
},
{
anchors = (
{
name = bottom;
position = "{251, 0}";
},
{
name = top;
position = "{251, 730}";
}
);
layerId = "E3F1C297-59E6-4938-934E-5A7468ADCF5D";
shapes = (
{
closed = 1;
nodes = (
(372,-10,o),
(471,85,o),
(499,280,cs),
(563,730,l),
(544,730,l),
(480,280,ls),
(453,96,o),
(364,10,o),
(199,10,cs),
(117,10,o),
(42,31,o),
(-8,67,c),
(-21,50,l),
(32,12,o),
(112,-10,o),
(196,-10,cs)
);
}
);
width = 585;
}
);
leftKerningGroup = J;
rightKerningGroup = U;
unicode = 74;
}
{
color = 10;
glyphname = K;
layers = (
{
anchors = (
{
name = bottom;
position = "{304, 0}";
},
{
name = top;
position = "{304, 730}";
}
);
layerId = "85FAA1A3-2184-4466-B7C1-269FA7F78F7B";
shapes = (
{
closed = 1;
nodes = (
(216,0,l),
(264,335,l),
(266,335,l),
(441,0,l),
(665,0,l),
(470,375,l),
(759,730,l),
(535,730,l),
(278,415,l),
(276,415,l),
(321,730,l),
(126,730,l),
(21,0,l)
);
}
);
width = 719;
},
{
anchors = (
{
name = bottom;
position = "{290, 0}";
},
{
name = top;
position = "{290, 730}";
}
);
layerId = "840EB1FB-AC3A-40D2-8862-608CEC91F102";
shapes = (
{
closed = 1;
nodes = (
(168,0,l),
(217,346,l),
(219,346,l),
(470,0,l),
(636,0,l),
(360,380,l),
(730,730,l),
(564,730,l),
(229,414,l),
(227,414,l),
(272,730,l),
(135,730,l),
(31,0,l)
);
}
);
width = 699;
},
{
anchors = (
{
name = bottom;
position = "{275, 0}";
},
{
name = top;
position = "{275, 730}";
}
);
layerId = "E063002F-8124-4781-80CF-71870B1E9574";
shapes = (
{
closed = 1;
nodes = (
(119,0,l),
(170,359,l),
(172,359,l),
(505,0,l),
(606,0,l),
(251,385,l),
(701,730,l),
(599,730,l),
(179,410,l),
(177,410,l),
(223,730,l),
(145,730,l),
(41,0,l)
);
}
);
width = 673;
},
{
anchors = (
{
name = bottom;
position = "{260, 0}";
},
{
name = top;
position = "{260, 730}";
}
);
layerId = "E3F1C297-59E6-4938-934E-5A7468ADCF5D";
shapes = (
{
closed = 1;
nodes = (
(70,0,l),
(124,376,l),
(126,376,l),
(546,0,l),
(577,0,l),
(141,390,l),
(672,730,l),
(639,730,l),
(130,404,l),
(128,404,l),
(174,730,l),
(155,730,l),
(51,0,l)
);
}
);
width = 647;
}
);
leftKerningGroup = H;
rightKerningGroup = K;
unicode = 75;
}
{
color = 10;
glyphname = L;
layers = (
{
anchors = (
{
name = bottom;
position = "{266, 0}";
},
{
name = center;
position = "{266, 375}";
},
{
name = pdcenter;
position = "{548, 375}";
},
{
name = top;
position = "{266, 730}";
},
{
name = topright;
position = "{554, 730}";
}
);
layerId = "85FAA1A3-2184-4466-B7C1-269FA7F78F7B";
shapes = (
{
closed = 1;
nodes = (
(548,0,l),
(572,170,l),
(246,170,l),
(326,730,l),
(126,730,l),
(21,0,l)
);
}
);
width = 615;
},
{
anchors = (
{
name = bottom;
position = "{264, 0}";
},
{
name = center;
position = "{264, 375}";
},
{
name = pdcenter;
position = "{538, 375}";
},
{
name = top;
position = "{264, 730}";
},
{
name = topright;
position = "{551, 730}";
}
);
layerId = "840EB1FB-AC3A-40D2-8862-608CEC91F102";
shapes = (
{
closed = 1;
nodes = (
(538,0,l),
(556,123,l),
(189,123,l),
(276,730,l),
(135,730,l),
(31,0,l)
);
}
);
width = 617;
},
{
anchors = (
{
name = bottom;
position = "{263, 0}";
},
{
name = center;
position = "{263, 375}";
},
{
name = pdcenter;
position = "{522, 375}";
},
{
name = top;
position = "{263, 730}";
},
{
name = topright;
position = "{541, 730}";
}
);
layerId = "E063002F-8124-4781-80CF-71870B1E9574";
shapes = (
{
closed = 1;
nodes = (
(528,0,l),
(539,73,l),
(131,73,l),
(225,730,l),
(145,730,l),
(41,0,l)
);
}
);
width = 612;
},
{
anchors = (
{
name = bottom;
position = "{262, 0}";
},
{
name = center;
position = "{262, 375}";
},
{
name = pdcenter;
position = "{499, 375}";
},
{
name = top;
position = "{262, 730}";
},
{
name = topright;
position = "{526, 730}";
}
);
layerId = "E3F1C297-59E6-4938-934E-5A7468ADCF5D";
shapes = (
{
closed = 1;
nodes = (
(519,0,l),
(521,20,l),
(73,20,l),
(174,730,l),
(155,730,l),
(51,0,l)
);
}
);
width = 607;
}
);
leftKerningGroup = H;
rightKerningGroup = L;
unicode = 76;
}
{
glyphname = M;
leftMetricsKey = "=A*4.2";
rightMetricsKey = "=|";
layers = (
{
layerId = "85FAA1A3-2184-4466-B7C1-269FA7F78F7B";
shapes = (
{
closed = 1;
nodes = (
(182,0,l),
(276,460,l),
(278,460,l),
(310,80,l),
(505,80,l),
(646,460,l),
(648,460,l),
(611,0,l),
(806,0,l),
(824,730,l),
(590,730,l),
(437,280,l),
(435,280,l),
(410,730,l),
(176,730,l),
(-13,0,l)
);
}
);
width = 877;
},
{
layerId = "840EB1FB-AC3A-40D2-8862-608CEC91F102";
shapes = (
{
closed = 1;
nodes = (
(162,0,l),
(281,524,l),
(283,524,l),
(354,80,l),
(498,80,l),
(695,524,l),
(697,524,l),
(667,0,l),
(809,0,l),
(825,730,l),
(654,730,l),
(450,242,l),
(448,242,l),
(381,730,l),
(211,730,l),
(21,0,l)
);
}
);
width = 914;
},
{
layerId = "E063002F-8124-4781-80CF-71870B1E9574";
shapes = (
{
closed = 1;
nodes = (
(110,0,l),
(260,607,l),
(261,607,l),
(373,80,l),
(461,80,l),
(720,607,l),
(722,607,l),
(702,0,l),
(783,0,l),
(799,730,l),
(697,730,l),
(432,181,l),
(430,181,l),
(321,730,l),
(220,730,l),
(29,0,l)
);
}
);
width = 896;
},
{
layerId = "E3F1C297-59E6-4938-934E-5A7468ADCF5D";
leftMetricsKey = "=A*3.0";
shapes = (
{
closed = 1;
nodes = (
(35,0,l),
(220,704,l),
(221,704,l),
(371,80,l),
(402,80,l),
(728,704,l),
(729,704,l),
(716,0,l),
(736,0,l),
(749,730,l),
(720,730,l),
(390,97,l),
(388,97,l),
(237,730,l),
(207,730,l),
(15,0,l)
);
}
);
width = 835;
}
);
leftKerningGroup = H;
rightKerningGroup = H;
unicode = 77;
}
{
color = 10;
glyphname = N;
layers = (
{
anchors = (
{
name = bottom;
position = "{324, 0}";
},
{
name = top;
position = "{324, 730}";
}
);
layerId = "85FAA1A3-2184-4466-B7C1-269FA7F78F7B";
shapes = (
{
closed = 1;
nodes = (
(216,0,l),
(272,390,l),
(274,390,l),
(431,0,l),
(626,0,l),
(730,730,l),
(535,730,l),
(479,340,l),
(477,340,l),
(321,730,l),
(126,730,l),
(21,0,l)
);
}
);
width = 731;
},
{
anchors = (
{
name = bottom;
position = "{321, 0}";
},
{
name = top;
position = "{321, 730}";
}
);
layerId = "840EB1FB-AC3A-40D2-8862-608CEC91F102";
shapes = (
{
closed = 1;
nodes = (
(168,0,l),
(239,497,l),
(241,497,l),
(467,0,l),
(609,0,l),
(714,730,l),
(577,730,l),
(506,233,l),
(504,233,l),
(279,730,l),
(135,730,l),
(31,0,l)
);
}
);
width = 725;
},
{
anchors = (
{
name = bottom;
position = "{317, 0}";
},
{
name = top;
position = "{317, 730}";
}
);
layerId = "E063002F-8124-4781-80CF-71870B1E9574";
shapes = (
{
closed = 1;
nodes = (
(119,0,l),
(205,603,l),
(207,603,l),
(505,0,l),
(594,0,l),
(698,730,l),
(620,730,l),
(534,127,l),
(532,127,l),
(233,730,l),
(145,730,l),
(41,0,l)
);
}
);
width = 718;
},
{
anchors = (
{
name = bottom;
position = "{314, 0}";
},
{
name = top;
position = "{314, 730}";
}
);
layerId = "E3F1C297-59E6-4938-934E-5A7468ADCF5D";
shapes = (
{
closed = 1;
nodes = (
(70,0,l),
(171,709,l),
(173,709,l),
(547,0,l),
(577,0,l),
(681,730,l),
(662,730,l),
(561,21,l),
(559,21,l),
(185,730,l),
(155,730,l),
(51,0,l)
);
}
);
width = 712;
}
);
leftKerningGroup = H;
rightKerningGroup = H;
unicode = 78;
}
{
color = 10;
glyphname = O;
layers = (
{
anchors = (
{
name = bottom;
position = "{360, 0}";
},
{
name = center;
position = "{360, 365}";
},
{
name = ogonek;
position = "{441, 0}";
},
{
name = top;
position = "{395, 730}";
},
{
name = topleft;
position = "{-18, 730}";
},
{
name = topright;
position = "{552, 690}";
}
);
layerId = "85FAA1A3-2184-4466-B7C1-269FA7F78F7B";
shapes = (
{
closed = 1;
nodes = (
(629,-10,o),
(788,183,o),
(788,441,cs),
(788,631,o),
(672,740,o),
(465,740,cs),
(196,740,o),
(36,548,o),
(36,290,cs),
(36,100,o),
(151,-10,o),
(358,-10,cs)
);
},
{
closed = 1;
nodes = (
(285,160,o),
(237,211,o),
(237,310,cs),
(237,440,o),
(292,570,o),
(441,570,cs),
(537,570,o),
(586,520,o),
(586,421,cs),
(586,291,o),
(533,160,o),
(383,160,cs)
);
}
);
width = 804;
},
{
anchors = (
{
name = bottom;
position = "{361, 0}";
},
{
name = center;
position = "{361, 365}";
},
{
name = ogonek;
position = "{431, 0}";
},
{
name = top;
position = "{361, 730}";
},
{
name = topleft;
position = "{-14, 730}";
},
{
name = topright;
position = "{550, 690}";
}
);
layerId = "840EB1FB-AC3A-40D2-8862-608CEC91F102";
shapes = (
{
closed = 1;
nodes = (
(622,-10,o),
(785,186,o),
(785,438,cs),
(785,626,o),
(669,740,o),
(466,740,cs),
(204,740,o),
(41,543,o),
(41,292,cs),
(41,104,o),
(158,-10,o),
(359,-10,cs)
);
},
{
closed = 1;
nodes = (
(251,113,o),
(182,184,o),
(182,308,cs),
(182,472,o),
(270,617,o),
(449,617,cs),
(574,617,o),
(644,546,o),
(644,421,cs),
(644,259,o),
(555,113,o),
(377,113,cs)
);
}
);
width = 807;
},
{
anchors = (
{
name = bottom;
position = "{363, 0}";
},
{
name = center;
position = "{363, 365}";
},
{
name = ogonek;
position = "{422, 0}";
},
{
name = top;
position = "{363, 730}";
},
{
name = topleft;
position = "{-8, 730}";
},
{
name = topright;
position = "{549, 690}";
}
);
layerId = "E063002F-8124-4781-80CF-71870B1E9574";
shapes = (
{
closed = 1;
nodes = (
(619,-10,o),
(784,190,o),
(784,436,cs),
(784,622,o),
(666,740,o),
(469,740,cs),
(214,740,o),
(47,541,o),
(47,296,cs),
(47,108,o),
(165,-10,o),
(362,-10,cs)
);
},
{
closed = 1;
nodes = (
(218,63,o),
(128,156,o),
(128,306,cs),
(128,501,o),
(252,667,o),
(459,667,cs),
(612,667,o),
(704,574,o),
(704,425,cs),
(704,231,o),
(580,63,o),
(373,63,cs)
);
}
);
width = 811;
},
{
anchors = (
{
name = bottom;
position = "{365, 0}";
},
{
name = center;
position = "{365, 365}";
},
{
name = ogonek;
position = "{412, 0}";
},
{
name = top;
position = "{365, 730}";
},
{
name = topleft;
position = "{-3, 730}";
},
{
name = topright;
position = "{547, 690}";
}
);
layerId = "E3F1C297-59E6-4938-934E-5A7468ADCF5D";
shapes = (
{
closed = 1;
nodes = (
(614,-10,o),
(782,192,o),
(782,433,cs),
(782,618,o),
(663,740,o),
(470,740,cs),
(222,740,o),
(52,536,o),
(52,298,cs),
(52,112,o),
(172,-10,o),
(363,-10,cs)
);
},
{
closed = 1;
nodes = (
(184,10,o),
(71,125,o),
(71,301,cs),
(71,528,o),
(232,720,o),
(468,720,cs),
(651,720,o),
(764,605,o),
(764,429,cs),
(764,201,o),
(604,10,o),
(367,10,cs)
);
}
);
width = 814;
}
);
leftKerningGroup = O;
rightKerningGroup = O;
unicode = 79;
}
{
color = 10;
glyphname = P;
layers = (
{
layerId = "85FAA1A3-2184-4466-B7C1-269FA7F78F7B";
shapes = (
{
closed = 1;
nodes = (
(216,0,l),
(298,570,l),
(344,570,ls),
(433,570,o),
(474,543,o),
(474,485,cs),
(474,387,o),
(401,360,o),
(314,360,cs),
(170,360,l),
(147,200,l),
(316,200,ls),
(518,200,o),
(677,298,o),
(677,514,cs),
(677,657,o),
(572,730,o),
(362,730,cs),
(126,730,l),
(21,0,l)
);
}
);
width = 674;
},
{
layerId = "840EB1FB-AC3A-40D2-8862-608CEC91F102";
shapes = (
{
closed = 1;
nodes = (
(168,0,l),
(255,610,l),
(337,610,ls),
(464,610,o),
(521,577,o),
(521,504,cs),
(521,373,o),
(408,349,o),
(299,349,cs),
(149,349,l),
(132,229,l),
(299,229,ls),
(499,229,o),
(662,309,o),
(662,528,cs),
(662,664,o),
(560,730,o),
(351,730,cs),
(135,730,l),
(31,0,l)
);
}
);
width = 653;
},
{
layerId = "E063002F-8124-4781-80CF-71870B1E9574";
shapes = (
{
closed = 1;
nodes = (
(119,0,l),
(213,657,l),
(330,657,ls),
(494,657,o),
(567,617,o),
(567,525,cs),
(567,358,o),
(419,333,o),
(283,333,cs),
(127,333,l),
(117,259,l),
(282,259,ls),
(474,259,o),
(648,319,o),
(648,539,cs),
(648,669,o),
(549,730,o),
(339,730,cs),
(145,730,l),
(41,0,l)
);
}
);
width = 641;
},
{
layerId = "E3F1C297-59E6-4938-934E-5A7468ADCF5D";
shapes = (
{
closed = 1;
nodes = (
(70,0,l),
(172,710,l),
(325,710,ls),
(526,710,o),
(614,661,o),
(614,548,cs),
(614,343,o),
(436,310,o),
(267,310,cs),
(105,310,l),
(102,290,l),
(265,290,ls),
(451,290,o),
(633,332,o),
(633,552,cs),
(633,675,o),
(539,730,o),
(327,730,cs),
(155,730,l),
(51,0,l)
);
}
);
width = 627;
}
);
leftKerningGroup = H;
rightKerningGroup = P;
unicode = 80;
}
{
color = 10;
glyphname = Q;
layers = (
{
layerId = "85FAA1A3-2184-4466-B7C1-269FA7F78F7B";
shapes = (
{
closed = 1;
nodes = (
(734,-40,l),
(705,8,o),
(668,44,o),
(622,69,c),
(622,71,l),
(736,155,o),
(788,303,o),
(788,441,cs),
(788,631,o),
(672,740,o),
(465,740,cs),
(196,740,o),
(36,548,o),
(36,290,cs),
(36,100,o),
(151,-10,o),
(358,-10,cs),
(466,-10,o),
(512,-41,o),
(563,-150,c)
);
},
{
closed = 1;
nodes = (
(285,160,o),
(237,211,o),
(237,310,cs),
(237,440,o),
(292,570,o),
(441,570,cs),
(537,570,o),
(586,520,o),
(586,421,cs),
(586,291,o),
(533,160,o),
(383,160,cs)
);
}
);
width = 801;
},
{
layerId = "840EB1FB-AC3A-40D2-8862-608CEC91F102";
shapes = (
{
closed = 1;
nodes = (
(724,-61,l),
(691,-13,o),
(644,23,o),
(585,48,c),
(585,50,l),
(721,129,o),
(786,285,o),
(786,438,cs),
(786,626,o),
(669,740,o),
(467,740,cs),
(206,740,o),
(41,544,o),
(41,293,cs),
(41,104,o),
(159,-10,o),
(360,-10,cs),
(477,-10,o),
(555,-50,o),
(605,-139,c)
);
},
{
closed = 1;
nodes = (
(252,113,o),
(183,184,o),
(183,308,cs),
(183,472,o),
(271,617,o),
(450,617,cs),
(575,617,o),
(645,546,o),
(645,421,cs),
(645,259,o),
(556,113,o),
(378,113,cs)
);
}
);
width = 812;
},
{
layerId = "E063002F-8124-4781-80CF-71870B1E9574";
shapes = (
{
closed = 1;
nodes = (
(717,-81,l),
(675,-31,o),
(614,5,o),
(534,25,c),
(534,27,l),
(699,94,o),
(785,264,o),
(785,436,cs),
(785,622,o),
(667,740,o),
(469,740,cs),
(215,740,o),
(47,540,o),
(47,296,cs),
(47,108,o),
(166,-10,o),
(362,-10,cs),
(495,-10,o),
(595,-51,o),
(648,-127,c)
);
},
{
closed = 1;
nodes = (
(218,63,o),
(128,156,o),
(128,306,cs),
(128,502,o),
(253,667,o),
(460,667,cs),
(613,667,o),
(705,574,o),
(705,425,cs),
(705,231,o),
(580,63,o),
(374,63,cs)
);
}
);
width = 812;
},
{
layerId = "E3F1C297-59E6-4938-934E-5A7468ADCF5D";
shapes = (
{
closed = 1;
nodes = (
(707,-102,l),
(656,-46,o),
(576,-11,o),
(468,2,c),
(469,4,l),
(666,53,o),
(782,237,o),
(782,433,cs),
(782,618,o),
(663,740,o),
(470,740,cs),
(222,740,o),
(52,536,o),
(52,298,cs),
(52,112,o),
(172,-10,o),
(363,-10,cs),
(517,-10,o),
(628,-46,o),
(689,-116,c)
);
},
{
closed = 1;
nodes = (
(184,10,o),
(71,125,o),
(71,301,cs),
(71,528,o),
(232,720,o),
(468,720,cs),
(651,720,o),
(764,605,o),
(764,429,cs),
(764,201,o),
(604,10,o),
(367,10,cs)
);
}
);
width = 814;
}
);
leftKerningGroup = O;
rightKerningGroup = O;
unicode = 81;
}
{
glyphname = R;
layers = (
{
layerId = "85FAA1A3-2184-4466-B7C1-269FA7F78F7B";
shapes = (
{
closed = 1;
nodes = (
(240,270,l),
(392,0,l),
(602,0,l),
(441,285,l),
(432,268,l),
(569,298,o),
(649,407,o),
(647,541,cs),
(645,669,o),
(546,730,o),
(344,730,cs),
(119,730,l),
(14,0,l),
(210,0,l),
(250,270,l)
);
},
{
closed = 1;
nodes = (
(268,400,l),
(291,570,l),
(331,570,ls),
(406,570,o),
(441,547,o),
(442,502,cs),
(443,421,o),
(376,400,o),
(307,400,cs)
);
}
);
width = 670;
},
{
anchors = (
{
name = b.dotbelowcomb_2;
position = "{272, 0}";
},
{
name = t.uni0302_2;
position = "{272, 730}";
}
);
layerId = "840EB1FB-AC3A-40D2-8862-608CEC91F102";
shapes = (
{
closed = 1;
nodes = (
(191,300,l),
(404,0,l),
(565,0,l),
(350,301,l),
(341,287,l),
(502,299,o),
(592,374,o),
(612,510,cs),
(634,661,o),
(546,730,o),
(334,730,cs),
(128,730,l),
(23,0,l),
(160,0,l),
(203,300,l)
);
},
{
closed = 1;
nodes = (
(218,399,l),
(248,610,l),
(324,610,ls),
(437,610,o),
(482,577,o),
(471,504,cs),
(461,431,o),
(406,399,o),
(293,399,cs)
);
}
);
width = 637;
},
{
anchors = (
{
name = b.dotbelowcomb_2;
position = "{253, 0}";
},
{
name = t.uni0302_2;
position = "{253, 730}";
}
);
layerId = "E063002F-8124-4781-80CF-71870B1E9574";
shapes = (
{
closed = 1;
nodes = (
(230,318,l),
(442,0,l),
(535,0,l),
(321,321,l),
(326,321,ls),
(479,321,o),
(590,402,o),
(590,565,cs),
(590,706,o),
(463,730,o),
(330,730,cs),
(145,730,l),
(41,0,l),
(119,0,l),
(164,318,l)
);
},
{
closed = 1;
nodes = (
(174,389,l),
(213,657,l),
(323,657,ls),
(411,657,o),
(509,646,o),
(509,548,cs),
(509,412,o),
(398,389,o),
(285,389,cs)
);
}
);
width = 610;
},
{
anchors = (
{
name = b.dotbelowcomb_2;
position = "{241, 0}";
},
{
name = t.uni0302_2;
position = "{241, 730}";
}
);
layerId = "E3F1C297-59E6-4938-934E-5A7468ADCF5D";
shapes = (
{
closed = 1;
nodes = (
(209,350,l),
(472,0,l),
(499,0,l),
(236,350,l),
(266,350,ls),
(426,350,o),
(560,395,o),
(560,579,cs),
(560,708,o),
(443,730,o),
(320,730,cs),
(155,730,l),
(51,0,l),
(70,0,l),
(120,350,l)
);
},
{
closed = 1;
nodes = (
(123,370,l),
(171,710,l),
(317,710,ls),
(429,710,o),
(540,695,o),
(540,575,cs),
(540,405,o),
(415,370,o),
(269,370,cs)
);
}
);
width = 578;
}
);
leftKerningGroup = H;
rightKerningGroup = R;
unicode = 82;
}
{
color = 10;
glyphname = S;
layers = (
{
anchors = (
{
name = bottom;
position = "{286, 0}";
},
{
name = cedi;
position = "{203, 0}";
},
{
name = top;
position = "{332, 730}";
}
);
layerId = "85FAA1A3-2184-4466-B7C1-269FA7F78F7B";
shapes = (
{
closed = 1;
nodes = (
(437,-10,o),
(614,54,o),
(614,244,cs),
(614,334,o),
(553,389,o),
(411,434,cs),
(306,467,o),
(275,485,o),
(275,517,cs),
(275,570,o),
(335,575,o),
(376,575,cs),
(447,575,o),
(525,555,o),
(586,522,c),
(652,692,l),
(589,722,o),
(495,740,o),
(402,740,cs),
(240,740,o),
(68,678,o),
(68,490,cs),
(68,396,o),
(129,337,o),
(267,297,cs),
(378,264,o),
(407,249,o),
(407,218,cs),
(407,168,o),
(352,155,o),
(311,155,cs),
(240,155,o),
(135,186,o),
(75,224,c),
(10,54,l),
(67,14,o),
(164,-10,o),
(274,-10,cs)
);
}
);
width = 662;
},
{
anchors = (
{
name = bottom;
position = "{286, 0}";
},
{
name = cedi;
position = "{212, 0}";
},
{
name = top;
position = "{286, 730}";
}
);
layerId = "840EB1FB-AC3A-40D2-8862-608CEC91F102";
shapes = (
{
closed = 1;
nodes = (
(432,-10,o),
(600,53,o),
(600,234,cs),
(600,324,o),
(537,377,o),
(389,421,cs),
(267,458,o),
(228,483,o),
(228,525,cs),
(228,605,o),
(316,618,o),
(378,618,cs),
(455,618,o),
(535,599,o),
(594,567,c),
(642,691,l),
(584,721,o),
(489,740,o),
(398,740,cs),
(248,740,o),
(84,680,o),
(84,506,cs),
(84,415,o),
(146,359,o),
(289,318,cs),
(415,282,o),
(455,258,o),
(455,214,cs),
(455,133,o),
(368,112,o),
(303,112,cs),
(225,112,o),
(130,138,o),
(69,177,c),
(21,52,l),
(81,13,o),
(175,-10,o),
(276,-10,cs)
);
}
);
width = 662;
},
{
anchors = (
{
name = bottom;
position = "{280, 0}";
},
{
name = cedi;
position = "{214, 0}";
},
{
name = top;
position = "{280, 730}";
}
);
layerId = "E063002F-8124-4781-80CF-71870B1E9574";
shapes = (
{
closed = 1;
nodes = (
(418,-10,o),
(578,53,o),
(578,222,cs),
(578,321,o),
(498,367,o),
(359,406,cs),
(237,441,o),
(175,469,o),
(175,532,cs),
(175,639,o),
(288,667,o),
(375,667,cs),
(456,667,o),
(542,647,o),
(595,617,c),
(626,691,l),
(572,720,o),
(475,740,o),
(387,740,cs),
(248,740,o),
(93,683,o),
(93,521,cs),
(93,426,o),
(171,380,o),
(305,342,cs),
(431,308,o),
(497,279,o),
(497,210,cs),
(497,98,o),
(381,63,o),
(288,63,cs),
(205,63,o),
(117,86,o),
(56,124,c),
(26,50,l),
(88,12,o),
(178,-10,o),
(272,-10,cs)
);
}
);
width = 649;
},
{
anchors = (
{
name = bottom;
position = "{273, 0}";
},
{
name = cedi;
position = "{216, 0}";
},
{
name = top;
position = "{294, 730}";
}
);
background = {
shapes = (
{
closed = 0;
nodes = (
(71,57,l),
(142,20,o),
(232,0,o),
(320,0,cs),
(480,0,o),
(576,68,o),
(576,183,cs),
(576,445,o),
(77,313,o),
(77,561,cs),
(77,667,o),
(168,730,o),
(320,730,cs),
(407,730,o),
(508,709,o),
(562,681,c)
);
}
);
};
layerId = "E3F1C297-59E6-4938-934E-5A7468ADCF5D";
shapes = (
{
closed = 1;
nodes = (
(409,-10,o),
(557,53,o),
(557,212,cs),
(557,329,o),
(439,359,o),
(329,388,cs),
(222,417,o),
(121,443,o),
(121,539,cs),
(121,675,o),
(259,720,o),
(373,720,cs),
(455,720,o),
(549,700,o),
(597,672,c),
(609,690,l),
(558,719,o),
(461,740,o),
(376,740,cs),
(249,740,o),
(101,685,o),
(101,536,cs),
(101,427,o),
(214,397,o),
(322,369,cs),
(432,340,o),
(538,312,o),
(538,208,cs),
(538,62,o),
(396,10,o),
(271,10,cs),
(186,10,o),
(103,30,o),
(42,66,c),
(29,48,l),
(94,11,o),
(180,-10,o),
(269,-10,cs)
);
}
);
width = 636;
}
);
leftKerningGroup = S;
rightKerningGroup = S;
unicode = 83;
}
{
color = 10;
glyphname = T;
layers = (
{
anchors = (
{
name = bottom;
position = "{286, 0}";
},
{
name = cedi;
position = "{185, 0}";
},
{
name = center;
position = "{286, 365}";
},
{
name = top;
position = "{286, 730}";
}
);
layerId = "85FAA1A3-2184-4466-B7C1-269FA7F78F7B";
shapes = (
{
closed = 1;
nodes = (
(386,0,l),
(466,560,l),
(668,560,l),
(692,730,l),
(88,730,l),
(63,560,l),
(265,560,l),
(185,0,l)
);
}
);
width = 655;
},
{
anchors = (
{
name = bottom;
position = "{279, 0}";
},
{
name = cedi;
position = "{209, 0}";
},
{
name = center;
position = "{279, 365}";
},
{
name = top;
position = "{279, 730}";
}
);
layerId = "840EB1FB-AC3A-40D2-8862-608CEC91F102";
shapes = (
{
closed = 1;
nodes = (
(349,0,l),
(436,607,l),
(665,607,l),
(682,730,l),
(84,730,l),
(66,607,l),
(295,607,l),
(208,0,l)
);
}
);
width = 641;
},
{
anchors = (
{
name = bottom;
position = "{278, 0}";
},
{
name = cedi;
position = "{238, 0}";
},
{
name = center;
position = "{278, 365}";
},
{
name = top;
position = "{278, 730}";
}
);
layerId = "E063002F-8124-4781-80CF-71870B1E9574";
shapes = (
{
closed = 1;
nodes = (
(319,0,l),
(413,657,l),
(668,657,l),
(678,730,l),
(87,730,l),
(76,657,l),
(332,657,l),
(238,0,l)
);
}
);
width = 641;
},
{
anchors = (
{
name = bottom;
position = "{278, 0}";
},
{
name = cedi;
position = "{268, 0}";
},
{
name = center;
position = "{278, 365}";
},
{
name = top;
position = "{278, 730}";
}
);
layerId = "E3F1C297-59E6-4938-934E-5A7468ADCF5D";
shapes = (
{
closed = 1;
nodes = (
(288,0,l),
(389,710,l),
(672,710,l),
(675,730,l),
(90,730,l),
(87,710,l),
(369,710,l),
(268,0,l)
);
}
);
width = 640;
}
);
leftKerningGroup = T;
rightKerningGroup = T;
unicode = 84;
}
{
color = 10;
glyphname = U;
layers = (
{
anchors = (
{
name = bottom;
position = "{318, 0}";
},
{
name = ogonek;
position = "{447, 10}";
},
{
name = top;
position = "{348, 730}";
},
{
name = top_ring;
position = "{318, 720}";
},
{
name = topright;
position = "{581, 690}";
}
);
layerId = "85FAA1A3-2184-4466-B7C1-269FA7F78F7B";
shapes = (
{
closed = 1;
nodes = (
(513,-10,o),
(633,88,o),
(659,270,cs),
(724,730,l),
(529,730,l),
(467,295,ls),
(453,194,o),
(421,160,o),
(341,160,cs),
(261,160,o),
(239,194,o),
(253,295,cs),
(315,730,l),
(120,730,l),
(55,270,ls),
(29,88,o),
(120,-10,o),
(317,-10,cs)
);
}
);
width = 720;
},
{
anchors = (
{
name = bottom;
position = "{312, 0}";
},
{
name = ogonek;
position = "{437, 10}";
},
{
name = top;
position = "{312, 730}";
},
{
name = top_ring;
position = "{312, 713}";
},
{
name = topright;
position = "{572, 690}";
}
);
layerId = "840EB1FB-AC3A-40D2-8862-608CEC91F102";
shapes = (
{
closed = 1;
nodes = (
(500,-10,o),
(614,87,o),
(640,270,cs),
(706,730,l),
(569,730,l),
(506,287,ls),
(488,164,o),
(436,113,o),
(328,113,cs),
(221,113,o),
(183,164,o),
(201,287,cs),
(264,730,l),
(128,730,l),
(62,270,ls),
(36,87,o),
(121,-10,o),
(310,-10,cs)
);
}
);
width = 709;
},
{
anchors = (
{
name = bottom;
position = "{308, 0}";
},
{
name = ogonek;
position = "{425, 10}";
},
{
name = top;
position = "{308, 730}";
},
{
name = top_ring;
position = "{308, 707}";
},
{
name = topright;
position = "{564, 690}";
}
);
layerId = "E063002F-8124-4781-80CF-71870B1E9574";
shapes = (
{
closed = 1;
nodes = (
(488,-10,o),
(596,86,o),
(622,270,cs),
(688,730,l),
(610,730,l),
(546,279,ls),
(525,131,o),
(453,63,o),
(317,63,cs),
(181,63,o),
(129,131,o),
(150,279,cs),
(214,730,l),
(136,730,l),
(71,270,ls),
(44,86,o),
(125,-10,o),
(307,-10,cs)
);
}
);
width = 700;
},
{
anchors = (
{
name = bottom;
position = "{305, 0}";
},
{
name = ogonek;
position = "{411, 10}";
},
{
name = top;
position = "{345, 730}";
},
{
name = top_ring;
position = "{305, 700}";
},
{
name = topright;
position = "{559, 690}";
}
);
layerId = "E3F1C297-59E6-4938-934E-5A7468ADCF5D";
shapes = (
{
closed = 1;
nodes = (
(479,-10,o),
(580,85,o),
(607,270,cs),
(672,730,l),
(653,730,l),
(588,270,ls),
(563,96,o),
(469,10,o),
(306,10,cs),
(143,10,o),
(75,96,o),
(100,270,cs),
(165,730,l),
(146,730,l),
(81,270,ls),
(54,85,o),
(130,-10,o),
(304,-10,cs)
);
}
);
width = 694;
}
);
leftKerningGroup = U;
rightKerningGroup = U;
unicode = 85;
}
{
color = 10;
glyphname = V;
layers = (
{
layerId = "85FAA1A3-2184-4466-B7C1-269FA7F78F7B";
shapes = (
{
closed = 1;
nodes = (
(433,0,l),
(751,730,l),
(537,730,l),
(336,200,l),
(334,200,l),
(283,730,l),
(69,730,l),
(179,0,l)
);
}
);
width = 696;
},
{
layerId = "840EB1FB-AC3A-40D2-8862-608CEC91F102";
shapes = (
{
closed = 1;
nodes = (
(393,0,l),
(740,730,l),
(589,730,l),
(325,140,l),
(323,140,l),
(227,730,l),
(77,730,l),
(215,0,l)
);
}
);
width = 692;
},
{
layerId = "E063002F-8124-4781-80CF-71870B1E9574";
shapes = (
{
closed = 1;
nodes = (
(348,0,l),
(722,730,l),
(636,730,l),
(308,79,l),
(306,79,l),
(164,730,l),
(79,730,l),
(245,0,l)
);
}
);
width = 676;
},
{
layerId = "E3F1C297-59E6-4938-934E-5A7468ADCF5D";
shapes = (
{
closed = 1;
nodes = (
(303,0,l),
(705,730,l),
(683,730,l),
(293,18,l),
(291,18,l),
(102,730,l),
(81,730,l),
(274,0,l)
);
}
);
width = 661;
}
);
leftKerningGroup = V;
rightKerningGroup = V;
unicode = 86;
}
{
glyphname = W;
layers = (
{
anchors = (
{
name = b.dotbelowcomb_2;
position = "{427, 0}";
},
{
name = t.uni0302_2;
position = "{427, 730}";
}
);
layerId = "85FAA1A3-2184-4466-B7C1-269FA7F78F7B";
shapes = (
{
closed = 1;
nodes = (
(125,0,l),
(349,0,l),
(497,530,l),
(499,530,l),
(495,0,l),
(719,0,l),
(975,730,l),
(782,730,l),
(634,200,l),
(632,200,l),
(645,730,l),
(411,730,l),
(273,200,l),
(271,200,l),
(275,730,l),
(78,730,l)
);
}
);
width = 938;
},
{
anchors = (
{
name = b.dotbelowcomb_2;
position = "{416, 0}";
},
{
name = t.uni0302_2;
position = "{416, 730}";
}
);
layerId = "840EB1FB-AC3A-40D2-8862-608CEC91F102";
shapes = (
{
closed = 1;
nodes = (
(145,0,l),
(307,0,l),
(499,583,l),
(501,583,l),
(525,0,l),
(687,0,l),
(956,730,l),
(822,730,l),
(630,147,l),
(628,147,l),
(607,730,l),
(438,730,l),
(250,147,l),
(248,147,l),
(223,730,l),
(85,730,l)
);
}
);
width = 917;
},
{
anchors = (
{
name = b.dotbelowcomb_2;
position = "{405, 0}";
},
{
name = t.uni0302_2;
position = "{405, 730}";
}
);
layerId = "E063002F-8124-4781-80CF-71870B1E9574";
shapes = (
{
closed = 1;
nodes = (
(161,0,l),
(258,0,l),
(498,644,l),
(499,644,l),
(554,0,l),
(652,0,l),
(931,730,l),
(854,730,l),
(619,86,l),
(617,86,l),
(562,730,l),
(461,730,l),
(223,86,l),
(221,86,l),
(170,730,l),
(90,730,l)
);
}
);
width = 894;
},
{
anchors = (
{
name = b.dotbelowcomb_2;
position = "{392, 0}";
},
{
name = t.uni0302_2;
position = "{392, 730}";
}
);
layerId = "E3F1C297-59E6-4938-934E-5A7468ADCF5D";
shapes = (
{
closed = 1;
nodes = (
(172,0,l),
(203,0,l),
(493,713,l),
(495,713,l),
(581,0,l),
(612,0,l),
(901,730,l),
(880,730,l),
(600,17,l),
(598,17,l),
(512,730,l),
(481,730,l),
(191,17,l),
(189,17,l),
(112,730,l),
(92,730,l)
);
}
);
width = 868;
}
);
leftKerningGroup = W;
rightKerningGroup = W;
unicode = 87;
}
{
color = 10;
glyphname = X;
layers = (
{
layerId = "85FAA1A3-2184-4466-B7C1-269FA7F78F7B";
shapes = (
{
closed = 1;
nodes = (
(205,0,l),
(342,255,l),
(344,255,l),
(409,0,l),
(629,0,l),
(505,365,l),
(733,730,l),
(513,730,l),
(376,475,l),
(374,475,l),
(309,730,l),
(89,730,l),
(213,365,l),
(-15,0,l)
);
}
);
width = 698;
},
{
layerId = "840EB1FB-AC3A-40D2-8862-608CEC91F102";
shapes = (
{
closed = 1;
nodes = (
(161,0,l),
(355,288,l),
(357,288,l),
(470,0,l),
(624,0,l),
(468,366,l),
(726,730,l),
(572,730,l),
(380,446,l),
(378,446,l),
(267,730,l),
(113,730,l),
(265,366,l),
(7,0,l)
);
}
);
width = 714;
},
{
layerId = "E063002F-8124-4781-80CF-71870B1E9574";
shapes = (
{
closed = 1;
nodes = (
(102,0,l),
(353,320,l),
(355,320,l),
(515,0,l),
(604,0,l),
(418,368,l),
(705,730,l),
(615,730,l),
(368,416,l),
(366,416,l),
(210,730,l),
(121,730,l),
(304,368,l),
(13,0,l)
);
}
);
width = 701;
},
{
layerId = "E3F1C297-59E6-4938-934E-5A7468ADCF5D";
shapes = (
{
closed = 1;
nodes = (
(44,0,l),
(351,351,l),
(353,351,l),
(561,0,l),
(585,0,l),
(367,369,l),
(683,730,l),
(659,730,l),
(358,387,l),
(356,387,l),
(154,730,l),
(129,730,l),
(344,369,l),
(19,0,l)
);
}
);
width = 688;
}
);
leftKerningGroup = X;
rightKerningGroup = X;
unicode = 88;
}
{
color = 10;
glyphname = Y;
layers = (
{
anchors = (
{
name = bottom;
position = "{303, 0}";
},
{
name = top;
position = "{303, 730}";
},
{
name = topleft;
position = "{-22, 730}";
}
);
layerId = "85FAA1A3-2184-4466-B7C1-269FA7F78F7B";
shapes = (
{
closed = 1;
nodes = (
(406,0,l),
(442,250,l),
(748,730,l),
(534,730,l),
(364,420,l),
(362,420,l),
(280,730,l),
(66,730,l),
(237,250,l),
(201,0,l)
);
}
);
width = 689;
},
{
anchors = (
{
name = bottom;
position = "{298, 0}";
},
{
name = top;
position = "{298, 730}";
},
{
name = topleft;
position = "{-14, 730}";
}
);
layerId = "840EB1FB-AC3A-40D2-8862-608CEC91F102";
shapes = (
{
closed = 1;
nodes = (
(369,0,l),
(407,266,l),
(734,730,l),
(581,730,l),
(355,389,l),
(353,389,l),
(224,730,l),
(71,730,l),
(265,266,l),
(227,0,l)
);
}
);
width = 680;
},
{
anchors = (
{
name = bottom;
position = "{290, 0}";
},
{
name = top;
position = "{290, 730}";
},
{
name = topleft;
position = "{-9, 730}";
}
);
layerId = "E063002F-8124-4781-80CF-71870B1E9574";
shapes = (
{
closed = 1;
nodes = (
(330,0,l),
(371,282,l),
(716,730,l),
(626,730,l),
(341,355,l),
(339,355,l),
(163,730,l),
(72,730,l),
(290,282,l),
(250,0,l)
);
}
);
width = 663;
},
{
anchors = (
{
name = bottom;
position = "{282, 0}";
},
{
name = top;
position = "{282, 730}";
},
{
name = topleft;
position = "{-3, 730}";
}
);
layerId = "E3F1C297-59E6-4938-934E-5A7468ADCF5D";
shapes = (
{
closed = 1;
nodes = (
(291,0,l),
(333,297,l),
(698,730,l),
(673,730,l),
(328,318,l),
(326,318,l),
(98,730,l),
(74,730,l),
(314,297,l),
(272,0,l)
);
}
);
width = 647;
}
);
leftKerningGroup = Y;
rightKerningGroup = Y;
unicode = 89;
}
{
color = 10;
glyphname = Z;
layers = (
{
anchors = (
{
name = bottom;
position = "{272, 0}";
},
{
name = center;
position = "{272, 365}";
},
{
name = top;
position = "{272, 730}";
}
);
layerId = "85FAA1A3-2184-4466-B7C1-269FA7F78F7B";
shapes = (
{
closed = 1;
nodes = (
(535,0,l),
(559,165,l),
(262,165,l),
(262,167,l),
(616,565,l),
(639,730,l),
(113,730,l),
(90,565,l),
(387,565,l),
(386,563,l),
(33,165,l),
(9,0,l)
);
}
);
width = 628;
},
{
anchors = (
{
name = bottom;
position = "{273, 0}";
},
{
name = center;
position = "{273, 365}";
},
{
name = top;
position = "{273, 730}";
}
);
layerId = "840EB1FB-AC3A-40D2-8862-608CEC91F102";
shapes = (
{
closed = 1;
nodes = (
(529,0,l),
(547,122,l),
(198,122,l),
(198,124,l),
(616,608,l),
(634,730,l),
(121,730,l),
(103,608,l),
(452,608,l),
(452,606,l),
(34,122,l),
(17,0,l)
);
}
);
width = 630;
},
{
anchors = (
{
name = bottom;
position = "{275, 0}";
},
{
name = center;
position = "{275, 365}";
},
{
name = top;
position = "{275, 730}";
}
);
layerId = "E063002F-8124-4781-80CF-71870B1E9574";
shapes = (
{
closed = 1;
nodes = (
(525,0,l),
(535,73,l),
(130,73,l),
(131,75,l),
(618,657,l),
(629,730,l),
(129,730,l),
(118,657,l),
(523,657,l),
(523,655,l),
(35,73,l),
(24,0,l)
);
}
);
width = 633;
},
{
anchors = (
{
name = bottom;
position = "{276, 0}";
},
{
name = center;
position = "{276, 365}";
},
{
name = top;
position = "{276, 730}";
}
);
layerId = "E3F1C297-59E6-4938-934E-5A7468ADCF5D";
shapes = (
{
closed = 1;
nodes = (
(520,0,l),
(523,20,l),
(59,20,l),
(59,22,l),
(621,710,l),
(624,730,l),
(136,730,l),
(133,710,l),
(596,710,l),
(596,708,l),
(35,20,l),
(32,0,l)
);
}
);
width = 636;
}
);
leftKerningGroup = Z;
rightKerningGroup = Z;
unicode = 90;
}
{
color = 10;
glyphname = bracketleft;
layers = (
{
layerId = "85FAA1A3-2184-4466-B7C1-269FA7F78F7B";
shapes = (
{
closed = 1;
nodes = (
(391,-110,l),
(410,20,l),
(224,20,l),
(312,640,l),
(498,640,l),
(517,770,l),
(166,770,l),
(40,-110,l)
);
}
);
width = 497;
},
{
layerId = "840EB1FB-AC3A-40D2-8862-608CEC91F102";
shapes = (
{
closed = 1;
nodes = (
(347,-110,l),
(363,-3,l),
(178,-3,l),
(273,663,l),
(458,663,l),
(473,770,l),
(164,770,l),
(38,-110,l)
);
}
);
width = 453;
},
{
layerId = "E063002F-8124-4781-80CF-71870B1E9574";
shapes = (
{
closed = 1;
nodes = (
(317,-110,l),
(327,-40,l),
(136,-40,l),
(242,700,l),
(433,700,l),
(443,770,l),
(177,770,l),
(51,-110,l)
);
}
);
width = 429;
},
{
layerId = "E3F1C297-59E6-4938-934E-5A7468ADCF5D";
shapes = (
{
closed = 1;
nodes = (
(289,-110,l),
(292,-90,l),
(87,-90,l),
(207,750,l),
(412,750,l),
(415,770,l),
(191,770,l),
(65,-110,l)
);
}
);
width = 408;
}
);
leftKerningGroup = I;
rightKerningGroup = bracketin;
unicode = 91;
}
{
color = 10;
glyphname = backslash;
layers = (
{
layerId = "85FAA1A3-2184-4466-B7C1-269FA7F78F7B";
shapes = (
{
closed = 1;
nodes = (
(483,-40,l),
(249,770,l),
(74,770,l),
(308,-40,l)
);
}
);
width = 537;
},
{
layerId = "840EB1FB-AC3A-40D2-8862-608CEC91F102";
shapes = (
{
closed = 1;
nodes = (
(443,-40,l),
(212,770,l),
(82,770,l),
(313,-40,l)
);
}
);
width = 505;
},
{
layerId = "E063002F-8124-4781-80CF-71870B1E9574";
shapes = (
{
closed = 1;
nodes = (
(392,-40,l),
(163,770,l),
(84,770,l),
(312,-40,l)
);
}
);
width = 456;
},
{
layerId = "E3F1C297-59E6-4938-934E-5A7468ADCF5D";
shapes = (
{
closed = 1;
nodes = (
(333,-40,l),
(107,770,l),
(86,770,l),
(312,-40,l)
);
}
);
width = 399;
}
);
leftKerningGroup = V;
rightKerningGroup = A;
unicode = 92;
}
{
color = 10;
glyphname = bracketright;
layers = (
{
layerId = "85FAA1A3-2184-4466-B7C1-269FA7F78F7B";
shapes = (
{
closed = 1;
nodes = (
(341,-110,l),
(467,770,l),
(116,770,l),
(97,640,l),
(282,640,l),
(194,20,l),
(9,20,l),
(-10,-110,l)
);
}
);
width = 496;
},
{
layerId = "840EB1FB-AC3A-40D2-8862-608CEC91F102";
shapes = (
{
closed = 1;
nodes = (
(299,-110,l),
(425,770,l),
(116,770,l),
(101,663,l),
(286,663,l),
(191,-3,l),
(6,-3,l),
(-10,-110,l)
);
}
);
width = 453;
},
{
layerId = "E063002F-8124-4781-80CF-71870B1E9574";
shapes = (
{
closed = 1;
nodes = (
(262,-110,l),
(388,770,l),
(122,770,l),
(112,700,l),
(303,700,l),
(197,-40,l),
(6,-40,l),
(-4,-110,l)
);
}
);
width = 429;
},
{
layerId = "E3F1C297-59E6-4938-934E-5A7468ADCF5D";
shapes = (
{
closed = 1;
nodes = (
(228,-110,l),
(354,770,l),
(129,770,l),
(126,750,l),
(331,750,l),
(211,-90,l),
(6,-90,l),
(3,-110,l)
);
}
);
width = 408;
}
);
leftKerningGroup = bracketin;
rightKerningGroup = I;
unicode = 93;
}
{
color = 10;
glyphname = asciicircum;
leftMetricsKey = A;
rightMetricsKey = "=|";
layers = (
{
layerId = "85FAA1A3-2184-4466-B7C1-269FA7F78F7B";
shapes = (
{
closed = 1;
nodes = (
(225,280,l),
(344,590,l),
(346,590,l),
(465,280,l),
(685,280,l),
(475,730,l),
(215,730,l),
(5,280,l)
);
}
);
width = 695;
},
{
layerId = "840EB1FB-AC3A-40D2-8862-608CEC91F102";
shapes = (
{
closed = 1;
nodes = (
(168,280,l),
(325,632,l),
(327,632,l),
(486,280,l),
(640,280,l),
(418,730,l),
(235,730,l),
(13,280,l)
);
}
);
width = 658;
},
{
layerId = "E063002F-8124-4781-80CF-71870B1E9574";
shapes = (
{
closed = 1;
nodes = (
(104,280,l),
(301,674,l),
(303,674,l),
(500,280,l),
(589,280,l),
(356,730,l),
(249,730,l),
(15,280,l)
);
}
);
width = 609;
},
{
layerId = "E3F1C297-59E6-4938-934E-5A7468ADCF5D";
shapes = (
{
closed = 1;
nodes = (
(40,280,l),
(276,716,l),
(278,716,l),
(514,280,l),
(537,280,l),
(292,730,l),
(262,730,l),
(17,280,l)
);
}
);
width = 559;
}
);
leftKerningGroup = asciicircum;
rightKerningGroup = asciicircum;
unicode = 94;
}
{
color = 11;
glyphname = a;
layers = (
{
layerId = "85FAA1A3-2184-4466-B7C1-269FA7F78F7B";
shapes = (
{
closed = 1;
nodes = (
(231,140,o),
(208,167,o),
(208,221,cs),
(208,290,o),
(230,380,o),
(314,380,cs),
(361,380,o),
(383,353,o),
(383,307,cs),
(383,299,o),
(382,290,o),
(381,280,cs),
(375,240,ls),
(366,177,o),
(336,140,o),
(279,140,cs)
);
},
{
closed = 1;
nodes = (
(251,-10,o),
(301,12,o),
(356,60,c),
(358,60,l),
(358,36,o),
(358,23,o),
(358,0,c),
(548,0,l),
(545,45,o),
(546,92,o),
(553,140,cs),
(607,520,l),
(415,520,l),
(407,460,l),
(405,460,l),
(369,508,o),
(328,530,o),
(266,530,cs),
(85,530,o),
(18,343,o),
(18,189,cs),
(18,61,o),
(77,-10,o),
(189,-10,cs)
);
}
);
width = 631;
},
{
layerId = "840EB1FB-AC3A-40D2-8862-608CEC91F102";
shapes = (
{
closed = 1;
nodes = (
(191,100,o),
(157,140,o),
(157,215,cs),
(157,307,o),
(194,420,o),
(303,420,cs),
(369,420,o),
(404,377,o),
(404,311,cs),
(404,301,o),
(404,291,o),
(402,280,cs),
(396,240,ls),
(384,156,o),
(333,100,o),
(257,100,cs)
);
},
{
closed = 1;
nodes = (
(269,-10,o),
(323,15,o),
(375,65,c),
(377,65,l),
(376,42,o),
(376,21,o),
(377,0,c),
(511,0,l),
(508,46,o),
(509,93,o),
(516,140,cs),
(570,520,l),
(436,520,l),
(427,455,l),
(425,455,l),
(392,505,o),
(347,530,o),
(277,530,cs),
(95,530,o),
(23,348,o),
(23,192,cs),
(23,62,o),
(85,-10,o),
(200,-10,cs)
);
}
);
width = 604;
},
{
layerId = "E063002F-8124-4781-80CF-71870B1E9574";
shapes = (
{
closed = 1;
nodes = (
(151,57,o),
(105,111,o),
(105,208,cs),
(105,322,o),
(158,463,o),
(291,463,cs),
(377,463,o),
(426,406,o),
(426,319,cs),
(426,307,o),
(425,294,o),
(423,281,cs),
(417,239,ls),
(402,131,o),
(331,57,o),
(233,57,cs)
);
},
{
closed = 1;
nodes = (
(283,-10,o),
(347,21,o),
(395,79,c),
(397,79,l),
(395,51,o),
(396,25,o),
(398,0,c),
(475,0,l),
(472,46,o),
(473,93,o),
(480,140,cs),
(534,520,l),
(457,520,l),
(446,441,l),
(444,441,l),
(415,499,o),
(360,530,o),
(283,530,cs),
(100,530,o),
(27,350,o),
(27,192,cs),
(27,63,o),
(90,-10,o),
(206,-10,cs)
);
}
);
width = 576;
},
{
layerId = "E3F1C297-59E6-4938-934E-5A7468ADCF5D";
shapes = (
{
closed = 1;
nodes = (
(109,10,o),
(53,76,o),
(53,194,cs),
(53,336,o),
(115,510,o),
(282,510,cs),
(387,510,o),
(449,441,o),
(449,332,cs),
(449,317,o),
(447,301,o),
(445,285,cs),
(438,235,ls),
(419,100,o),
(330,10,o),
(211,10,cs)
);
},
{
closed = 1;
nodes = (
(299,-10,o),
(375,39,o),
(420,120,c),
(422,120,l),
(418,85,o),
(416,41,o),
(419,0,c),
(439,0,l),
(436,47,o),
(437,93,o),
(444,140,cs),
(498,520,l),
(479,520,l),
(462,400,l),
(460,400,l),
(438,481,o),
(376,530,o),
(285,530,cs),
(106,530,o),
(33,346,o),
(33,192,cs),
(33,64,o),
(95,-10,o),
(208,-10,cs)
);
}
);
width = 549;
}
);
leftKerningGroup = a;
rightKerningGroup = h;
unicode = 97;
}
{
color = 11;
glyphname = b;
layers = (
{
layerId = "85FAA1A3-2184-4466-B7C1-269FA7F78F7B";
shapes = (
{
closed = 1;
nodes = (
(538,-10,o),
(605,179,o),
(605,332,cs),
(605,460,o),
(545,530,o),
(434,530,cs),
(371,530,o),
(325,508,o),
(275,460,c),
(273,460,l),
(311,730,l),
(120,730,l),
(16,0,l),
(197,0,l),
(208,60,l),
(210,60,l),
(251,12,o),
(294,-10,o),
(357,-10,cs)
);
},
{
closed = 1;
nodes = (
(261,140,o),
(239,167,o),
(239,213,cs),
(239,221,o),
(240,230,o),
(241,240,cs),
(247,280,ls),
(256,343,o),
(286,380,o),
(343,380,cs),
(391,380,o),
(414,353,o),
(414,299,cs),
(414,230,o),
(393,140,o),
(309,140,cs)
);
}
);
width = 632;
},
{
layerId = "840EB1FB-AC3A-40D2-8862-608CEC91F102";
shapes = (
{
closed = 1;
nodes = (
(500,-10,o),
(570,174,o),
(570,330,cs),
(570,458,o),
(509,530,o),
(394,530,cs),
(325,530,o),
(272,505,o),
(225,455,c),
(223,455,l),
(262,730,l),
(127,730,l),
(23,0,l),
(151,0,l),
(161,65,l),
(163,65,l),
(201,15,o),
(249,-10,o),
(317,-10,cs)
);
},
{
closed = 1;
nodes = (
(225,100,o),
(190,143,o),
(190,209,cs),
(190,219,o),
(190,229,o),
(192,240,cs),
(198,280,ls),
(210,364,o),
(261,420,o),
(337,420,cs),
(403,420,o),
(437,380,o),
(437,305,cs),
(437,213,o),
(400,100,o),
(291,100,cs)
);
}
);
width = 602;
},
{
layerId = "E063002F-8124-4781-80CF-71870B1E9574";
shapes = (
{
closed = 1;
nodes = (
(468,-10,o),
(539,172,o),
(539,330,cs),
(539,458,o),
(477,530,o),
(361,530,cs),
(284,530,o),
(219,499,o),
(174,441,c),
(172,441,l),
(213,730,l),
(136,730,l),
(32,0,l),
(106,0,l),
(117,79,l),
(119,79,l),
(151,21,o),
(207,-10,o),
(284,-10,cs)
);
},
{
closed = 1;
nodes = (
(189,57,o),
(140,115,o),
(140,202,cs),
(140,214,o),
(141,226,o),
(143,239,cs),
(149,281,ls),
(165,389,o),
(236,463,o),
(333,463,cs),
(416,463,o),
(461,409,o),
(461,314,cs),
(461,199,o),
(410,57,o),
(275,57,cs)
);
}
);
width = 576;
},
{
layerId = "197DEB4F-431F-44AB-9E75-DFE960AF7369";
partSelection = {
Wt = 2;
};
associatedMasterId = "E3F1C297-59E6-4938-934E-5A7468ADCF5D";
shapes = (
{
closed = 1;
nodes = (
(458,-10,o),
(536,88,o),
(536,260,cs),
(536,432,o),
(458,530,o),
(320,530,cs),
(237,530,o),
(168,494,o),
(132,430,c),
(130,430,l),
(130,730,l),
(81,730,l),
(81,0,l),
(128,0,l),
(128,90,l),
(130,90,l),
(168,26,o),
(236,-10,o),
(320,-10,cs)
);
},
{
closed = 1;
nodes = (
(200,33,o),
(130,115,o),
(130,237,cs),
(130,283,ls),
(130,405,o),
(200,487,o),
(311,487,cs),
(422,487,o),
(487,404,o),
(487,260,cs),
(487,116,o),
(422,33,o),
(311,33,cs)
);
}
);
width = 577;
},
{
layerId = "E3F1C297-59E6-4938-934E-5A7468ADCF5D";
shapes = (
{
closed = 1;
nodes = (
(434,-10,o),
(507,174,o),
(507,328,cs),
(507,456,o),
(445,530,o),
(332,530,cs),
(241,530,o),
(165,481,o),
(120,400,c),
(118,400,l),
(166,730,l),
(146,730,l),
(42,0,l),
(61,0,l),
(78,120,l),
(80,120,l),
(102,39,o),
(164,-10,o),
(255,-10,cs)
);
},
{
closed = 1;
nodes = (
(153,10,o),
(92,80,o),
(92,189,cs),
(92,204,o),
(93,219,o),
(95,235,cs),
(102,285,ls),
(121,420,o),
(210,510,o),
(329,510,cs),
(432,510,o),
(488,443,o),
(488,324,cs),
(488,183,o),
(424,10,o),
(258,10,cs)
);
}
);
width = 548;
}
);
partsSettings = (
{
bottomValue = 0;
name = Wt;
topValue = 1000;
}
);
leftKerningGroup = b;
rightKerningGroup = o;
unicode = 98;
}
{
color = 11;
glyphname = c;
layers = (
{
anchors = (
{
name = bottom;
position = "{279, 0}";
},
{
name = bottom_cd;
position = "{289, 0}";
},
{
name = top;
position = "{279, 520}";
}
);
layerId = "32AE9794-EB03-4324-8552-C2C01674BE0B";
name = "Medium.Dec 5 20, 13:20";
shapes = (
{
closed = 1;
nodes = (
(371,-10,o),
(418,2,o),
(466,27,c),
(446,117,l),
(400,91,o),
(362,80,o),
(318,80,cs),
(210,80,o),
(146,147,o),
(146,260,cs),
(146,373,o),
(210,440,o),
(318,440,cs),
(362,440,o),
(400,429,o),
(446,403,c),
(466,493,l),
(418,518,o),
(371,530,o),
(311,530,cs),
(138,530,o),
(36,430,o),
(36,260,cs),
(36,90,o),
(138,-10,o),
(311,-10,cs)
);
}
);
width = 524;
},
{
anchors = (
{
name = bottom;
position = "{294, 0}";
},
{
name = bottom_cd;
position = "{309, 0}";
},
{
name = top;
position = "{294, 520}";
}
);
layerId = "25F3FA36-1C5E-4BC5-8D3D-4956476F0DBB";
associatedMasterId = "85FAA1A3-2184-4466-B7C1-269FA7F78F7B";
name = "Dec 5 20, 13:18";
shapes = (
{
closed = 1;
nodes = (
(397,-10,o),
(450,2,o),
(504,30,c),
(474,170,l),
(429,144,o),
(386,130,o),
(344,130,cs),
(269,130,o),
(229,175,o),
(229,260,cs),
(229,345,o),
(269,390,o),
(344,390,cs),
(386,390,o),
(429,376,o),
(474,350,c),
(504,490,l),
(450,518,o),
(397,530,o),
(329,530,cs),
(137,530,o),
(29,433,o),
(29,260,cs),
(29,87,o),
(137,-10,o),
(329,-10,cs)
);
}
);
width = 551;
},
{
anchors = (
{
name = bottom;
position = "{250, 0}";
},
{
name = bottom_cd;
position = "{264, 0}";
},
{
name = top;
position = "{250, 520}";
}
);
layerId = "85FAA1A3-2184-4466-B7C1-269FA7F78F7B";
shapes = (
{
closed = 1;
nodes = (
(347,-10,o),
(405,3,o),
(463,30,c),
(454,170,l),
(404,144,o),
(354,130,o),
(312,130,cs),
(248,130,o),
(216,163,o),
(216,227,cs),
(216,311,o),
(254,390,o),
(349,390,cs),
(391,390,o),
(437,376,o),
(480,350,c),
(529,490,l),
(478,517,o),
(424,530,o),
(354,530,cs),
(151,530,o),
(19,411,o),
(19,207,cs),
(19,67,o),
(108,-10,o),
(277,-10,cs)
);
}
);
width = 547;
},
{
anchors = (
{
name = bottom;
position = "{241, 0}";
},
{
name = bottom_cd;
position = "{252, 0}";
},
{
name = top;
position = "{241, 520}";
}
);
layerId = "840EB1FB-AC3A-40D2-8862-608CEC91F102";
shapes = (
{
closed = 1;
nodes = (
(332,-10,o),
(386,2,o),
(442,28,c),
(435,134,l),
(385,109,o),
(338,97,o),
(294,97,cs),
(208,97,o),
(161,142,o),
(161,224,cs),
(161,334,o),
(222,423,o),
(340,423,cs),
(385,423,o),
(428,411,o),
(471,386,c),
(508,492,l),
(460,518,o),
(409,530,o),
(346,530,cs),
(148,530,o),
(23,401,o),
(23,207,cs),
(23,69,o),
(110,-10,o),
(269,-10,cs)
);
}
);
width = 532;
},
{
anchors = (
{
name = bottom;
position = "{234, 0}";
},
{
name = bottom_cd;
position = "{242, 0}";
},
{
name = top;
position = "{234, 520}";
}
);
layerId = "E063002F-8124-4781-80CF-71870B1E9574";
shapes = (
{
closed = 1;
nodes = (
(319,-10,o),
(370,2,o),
(423,26,c),
(417,92,l),
(367,67,o),
(324,57,o),
(277,57,cs),
(168,57,o),
(107,117,o),
(107,219,cs),
(107,356,o),
(190,463,o),
(335,463,cs),
(382,463,o),
(422,453,o),
(465,428,c),
(490,494,l),
(443,518,o),
(396,530,o),
(339,530,cs),
(146,530,o),
(28,392,o),
(28,206,cs),
(28,70,o),
(113,-10,o),
(262,-10,cs)
);
}
);
width = 521;
},
{
anchors = (
{
name = bottom;
position = "{274, 0}";
},
{
name = bottom_cd;
position = "{279, 0}";
},
{
name = top;
position = "{274, 520}";
}
);
layerId = "2BDB64DB-8577-4EB9-BDE7-A30E18F56354";
associatedMasterId = "E3F1C297-59E6-4938-934E-5A7468ADCF5D";
name = "Dec 5 20, 13:17";
shapes = (
{
closed = 1;
nodes = (
(357,-10,o),
(413,0,o),
(447,15,c),
(439,33,l),
(407,19,o),
(354,10,o),
(304,10,cs),
(151,10,o),
(67,97,o),
(67,260,cs),
(67,423,o),
(151,510,o),
(304,510,cs),
(354,510,o),
(407,501,o),
(439,487,c),
(447,505,l),
(413,520,o),
(357,530,o),
(304,530,cs),
(139,530,o),
(47,433,o),
(47,260,cs),
(47,87,o),
(139,-10,o),
(304,-10,cs)
);
}
);
width = 520;
},
{
anchors = (
{
name = bottom;
position = "{264, 0}";
},
{
name = bottom_cd;
position = "{269, 0}";
},
{
name = top;
position = "{264, 520}";
}
);
layerId = "FD6247BA-5EC3-48A5-8346-47CC6ACEA8EB";
associatedMasterId = "E3F1C297-59E6-4938-934E-5A7468ADCF5D";
name = "Dec 5 20, 13:08";
shapes = (
{
closed = 1;
nodes = (
(342,-10,o),
(386,1,o),
(432,25,c),
(423,43,l),
(379,20,o),
(339,10,o),
(292,10,cs),
(149,10,o),
(62,105,o),
(62,260,cs),
(62,415,o),
(149,510,o),
(292,510,cs),
(339,510,o),
(379,500,o),
(423,477,c),
(432,495,l),
(386,519,o),
(342,530,o),
(292,530,cs),
(138,530,o),
(42,426,o),
(42,260,cs),
(42,94,o),
(138,-10,o),
(292,-10,cs)
);
}
);
width = 500;
},
{
anchors = (
{
name = bottom;
position = "{226, 0}";
},
{
name = bottom_cd;
position = "{231, 0}";
},
{
name = top;
position = "{226, 520}";
}
);
layerId = "E3F1C297-59E6-4938-934E-5A7468ADCF5D";
shapes = (
{
closed = 1;
nodes = (
(307,-10,o),
(353,1,o),
(403,25,c),
(397,43,l),
(350,20,o),
(307,10,o),
(258,10,cs),
(128,10,o),
(53,84,o),
(53,208,cs),
(53,373,o),
(153,510,o),
(329,510,cs),
(378,510,o),
(418,500,o),
(459,477,c),
(470,495,l),
(427,519,o),
(384,530,o),
(332,530,cs),
(145,530,o),
(33,383,o),
(33,206,cs),
(33,72,o),
(115,-10,o),
(255,-10,cs)
);
}
);
width = 508;
}
);
leftKerningGroup = o;
rightKerningGroup = c;
unicode = 99;
}
{
color = 11;
glyphname = d;
layers = (
{
layerId = "85FAA1A3-2184-4466-B7C1-269FA7F78F7B";
shapes = (
{
closed = 1;
nodes = (
(251,-10,o),
(301,12,o),
(356,60,c),
(358,60,l),
(351,0,l),
(532,0,l),
(637,730,l),
(445,730,l),
(407,460,l),
(405,460,l),
(369,508,o),
(328,530,o),
(266,530,cs),
(85,530,o),
(18,343,o),
(18,189,cs),
(18,61,o),
(77,-10,o),
(189,-10,cs)
);
},
{
closed = 1;
nodes = (
(231,140,o),
(208,167,o),
(208,221,cs),
(208,290,o),
(230,380,o),
(314,380,cs),
(361,380,o),
(383,353,o),
(383,307,cs),
(383,299,o),
(382,290,o),
(381,280,cs),
(375,240,ls),
(366,177,o),
(336,140,o),
(279,140,cs)
);
}
);
width = 631;
},
{
layerId = "840EB1FB-AC3A-40D2-8862-608CEC91F102";
shapes = (
{
closed = 1;
nodes = (
(269,-10,o),
(323,15,o),
(375,65,c),
(377,65,l),
(368,0,l),
(496,0,l),
(600,730,l),
(466,730,l),
(427,455,l),
(425,455,l),
(392,505,o),
(347,530,o),
(277,530,cs),
(95,530,o),
(23,348,o),
(23,192,cs),
(23,62,o),
(85,-10,o),
(200,-10,cs)
);
},
{
closed = 1;
nodes = (
(191,100,o),
(157,140,o),
(157,215,cs),
(157,307,o),
(194,420,o),
(303,420,cs),
(369,420,o),
(404,377,o),
(404,311,cs),
(404,301,o),
(404,291,o),
(402,280,cs),
(396,240,ls),
(384,156,o),
(333,100,o),
(257,100,cs)
);
}
);
width = 604;
},
{
layerId = "E063002F-8124-4781-80CF-71870B1E9574";
shapes = (
{
closed = 1;
nodes = (
(283,-10,o),
(347,21,o),
(395,79,c),
(397,79,l),
(386,0,l),
(460,0,l),
(564,730,l),
(487,730,l),
(446,441,l),
(444,441,l),
(415,499,o),
(360,530,o),
(283,530,cs),
(100,530,o),
(27,350,o),
(27,192,cs),
(27,63,o),
(90,-10,o),
(206,-10,cs)
);
},
{
closed = 1;
nodes = (
(151,57,o),
(105,111,o),
(105,208,cs),
(105,322,o),
(158,463,o),
(291,463,cs),
(377,463,o),
(426,406,o),
(426,319,cs),
(426,307,o),
(425,294,o),
(423,281,cs),
(417,239,ls),
(402,131,o),
(331,57,o),
(233,57,cs)
);
}
);
width = 576;
},
{
layerId = "E3F1C297-59E6-4938-934E-5A7468ADCF5D";
shapes = (
{
closed = 1;
nodes = (
(299,-10,o),
(375,39,o),
(420,120,c),
(422,120,l),
(405,0,l),
(424,0,l),
(528,730,l),
(509,730,l),
(462,400,l),
(460,400,l),
(438,481,o),
(376,530,o),
(285,530,cs),
(106,530,o),
(33,346,o),
(33,192,cs),
(33,64,o),
(95,-10,o),
(208,-10,cs)
);
},
{
closed = 1;
nodes = (
(109,10,o),
(53,76,o),
(53,194,cs),
(53,336,o),
(115,510,o),
(282,510,cs),
(387,510,o),
(449,441,o),
(449,332,cs),
(449,317,o),
(447,301,o),
(445,285,cs),
(438,235,ls),
(419,100,o),
(330,10,o),
(211,10,cs)
);
}
);
width = 549;
}
);
leftKerningGroup = o;
rightKerningGroup = d;
unicode = 100;
}
{
color = 11;
glyphname = e;
layers = (
{
anchors = (
{
name = bottom;
position = "{250, 0}";
},
{
name = ogonek;
position = "{474, 18}";
},
{
name = top;
position = "{250, 520}";
}
);
layerId = "85FAA1A3-2184-4466-B7C1-269FA7F78F7B";
shapes = (
{
closed = 1;
nodes = (
(190,210,l),
(258,210,ls),
(434,210,o),
(534,276,o),
(534,392,cs),
(534,480,o),
(449,530,o),
(325,530,cs),
(136,530,o),
(19,390,o),
(19,209,cs),
(19,67,o),
(112,-10,o),
(287,-10,cs),
(354,-10,o),
(428,1,o),
(476,18,c),
(477,158,l),
(429,142,o),
(355,130,o),
(299,130,cs),
(223,130,o),
(196,156,o),
(205,220,cs),
(213,280,ls),
(226,367,o),
(255,405,o),
(307,405,cs),
(340,405,o),
(359,384,o),
(359,358,cs),
(359,328,o),
(323,315,o),
(244,315,cs),
(210,315,l)
);
}
);
width = 553;
},
{
anchors = (
{
name = bottom;
position = "{237, 0}";
},
{
name = ogonek;
position = "{451, 22}";
},
{
name = top;
position = "{237, 520}";
}
);
layerId = "840EB1FB-AC3A-40D2-8862-608CEC91F102";
shapes = (
{
closed = 1;
nodes = (
(126,215,l),
(210,215,ls),
(403,215,o),
(501,275,o),
(501,394,cs),
(501,482,o),
(423,530,o),
(314,530,cs),
(126,530,o),
(23,380,o),
(23,205,cs),
(23,67,o),
(108,-10,o),
(270,-10,cs),
(334,-10,o),
(405,2,o),
(454,22,c),
(453,128,l),
(405,109,o),
(336,97,o),
(280,97,cs),
(188,97,o),
(137,141,o),
(154,233,c),
(160,273,ls),
(175,378,o),
(222,430,o),
(299,430,cs),
(346,430,o),
(371,407,o),
(371,370,cs),
(371,332,o),
(300,304,o),
(203,304,cs),
(139,304,l)
);
}
);
width = 524;
},
{
anchors = (
{
name = bottom;
position = "{226, 0}";
},
{
name = ogonek;
position = "{431, 26}";
},
{
name = top;
position = "{226, 520}";
}
);
layerId = "E063002F-8124-4781-80CF-71870B1E9574";
shapes = (
{
closed = 1;
nodes = (
(73,226,l),
(171,226,ls),
(383,226,o),
(478,278,o),
(478,396,cs),
(478,481,o),
(407,530,o),
(307,530,cs),
(121,530,o),
(28,370,o),
(28,201,cs),
(28,65,o),
(107,-10,o),
(255,-10,cs),
(315,-10,o),
(383,3,o),
(435,26,c),
(431,91,l),
(382,70,o),
(317,57,o),
(262,57,cs),
(133,57,o),
(91,132,o),
(106,247,cs),
(109,267,ls),
(128,395,o),
(194,465,o),
(297,465,cs),
(363,465,o),
(400,435,o),
(400,383,cs),
(400,321,o),
(321,288,o),
(170,288,cs),
(82,288,l)
);
}
);
width = 505;
},
{
anchors = (
{
name = bottom;
position = "{215, 0}";
},
{
name = ogonek;
position = "{409, 30}";
},
{
name = top;
position = "{215, 520}";
}
);
layerId = "E3F1C297-59E6-4938-934E-5A7468ADCF5D";
shapes = (
{
closed = 1;
nodes = (
(42,246,l),
(136,246,ls),
(356,246,o),
(457,295,o),
(457,402,cs),
(457,482,o),
(397,530,o),
(300,530,cs),
(116,530,o),
(32,359,o),
(32,196,cs),
(32,63,o),
(104,-10,o),
(238,-10,cs),
(297,-10,o),
(360,4,o),
(414,30,c),
(408,48,l),
(358,24,o),
(298,10,o),
(241,10,cs),
(76,10,o),
(38,122,o),
(57,260,c),
(57,260,l),
(79,419,o),
(167,510,o),
(297,510,cs),
(385,510,o),
(438,469,o),
(438,399,cs),
(438,311,o),
(337,266,o),
(139,266,cs),
(45,266,l)
);
}
);
width = 489;
}
);
leftKerningGroup = o;
rightKerningGroup = o;
unicode = 101;
}
{
color = 11;
glyphname = f;
layers = (
{
layerId = "85FAA1A3-2184-4466-B7C1-269FA7F78F7B";
shapes = (
{
closed = 1;
nodes = (
(266,-140,l),
(340,380,l),
(481,380,l),
(501,520,l),
(360,520,l),
(365,550,l),
(372,605,o),
(386,620,o),
(428,620,c),
(450,620,o),
(474,616,o),
(499,610,c),
(540,755,l),
(496,765,o),
(450,770,o),
(415,770,c),
(277,770,o),
(192,693,o),
(172,550,c),
(167,520,l),
(50,520,l),
(30,380,l),
(147,380,l),
(73,-140,l)
);
}
);
width = 491;
},
{
layerId = "840EB1FB-AC3A-40D2-8862-608CEC91F102";
shapes = (
{
closed = 1;
nodes = (
(229,-140,l),
(307,413,l),
(466,413,l),
(482,520,l),
(322,520,l),
(329,573,ls),
(338,636,o),
(361,658,o),
(418,658,cs),
(441,658,o),
(464,654,o),
(489,647,c),
(520,755,l),
(482,766,o),
(443,770,o),
(411,770,cs),
(286,770,o),
(212,703,o),
(194,573,cs),
(186,520,l),
(52,520,l),
(36,413,l),
(171,413,l),
(93,-140,l)
);
}
);
width = 474;
},
{
layerId = "E063002F-8124-4781-80CF-71870B1E9574";
shapes = (
{
closed = 1;
nodes = (
(190,-140,l),
(275,453,l),
(455,453,l),
(464,520,l),
(285,520,l),
(296,597,ls),
(307,672,o),
(338,701,o),
(408,701,cs),
(434,701,o),
(454,697,o),
(480,689,c),
(501,755,l),
(468,766,o),
(438,770,o),
(407,770,cs),
(297,770,o),
(234,713,o),
(218,597,cs),
(207,520,l),
(55,520,l),
(45,453,l),
(197,453,l),
(112,-140,l)
);
}
);
width = 457;
},
{
layerId = "E3F1C297-59E6-4938-934E-5A7468ADCF5D";
shapes = (
{
closed = 1;
nodes = (
(152,-140,l),
(244,500,l),
(442,500,l),
(445,520,l),
(247,520,l),
(262,620,ls),
(275,711,o),
(316,750,o),
(400,750,cs),
(427,750,o),
(447,746,o),
(472,736,c),
(481,755,l),
(453,766,o),
(431,770,o),
(403,770,cs),
(308,770,o),
(256,722,o),
(242,620,cs),
(227,520,l),
(57,520,l),
(54,500,l),
(224,500,l),
(132,-140,l)
);
}
);
width = 440;
}
);
leftKerningGroup = f;
rightKerningGroup = f;
unicode = 102;
}
{
color = 11;
glyphname = g;
layers = (
{
anchors = (
{
name = bottom;
position = "{274, -140}";
},
{
name = top;
position = "{274, 520}";
}
);
layerId = "85FAA1A3-2184-4466-B7C1-269FA7F78F7B";
shapes = (
{
closed = 1;
nodes = (
(395,-220,o),
(515,-116,o),
(542,70,cs),
(606,520,l),
(425,520,l),
(415,460,l),
(413,460,l),
(372,508,o),
(326,530,o),
(266,530,cs),
(89,530,o),
(20,363,o),
(20,210,cs),
(20,86,o),
(80,20,o),
(193,20,cs),
(253,20,o),
(302,42,o),
(352,90,c),
(354,90,l),
(351,70,ls),
(336,-33,o),
(292,-80,o),
(208,-80,cs),
(164,-80,o),
(96,-67,o),
(30,-46,c),
(-10,-186,l),
(55,-207,o),
(140,-220,o),
(207,-220,cs)
);
},
{
closed = 1;
nodes = (
(236,170,o),
(210,199,o),
(210,250,cs),
(210,313,o),
(242,380,o),
(313,380,cs),
(364,380,o),
(391,348,o),
(383,295,cs),
(377,255,ls),
(370,202,o),
(334,170,o),
(283,170,cs)
);
}
);
width = 631;
},
{
anchors = (
{
name = bottom;
position = "{251, -140}";
},
{
name = top;
position = "{251, 520}";
}
);
layerId = "840EB1FB-AC3A-40D2-8862-608CEC91F102";
shapes = (
{
closed = 1;
nodes = (
(373,-220,o),
(478,-125,o),
(505,60,cs),
(570,520,l),
(443,520,l),
(432,455,l),
(431,455,l),
(392,506,o),
(344,530,o),
(277,530,cs),
(101,530,o),
(25,367,o),
(25,213,cs),
(25,89,o),
(88,20,o),
(205,20,cs),
(271,20,o),
(325,44,o),
(373,95,c),
(375,95,l),
(370,60,ls),
(353,-60,o),
(302,-113,o),
(200,-113,cs),
(147,-113,o),
(80,-99,o),
(23,-75,c),
(-8,-181,l),
(48,-205,o),
(127,-220,o),
(198,-220,cs)
);
},
{
closed = 1;
nodes = (
(195,130,o),
(159,169,o),
(159,239,cs),
(159,328,o),
(201,420,o),
(303,420,cs),
(376,420,o),
(415,371,o),
(404,295,cs),
(398,255,ls),
(387,179,o),
(334,130,o),
(261,130,cs)
);
}
);
width = 604;
},
{
anchors = (
{
name = bottom;
position = "{238, -140}";
},
{
name = top;
position = "{238, 520}";
}
);
layerId = "E063002F-8124-4781-80CF-71870B1E9574";
shapes = (
{
closed = 1;
nodes = (
(351,-220,o),
(441,-133,o),
(467,50,cs),
(534,520,l),
(460,520,l),
(448,444,l),
(447,444,l),
(414,501,o),
(359,530,o),
(283,530,cs),
(107,530,o),
(29,369,o),
(29,214,cs),
(29,90,o),
(94,20,o),
(210,20,cs),
(286,20,o),
(348,49,o),
(396,106,c),
(398,106,l),
(390,50,ls),
(370,-93,o),
(310,-153,o),
(192,-153,cs),
(131,-153,o),
(67,-138,o),
(14,-111,c),
(-8,-177,l),
(45,-204,o),
(118,-220,o),
(188,-220,cs)
);
},
{
closed = 1;
nodes = (
(154,87,o),
(108,138,o),
(108,229,cs),
(108,342,o),
(163,463,o),
(292,463,cs),
(394,463,o),
(440,389,o),
(425,296,cs),
(419,254,ls),
(405,153,o),
(334,87,o),
(239,87,cs)
);
}
);
width = 577;
},
{
anchors = (
{
name = bottom;
position = "{285, -140}";
},
{
name = top;
position = "{285, 520}";
}
);
layerId = "197DEB4F-431F-44AB-9E75-DFE960AF7369";
partSelection = {
Wt = 2;
};
associatedMasterId = "E3F1C297-59E6-4938-934E-5A7468ADCF5D";
shapes = (
{
closed = 1;
nodes = (
(423,-220,o),
(496,-137,o),
(496,45,cs),
(496,520,l),
(448,520,l),
(448,435,l),
(446,435,l),
(407,496,o),
(340,530,o),
(257,530,cs),
(120,530,o),
(41,436,o),
(41,275,cs),
(41,114,o),
(120,20,o),
(257,20,cs),
(339,20,o),
(406,54,o),
(445,115,c),
(447,115,l),
(447,45,ls),
(447,-112,o),
(391,-177,o),
(260,-177,cs),
(196,-177,o),
(130,-161,o),
(72,-133,c),
(61,-174,l),
(120,-203,o),
(192,-220,o),
(263,-220,cs)
);
},
{
closed = 1;
nodes = (
(154,63,o),
(90,140,o),
(90,275,cs),
(90,410,o),
(154,487,o),
(266,487,cs),
(376,487,o),
(447,412,o),
(447,298,cs),
(447,252,ls),
(447,138,o),
(376,63,o),
(266,63,cs)
);
}
);
width = 577;
},
{
anchors = (
{
name = bottom;
position = "{233, -140}";
},
{
name = top;
position = "{233, 520}";
}
);
layerId = "E3F1C297-59E6-4938-934E-5A7468ADCF5D";
shapes = (
{
closed = 1;
nodes = (
(327,-220,o),
(403,-141,o),
(429,40,cs),
(497,520,l),
(478,520,l),
(462,408,l),
(460,408,l),
(437,484,o),
(374,530,o),
(285,530,cs),
(112,530,o),
(34,367,o),
(34,215,cs),
(34,91,o),
(98,20,o),
(212,20,cs),
(301,20,o),
(377,66,o),
(422,142,c),
(424,142,l),
(410,40,ls),
(385,-130,o),
(317,-200,o),
(181,-200,cs),
(116,-200,o),
(56,-184,o),
(4,-154,c),
(-8,-172,l),
(46,-203,o),
(110,-220,o),
(179,-220,cs)
);
},
{
closed = 1;
nodes = (
(111,40,o),
(54,104,o),
(54,218,cs),
(54,357,o),
(123,510,o),
(282,510,cs),
(411,510,o),
(463,415,o),
(447,300,cs),
(440,250,ls),
(422,124,o),
(334,40,o),
(215,40,cs)
);
}
);
width = 548;
}
);
partsSettings = (
{
bottomValue = 0;
name = Wt;
topValue = 1000;
}
);
leftKerningGroup = o;
rightKerningGroup = g;
unicode = 103;
}
{
color = 11;
glyphname = h;
layers = (
{
anchors = (
{
name = bottom;
position = "{260, 0}";
},
{
name = center;
position = "{260, 430}";
},
{
name = top;
position = "{260, 730}";
}
);
layerId = "85FAA1A3-2184-4466-B7C1-269FA7F78F7B";
shapes = (
{
closed = 1;
nodes = (
(207,0,l),
(250,300,ls),
(255,341,o),
(291,370,o),
(332,370,cs),
(370,370,o),
(381,345,o),
(371,280,cs),
(331,0,l),
(523,0,l),
(568,320,ls),
(589,467,o),
(549,530,o),
(433,530,cs),
(370,530,o),
(325,510,o),
(274,460,c),
(272,460,l),
(311,730,l),
(120,730,l),
(16,0,l)
);
}
);
width = 610;
},
{
anchors = (
{
name = bottom;
position = "{247, 0}";
},
{
name = center;
position = "{247, 430}";
},
{
name = top;
position = "{247, 730}";
}
);
layerId = "840EB1FB-AC3A-40D2-8862-608CEC91F102";
shapes = (
{
closed = 1;
nodes = (
(158,0,l),
(197,277,ls),
(208,350,o),
(277,417,o),
(343,417,cs),
(394,417,o),
(412,378,o),
(400,293,cs),
(358,0,l),
(491,0,l),
(537,320,ls),
(558,465,o),
(517,530,o),
(405,530,cs),
(334,530,o),
(273,503,o),
(224,449,c),
(222,449,l),
(262,730,l),
(128,730,l),
(23,0,l)
);
}
);
width = 586;
},
{
anchors = (
{
name = bottom;
position = "{235, 0}";
},
{
name = center;
position = "{235, 430}";
},
{
name = top;
position = "{235, 730}";
}
);
layerId = "E063002F-8124-4781-80CF-71870B1E9574";
shapes = (
{
closed = 1;
nodes = (
(109,0,l),
(148,273,ls),
(163,374,o),
(256,463,o),
(347,463,cs),
(416,463,o),
(443,412,o),
(428,306,cs),
(384,0,l),
(462,0,l),
(508,320,ls),
(528,461,o),
(484,530,o),
(376,530,cs),
(298,530,o),
(221,493,o),
(173,433,c),
(172,433,l),
(213,730,l),
(136,730,l),
(32,0,l)
);
}
);
width = 564;
},
{
anchors = (
{
name = bottom;
position = "{277, 0}";
},
{
name = center;
position = "{277, 430}";
},
{
name = top;
position = "{277, 730}";
}
);
layerId = "197DEB4F-431F-44AB-9E75-DFE960AF7369";
partSelection = {
Wt = 2;
};
associatedMasterId = "E3F1C297-59E6-4938-934E-5A7468ADCF5D";
shapes = (
{
closed = 1;
nodes = (
(130,0,l),
(130,282,ls),
(130,393,o),
(219,487,o),
(325,487,cs),
(409,487,o),
(451,429,o),
(451,313,cs),
(451,0,l),
(501,0,l),
(501,320,ls),
(501,458,o),
(444,530,o),
(335,530,cs),
(251,530,o),
(170,487,o),
(132,421,c),
(131,421,l),
(130,730,l),
(81,730,l),
(81,0,l)
);
}
);
width = 566;
},
{
anchors = (
{
name = bottom;
position = "{222, 0}";
},
{
name = center;
position = "{222, 430}";
},
{
name = top;
position = "{222, 730}";
}
);
layerId = "E3F1C297-59E6-4938-934E-5A7468ADCF5D";
shapes = (
{
closed = 1;
nodes = (
(61,0,l),
(103,290,ls),
(120,412,o),
(228,510,o),
(343,510,cs),
(436,510,o),
(476,445,o),
(458,320,cs),
(412,0,l),
(432,0,l),
(478,320,ls),
(497,455,o),
(451,530,o),
(346,530,cs),
(254,530,o),
(167,472,o),
(119,388,c),
(117,388,l),
(166,730,l),
(146,730,l),
(42,0,l)
);
}
);
width = 540;
}
);
partsSettings = (
{
bottomValue = 0;
name = Wt;
topValue = 1000;
}
);
leftKerningGroup = b;
rightKerningGroup = h;
unicode = 104;
}
{
color = 11;
glyphname = i;
layers = (
{
layerId = "85FAA1A3-2184-4466-B7C1-269FA7F78F7B";
shapes = (
{
closed = 1;
nodes = (
(292,570,l),
(315,730,l),
(120,730,l),
(97,570,l)
);
},
{
closed = 1;
nodes = (
(210,0,l),
(282,500,l),
(87,500,l),
(15,0,l)
);
}
);
width = 310;
},
{
layerId = "840EB1FB-AC3A-40D2-8862-608CEC91F102";
shapes = (
{
closed = 1;
nodes = (
(246,603,l),
(264,730,l),
(127,730,l),
(109,603,l)
);
},
{
closed = 1;
nodes = (
(160,0,l),
(233,513,l),
(96,513,l),
(23,0,l)
);
}
);
width = 267;
},
{
layerId = "E063002F-8124-4781-80CF-71870B1E9574";
shapes = (
{
closed = 1;
nodes = (
(216,637,l),
(229,730,l),
(137,730,l),
(124,637,l)
);
},
{
closed = 1;
nodes = (
(118,0,l),
(192,520,l),
(114,520,l),
(40,0,l)
);
}
);
width = 241;
},
{
layerId = "E3F1C297-59E6-4938-934E-5A7468ADCF5D";
shapes = (
{
closed = 1;
nodes = (
(196,670,l),
(204,730,l),
(146,730,l),
(137,670,l)
);
},
{
closed = 1;
nodes = (
(81,0,l),
(155,520,l),
(135,520,l),
(61,0,l)
);
}
);
width = 226;
}
);
leftKerningGroup = l;
rightKerningGroup = l;
unicode = 105;
}
{
color = 11;
glyphname = j;
layers = (
{
layerId = "85FAA1A3-2184-4466-B7C1-269FA7F78F7B";
shapes = (
{
closed = 1;
nodes = (
(318,570,l),
(341,730,l),
(146,730,l),
(123,570,l)
);
},
{
closed = 1;
nodes = (
(-146,-220,l),
(124,-220,o),
(214,-158,o),
(244,50,cs),
(308,500,l),
(113,500,l),
(49,50,ls),
(33,-63,o),
(14,-75,o),
(-135,-75,c)
);
}
);
width = 296;
},
{
layerId = "840EB1FB-AC3A-40D2-8862-608CEC91F102";
shapes = (
{
closed = 1;
nodes = (
(233,603,l),
(251,730,l),
(115,730,l),
(96,603,l)
);
},
{
closed = 1;
nodes = (
(-201,-220,l),
(44,-220,o),
(124,-163,o),
(152,37,cs),
(220,513,l),
(84,513,l),
(16,37,ls),
(-3,-92,o),
(-31,-112,o),
(-193,-112,c)
);
}
);
width = 208;
},
{
layerId = "E063002F-8124-4781-80CF-71870B1E9574";
shapes = (
{
closed = 1;
nodes = (
(217,637,l),
(230,730,l),
(139,730,l),
(125,637,l)
);
},
{
closed = 1;
nodes = (
(-195,-220,l),
(26,-220,o),
(95,-167,o),
(122,23,cs),
(193,520,l),
(115,520,l),
(44,23,ls),
(23,-124,o),
(-15,-153,o),
(-189,-153,c)
);
}
);
width = 190;
},
{
layerId = "E3F1C297-59E6-4938-934E-5A7468ADCF5D";
shapes = (
{
closed = 1;
nodes = (
(205,670,l),
(214,730,l),
(156,730,l),
(147,670,l)
);
},
{
closed = 1;
nodes = (
(-190,-220,l),
(6,-220,o),
(66,-172,o),
(92,10,cs),
(165,520,l),
(145,520,l),
(72,10,ls),
(48,-160,o),
(-1,-200,o),
(-187,-200,c)
);
}
);
width = 176;
}
);
leftKerningGroup = l;
rightKerningGroup = g;
unicode = 106;
}
{
color = 11;
glyphname = k;
layers = (
{
anchors = (
{
name = bottom;
position = "{251, 0}";
},
{
name = top;
position = "{251, 730}";
}
);
layerId = "85FAA1A3-2184-4466-B7C1-269FA7F78F7B";
shapes = (
{
closed = 1;
nodes = (
(207,0,l),
(238,215,l),
(240,215,l),
(342,0,l),
(562,0,l),
(406,270,l),
(631,520,l),
(411,520,l),
(255,325,l),
(253,325,l),
(311,730,l),
(120,730,l),
(16,0,l)
);
}
);
width = 615;
},
{
anchors = (
{
name = bottom;
position = "{229, 0}";
},
{
name = top;
position = "{229, 730}";
}
);
layerId = "840EB1FB-AC3A-40D2-8862-608CEC91F102";
shapes = (
{
closed = 1;
nodes = (
(158,0,l),
(190,228,l),
(192,228,l),
(361,0,l),
(524,0,l),
(311,270,l),
(590,520,l),
(426,520,l),
(204,312,l),
(202,312,l),
(262,730,l),
(128,730,l),
(23,0,l)
);
}
);
width = 593;
},
{
anchors = (
{
name = bottom;
position = "{208, 0}";
},
{
name = top;
position = "{208, 730}";
}
);
layerId = "E063002F-8124-4781-80CF-71870B1E9574";
shapes = (
{
closed = 1;
nodes = (
(110,0,l),
(145,244,l),
(147,244,l),
(385,0,l),
(486,0,l),
(218,270,l),
(548,520,l),
(447,520,l),
(154,297,l),
(153,297,l),
(214,730,l),
(136,730,l),
(32,0,l)
);
}
);
width = 558;
},
{
anchors = (
{
name = bottom;
position = "{188, 0}";
},
{
name = top;
position = "{188, 730}";
}
);
layerId = "E3F1C297-59E6-4938-934E-5A7468ADCF5D";
shapes = (
{
closed = 1;
nodes = (
(63,0,l),
(100,262,l),
(102,262,l),
(418,0,l),
(451,0,l),
(127,270,l),
(509,520,l),
(476,520,l),
(105,278,l),
(103,278,l),
(167,730,l),
(146,730,l),
(42,0,l)
);
}
);
width = 527;
}
);
leftKerningGroup = b;
rightKerningGroup = x;
unicode = 107;
}
{
color = 11;
glyphname = l;
layers = (
{
layerId = "85FAA1A3-2184-4466-B7C1-269FA7F78F7B";
shapes = (
{
closed = 1;
nodes = (
(318,730,l),
(245,220,ls),
(238,170,o),
(251,150,o),
(290,150,cs),
(329,150,l),
(309,10,l),
(281,-4,o),
(254,-10,o),
(233,-10,cs),
(91,-10,o),
(27,77,o),
(47,220,cs),
(120,730,l)
);
}
);
width = 360;
},
{
layerId = "840EB1FB-AC3A-40D2-8862-608CEC91F102";
shapes = (
{
closed = 1;
nodes = (
(267,730,l),
(190,192,ls),
(181,129,o),
(198,107,o),
(256,107,cs),
(294,107,l),
(280,6,l),
(257,-1,o),
(235,-6,o),
(217,-6,cs),
(90,-6,o),
(35,67,o),
(53,197,cs),
(129,730,l)
);
}
);
width = 332;
},
{
layerId = "E063002F-8124-4781-80CF-71870B1E9574";
shapes = (
{
closed = 1;
nodes = (
(218,730,l),
(137,163,ls),
(126,88,o),
(150,59,o),
(222,59,cs),
(251,59,l),
(244,4,l),
(230,-2,o),
(215,-4,o),
(202,-4,cs),
(89,-4,o),
(42,57,o),
(59,173,cs),
(138,730,l)
);
}
);
width = 301;
},
{
layerId = "E3F1C297-59E6-4938-934E-5A7468ADCF5D";
shapes = (
{
closed = 1;
nodes = (
(167,730,l),
(84,150,ls),
(71,59,o),
(103,20,o),
(190,20,cs),
(223,20,l),
(220,2,l),
(209,-1,o),
(198,-3,o),
(187,-3,cs),
(89,-3,o),
(50,48,o),
(64,150,cs),
(147,730,l)
);
}
);
width = 280;
}
);
leftKerningGroup = l;
rightKerningGroup = l;
unicode = 108;
}
{
color = 11;
glyphname = m;
layers = (
{
layerId = "85FAA1A3-2184-4466-B7C1-269FA7F78F7B";
shapes = (
{
closed = 1;
nodes = (
(202,0,l),
(245,300,ls),
(251,341,o),
(277,370,o),
(309,370,cs),
(337,370,o),
(345,349,o),
(338,300,cs),
(295,0,l),
(483,0,l),
(526,300,ls),
(532,341,o),
(558,370,o),
(590,370,cs),
(617,370,o),
(626,349,o),
(619,300,cs),
(576,0,l),
(763,0,l),
(813,350,ls),
(831,476,o),
(795,530,o),
(692,530,cs),
(628,530,o),
(579,509,o),
(527,460,c),
(525,460,l),
(509,507,o),
(473,530,o),
(411,530,cs),
(353,530,o),
(309,509,o),
(262,460,c),
(260,460,l),
(266,520,l),
(89,520,l),
(15,0,l)
);
}
);
width = 850;
},
{
layerId = "840EB1FB-AC3A-40D2-8862-608CEC91F102";
shapes = (
{
closed = 1;
nodes = (
(155,0,l),
(193,263,ls),
(206,355,o),
(252,417,o),
(306,417,cs),
(350,417,o),
(369,377,o),
(359,307,cs),
(315,0,l),
(446,0,l),
(485,273,ls),
(498,361,o),
(542,417,o),
(597,417,cs),
(641,417,o),
(661,382,o),
(652,320,cs),
(606,0,l),
(737,0,l),
(787,353,ls),
(805,473,o),
(766,530,o),
(666,530,cs),
(599,530,o),
(544,505,o),
(496,453,c),
(494,453,l),
(477,504,o),
(437,530,o),
(374,530,cs),
(313,530,o),
(262,505,o),
(217,453,c),
(215,453,l),
(222,520,l),
(97,520,l),
(23,0,l)
);
}
);
width = 831;
},
{
layerId = "E063002F-8124-4781-80CF-71870B1E9574";
shapes = (
{
closed = 1;
nodes = (
(108,0,l),
(144,251,ls),
(162,377,o),
(226,463,o),
(302,463,cs),
(362,463,o),
(392,407,o),
(379,313,cs),
(334,0,l),
(410,0,l),
(449,275,ls),
(465,388,o),
(527,463,o),
(603,463,cs),
(664,463,o),
(695,415,o),
(685,340,cs),
(636,0,l),
(712,0,l),
(763,356,ls),
(779,470,o),
(737,530,o),
(639,530,cs),
(569,530,o),
(506,499,o),
(462,443,c),
(460,443,l),
(444,500,o),
(403,530,o),
(337,530,cs),
(272,530,o),
(215,500,o),
(171,443,c),
(169,443,l),
(179,520,l),
(106,520,l),
(32,0,l)
);
}
);
width = 813;
},
{
layerId = "197DEB4F-431F-44AB-9E75-DFE960AF7369";
partSelection = {
Wt = 2;
};
associatedMasterId = "E3F1C297-59E6-4938-934E-5A7468ADCF5D";
shapes = (
{
closed = 1;
nodes = (
(130,0,l),
(130,257,ls),
(130,392,o),
(191,487,o),
(279,487,cs),
(352,487,o),
(396,423,o),
(396,317,cs),
(396,0,l),
(445,0,l),
(445,292,ls),
(445,406,o),
(507,487,o),
(594,487,cs),
(665,487,o),
(711,433,o),
(711,350,cs),
(711,0,l),
(760,0,l),
(760,358,ls),
(760,468,o),
(705,530,o),
(607,530,cs),
(533,530,o),
(469,495,o),
(435,435,c),
(433,435,l),
(409,497,o),
(361,530,o),
(292,530,cs),
(222,530,o),
(167,497,o),
(131,435,c),
(129,435,l),
(128,520,l),
(81,520,l),
(81,0,l)
);
}
);
width = 825;
},
{
layerId = "E3F1C297-59E6-4938-934E-5A7468ADCF5D";
shapes = (
{
closed = 1;
nodes = (
(60,0,l),
(98,263,ls),
(118,408,o),
(200,510,o),
(296,510,cs),
(380,510,o),
(415,432,o),
(399,320,cs),
(353,0,l),
(372,0,l),
(416,308,ls),
(432,417,o),
(512,510,o),
(608,510,cs),
(687,510,o),
(729,451,o),
(716,360,cs),
(665,0,l),
(684,0,l),
(735,360,ls),
(750,463,o),
(701,530,o),
(611,530,cs),
(536,530,o),
(469,482,o),
(424,396,c),
(422,396,l),
(412,483,o),
(370,530,o),
(299,530,cs),
(228,530,o),
(165,484,o),
(119,396,c),
(117,396,l),
(134,520,l),
(115,520,l),
(41,0,l)
);
}
);
width = 792;
}
);
partsSettings = (
{
bottomValue = 0;
name = Wt;
topValue = 1000;
}
);
leftKerningGroup = n;
rightKerningGroup = h;
unicode = 109;
}
{
color = 11;
glyphname = n;
layers = (
{
anchors = (
{
name = bottom;
position = "{271, 0}";
},
{
name = top;
position = "{271, 520}";
}
);
layerId = "85FAA1A3-2184-4466-B7C1-269FA7F78F7B";
shapes = (
{
closed = 1;
nodes = (
(207,0,l),
(250,300,ls),
(256,341,o),
(292,370,o),
(337,370,cs),
(378,370,o),
(390,345,o),
(381,280,cs),
(341,0,l),
(532,0,l),
(578,320,ls),
(599,469,o),
(561,530,o),
(443,530,cs),
(374,530,o),
(322,509,o),
(267,460,c),
(265,460,l),
(271,520,l),
(90,520,l),
(16,0,l)
);
}
);
width = 620;
},
{
anchors = (
{
name = bottom;
position = "{259, 0}";
},
{
name = top;
position = "{259, 520}";
}
);
layerId = "840EB1FB-AC3A-40D2-8862-608CEC91F102";
shapes = (
{
closed = 1;
nodes = (
(158,0,l),
(197,277,ls),
(208,351,o),
(279,417,o),
(348,417,cs),
(402,417,o),
(421,378,o),
(409,293,cs),
(368,0,l),
(501,0,l),
(547,320,ls),
(567,464,o),
(525,530,o),
(411,530,cs),
(337,530,o),
(270,502,o),
(218,449,c),
(216,449,l),
(225,520,l),
(98,520,l),
(23,0,l)
);
}
);
width = 596;
},
{
anchors = (
{
name = bottom;
position = "{249, 0}";
},
{
name = top;
position = "{249, 520}";
}
);
layerId = "E063002F-8124-4781-80CF-71870B1E9574";
shapes = (
{
closed = 1;
nodes = (
(109,0,l),
(148,273,ls),
(163,375,o),
(258,463,o),
(354,463,cs),
(425,463,o),
(453,412,o),
(438,306,cs),
(394,0,l),
(472,0,l),
(518,320,ls),
(538,462,o),
(494,530,o),
(383,530,cs),
(301,530,o),
(220,493,o),
(170,433,c),
(168,433,l),
(180,520,l),
(106,520,l),
(32,0,l)
);
}
);
width = 573;
},
{
anchors = (
{
name = bottom;
position = "{292, 0}";
},
{
name = top;
position = "{292, 520}";
}
);
layerId = "197DEB4F-431F-44AB-9E75-DFE960AF7369";
partSelection = {
Wt = 2;
};
associatedMasterId = "E3F1C297-59E6-4938-934E-5A7468ADCF5D";
shapes = (
{
closed = 1;
nodes = (
(130,0,l),
(130,282,ls),
(130,394,o),
(222,487,o),
(333,487,cs),
(419,487,o),
(461,430,o),
(461,313,cs),
(461,0,l),
(511,0,l),
(511,320,ls),
(511,461,o),
(456,530,o),
(343,530,cs),
(254,530,o),
(170,487,o),
(130,421,c),
(128,421,l),
(128,520,l),
(81,520,l),
(81,0,l)
);
}
);
width = 576;
},
{
anchors = (
{
name = bottom;
position = "{238, 0}";
},
{
name = top;
position = "{238, 520}";
}
);
layerId = "E3F1C297-59E6-4938-934E-5A7468ADCF5D";
shapes = (
{
closed = 1;
nodes = (
(61,0,l),
(102,290,ls),
(120,412,o),
(232,510,o),
(353,510,cs),
(448,510,o),
(486,448,o),
(468,320,cs),
(422,0,l),
(442,0,l),
(488,320,ls),
(507,458,o),
(462,530,o),
(356,530,cs),
(262,530,o),
(169,475,o),
(118,388,c),
(116,388,l),
(135,520,l),
(116,520,l),
(42,0,l)
);
}
);
width = 550;
}
);
partsSettings = (
{
bottomValue = 0;
name = Wt;
topValue = 1000;
}
);
leftKerningGroup = n;
rightKerningGroup = h;
unicode = 110;
}
{
color = 11;
glyphname = o;
layers = (
{
anchors = (
{
name = bottom;
position = "{254, 0}";
},
{
name = center;
position = "{254, 260}";
},
{
name = ogonek;
position = "{376, 10}";
},
{
name = top;
position = "{254, 520}";
},
{
name = topright;
position = "{426, 484}";
}
);
layerId = "85FAA1A3-2184-4466-B7C1-269FA7F78F7B";
shapes = (
{
closed = 1;
nodes = (
(457,-10,o),
(564,126,o),
(564,320,cs),
(564,457,o),
(484,530,o),
(330,530,cs),
(126,530,o),
(18,393,o),
(18,200,cs),
(18,63,o),
(98,-10,o),
(253,-10,cs)
);
},
{
closed = 1;
nodes = (
(231,130,o),
(211,156,o),
(211,211,cs),
(211,276,o),
(228,390,o),
(310,390,cs),
(353,390,o),
(373,364,o),
(373,307,cs),
(373,242,o),
(355,130,o),
(273,130,cs)
);
}
);
width = 593;
},
{
anchors = (
{
name = bottom;
position = "{244, 0}";
},
{
name = center;
position = "{244, 260}";
},
{
name = ogonek;
position = "{337, 3}";
},
{
name = top;
position = "{244, 520}";
},
{
name = topright;
position = "{411, 483}";
}
);
layerId = "840EB1FB-AC3A-40D2-8862-608CEC91F102";
shapes = (
{
closed = 1;
nodes = (
(439,-10,o),
(539,138,o),
(539,320,cs),
(539,455,o),
(461,530,o),
(319,530,cs),
(123,530,o),
(23,383,o),
(23,201,cs),
(23,65,o),
(99,-10,o),
(242,-10,cs)
);
},
{
closed = 1;
nodes = (
(192,97,o),
(157,136,o),
(157,212,cs),
(157,305,o),
(192,423,o),
(304,423,cs),
(371,423,o),
(405,384,o),
(405,307,cs),
(405,214,o),
(369,97,o),
(258,97,cs)
);
}
);
width = 572;
},
{
anchors = (
{
name = bottom;
position = "{234, 0}";
},
{
name = center;
position = "{234, 260}";
},
{
name = ogonek;
position = "{302, 0}";
},
{
name = top;
position = "{234, 520}";
},
{
name = topright;
position = "{392, 481}";
}
);
layerId = "E063002F-8124-4781-80CF-71870B1E9574";
shapes = (
{
closed = 1;
nodes = (
(422,-10,o),
(515,148,o),
(515,320,cs),
(515,453,o),
(442,530,o),
(311,530,cs),
(121,530,o),
(28,373,o),
(28,200,cs),
(28,67,o),
(101,-10,o),
(233,-10,cs)
);
},
{
closed = 1;
nodes = (
(153,57,o),
(105,111,o),
(105,209,cs),
(105,330,o),
(161,463,o),
(301,463,cs),
(390,463,o),
(438,410,o),
(438,313,cs),
(438,192,o),
(383,57,o),
(243,57,cs)
);
}
);
width = 553;
},
{
anchors = (
{
name = bottom;
position = "{224, 0}";
},
{
name = center;
position = "{224, 260}";
},
{
name = ogonek;
position = "{271, 0}";
},
{
name = top;
position = "{224, 520}";
},
{
name = topright;
position = "{367, 480}";
}
);
layerId = "E3F1C297-59E6-4938-934E-5A7468ADCF5D";
shapes = (
{
closed = 1;
nodes = (
(405,-10,o),
(491,161,o),
(491,321,cs),
(491,453,o),
(421,530,o),
(300,530,cs),
(118,530,o),
(32,360,o),
(32,198,cs),
(32,67,o),
(101,-10,o),
(223,-10,cs)
);
},
{
closed = 1;
nodes = (
(115,10,o),
(52,79,o),
(52,200,cs),
(52,349,o),
(127,510,o),
(297,510,cs),
(408,510,o),
(471,441,o),
(471,320,cs),
(471,172,o),
(395,10,o),
(226,10,cs)
);
}
);
width = 532;
}
);
leftKerningGroup = o;
rightKerningGroup = o;
unicode = 111;
}
{
color = 11;
glyphname = p;
layers = (
{
layerId = "85FAA1A3-2184-4466-B7C1-269FA7F78F7B";
shapes = (
{
closed = 1;
nodes = (
(177,-210,l),
(215,60,l),
(217,60,l),
(254,11,o),
(296,-10,o),
(356,-10,cs),
(536,-10,o),
(604,177,o),
(604,330,cs),
(604,458,o),
(544,530,o),
(433,530,cs),
(373,530,o),
(322,509,o),
(267,460,c),
(265,460,l),
(271,520,l),
(90,520,l),
(-14,-210,l)
);
},
{
closed = 1;
nodes = (
(261,140,o),
(239,167,o),
(239,213,cs),
(239,221,o),
(240,230,o),
(241,240,cs),
(247,280,ls),
(256,343,o),
(286,380,o),
(343,380,cs),
(391,380,o),
(414,353,o),
(414,299,cs),
(414,230,o),
(393,140,o),
(309,140,cs)
);
}
);
width = 632;
},
{
layerId = "840EB1FB-AC3A-40D2-8862-608CEC91F102";
shapes = (
{
closed = 1;
nodes = (
(128,-210,l),
(167,65,l),
(169,65,l),
(203,14,o),
(250,-10,o),
(316,-10,cs),
(497,-10,o),
(571,172,o),
(571,328,cs),
(571,457,o),
(509,530,o),
(393,530,cs),
(327,530,o),
(271,506,o),
(219,455,c),
(217,455,l),
(225,520,l),
(98,520,l),
(-7,-210,l)
);
},
{
closed = 1;
nodes = (
(225,100,o),
(190,143,o),
(190,209,cs),
(190,219,o),
(190,229,o),
(192,240,cs),
(198,280,ls),
(210,364,o),
(261,420,o),
(337,420,cs),
(403,420,o),
(437,380,o),
(437,305,cs),
(437,213,o),
(400,100,o),
(291,100,cs)
);
}
);
width = 603;
},
{
layerId = "E063002F-8124-4781-80CF-71870B1E9574";
shapes = (
{
closed = 1;
nodes = (
(79,-210,l),
(120,79,l),
(122,79,l),
(152,21,o),
(207,-10,o),
(283,-10,cs),
(466,-10,o),
(539,172,o),
(539,329,cs),
(539,457,o),
(476,530,o),
(360,530,cs),
(285,530,o),
(219,499,o),
(171,441,c),
(169,441,l),
(180,520,l),
(106,520,l),
(2,-210,l)
);
},
{
closed = 1;
nodes = (
(189,57,o),
(140,115,o),
(140,202,cs),
(140,214,o),
(141,226,o),
(143,239,cs),
(149,281,ls),
(165,389,o),
(236,463,o),
(333,463,cs),
(416,463,o),
(461,409,o),
(461,314,cs),
(461,199,o),
(410,57,o),
(275,57,cs)
);
}
);
width = 577;
},
{
layerId = "197DEB4F-431F-44AB-9E75-DFE960AF7369";
partSelection = {
Wt = 2;
};
associatedMasterId = "E3F1C297-59E6-4938-934E-5A7468ADCF5D";
shapes = (
{
closed = 1;
nodes = (
(130,-210,l),
(130,90,l),
(132,90,l),
(168,27,o),
(236,-10,o),
(320,-10,cs),
(458,-10,o),
(536,88,o),
(536,260,cs),
(536,432,o),
(458,530,o),
(320,530,cs),
(237,530,o),
(168,494,o),
(130,430,c),
(128,430,l),
(128,520,l),
(81,520,l),
(81,-210,l)
);
},
{
closed = 1;
nodes = (
(200,33,o),
(130,115,o),
(130,237,cs),
(130,283,ls),
(130,405,o),
(200,487,o),
(311,487,cs),
(422,487,o),
(487,404,o),
(487,260,cs),
(487,116,o),
(422,33,o),
(311,33,cs)
);
}
);
width = 577;
},
{
layerId = "E3F1C297-59E6-4938-934E-5A7468ADCF5D";
shapes = (
{
closed = 1;
nodes = (
(31,-210,l),
(78,120,l),
(80,120,l),
(102,39,o),
(164,-10,o),
(255,-10,cs),
(434,-10,o),
(507,174,o),
(507,328,cs),
(507,456,o),
(445,530,o),
(332,530,cs),
(241,530,o),
(165,481,o),
(120,400,c),
(118,400,l),
(136,520,l),
(116,520,l),
(12,-210,l)
);
},
{
closed = 1;
nodes = (
(153,10,o),
(92,80,o),
(92,189,cs),
(92,204,o),
(93,219,o),
(95,235,cs),
(102,285,ls),
(121,420,o),
(210,510,o),
(329,510,cs),
(432,510,o),
(488,443,o),
(488,324,cs),
(488,183,o),
(424,10,o),
(258,10,cs)
);
}
);
width = 548;
}
);
partsSettings = (
{
bottomValue = 0;
name = Wt;
topValue = 1000;
}
);
leftKerningGroup = n;
rightKerningGroup = o;
unicode = 112;
}
{
color = 11;
glyphname = q;
layers = (
{
layerId = "85FAA1A3-2184-4466-B7C1-269FA7F78F7B";
shapes = (
{
closed = 1;
nodes = (
(311,-210,l),
(502,-210,l),
(607,520,l),
(425,520,l),
(415,460,l),
(413,460,l),
(371,509,o),
(326,530,o),
(266,530,cs),
(86,530,o),
(18,343,o),
(18,190,cs),
(18,62,o),
(78,-10,o),
(189,-10,cs),
(249,-10,o),
(297,11,o),
(348,60,c),
(350,60,l)
);
},
{
closed = 1;
nodes = (
(231,140,o),
(208,167,o),
(208,221,cs),
(208,290,o),
(230,380,o),
(314,380,cs),
(380,380,o),
(386,331,o),
(381,280,cs),
(375,240,ls),
(366,177,o),
(336,140,o),
(279,140,cs)
);
}
);
width = 631;
},
{
layerId = "840EB1FB-AC3A-40D2-8862-608CEC91F102";
shapes = (
{
closed = 1;
nodes = (
(332,-210,l),
(466,-210,l),
(570,520,l),
(443,520,l),
(432,455,l),
(431,455,l),
(393,506,o),
(344,530,o),
(277,530,cs),
(96,530,o),
(23,348,o),
(23,193,cs),
(23,63,o),
(86,-10,o),
(200,-10,cs),
(267,-10,o),
(321,14,o),
(369,65,c),
(371,65,l)
);
},
{
closed = 1;
nodes = (
(191,100,o),
(157,140,o),
(157,215,cs),
(157,307,o),
(194,420,o),
(303,420,cs),
(385,420,o),
(415,350,o),
(402,280,cs),
(396,240,ls),
(384,156,o),
(333,100,o),
(257,100,cs)
);
}
);
width = 604;
},
{
layerId = "E063002F-8124-4781-80CF-71870B1E9574";
shapes = (
{
closed = 1;
nodes = (
(353,-210,l),
(430,-210,l),
(534,520,l),
(460,520,l),
(449,441,l),
(447,441,l),
(415,499,o),
(358,530,o),
(283,530,cs),
(101,530,o),
(27,350,o),
(27,193,cs),
(27,64,o),
(91,-10,o),
(206,-10,cs),
(282,-10,o),
(346,21,o),
(392,79,c),
(394,79,l)
);
},
{
closed = 1;
nodes = (
(151,57,o),
(105,111,o),
(105,208,cs),
(105,322,o),
(158,463,o),
(291,463,cs),
(400,463,o),
(437,375,o),
(423,281,cs),
(417,239,ls),
(402,131,o),
(331,57,o),
(233,57,cs)
);
}
);
width = 576;
},
{
layerId = "197DEB4F-431F-44AB-9E75-DFE960AF7369";
partSelection = {
Wt = 2;
};
associatedMasterId = "E3F1C297-59E6-4938-934E-5A7468ADCF5D";
shapes = (
{
alignment = -1;
pos = (577,0);
ref = p;
scale = (-1,1);
}
);
width = 577;
},
{
layerId = "E3F1C297-59E6-4938-934E-5A7468ADCF5D";
shapes = (
{
closed = 1;
nodes = (
(375,-210,l),
(394,-210,l),
(498,520,l),
(479,520,l),
(462,400,l),
(460,400,l),
(438,481,o),
(376,530,o),
(285,530,cs),
(106,530,o),
(33,346,o),
(33,192,cs),
(33,64,o),
(95,-10,o),
(208,-10,cs),
(299,-10,o),
(375,39,o),
(420,120,c),
(422,120,l)
);
},
{
closed = 1;
nodes = (
(109,10,o),
(53,76,o),
(53,194,cs),
(53,336,o),
(115,510,o),
(282,510,cs),
(420,510,o),
(460,401,o),
(445,285,cs),
(438,235,ls),
(419,100,o),
(330,10,o),
(211,10,cs)
);
}
);
width = 549;
}
);
partsSettings = (
{
bottomValue = 0;
name = Wt;
topValue = 1000;
}
);
leftKerningGroup = o;
rightKerningGroup = u;
unicode = 113;
}
{
color = 11;
glyphname = r;
layers = (
{
anchors = (
{
name = bottom;
position = "{211, 0}";
},
{
name = top;
position = "{211, 520}";
}
);
layerId = "85FAA1A3-2184-4466-B7C1-269FA7F78F7B";
shapes = (
{
closed = 1;
nodes = (
(208,0,l),
(239,220,ls),
(251,303,o),
(358,370,o),
(477,370,c),
(500,530,l),
(415,530,o),
(334,496,o),
(263,430,c),
(261,430,l),
(272,520,l),
(89,520,l),
(15,0,l)
);
}
);
width = 483;
},
{
anchors = (
{
name = bottom;
position = "{200, 0}";
},
{
name = top;
position = "{200, 520}";
}
);
layerId = "840EB1FB-AC3A-40D2-8862-608CEC91F102";
shapes = (
{
closed = 1;
nodes = (
(159,0,l),
(193,240,ls),
(207,336,o),
(326,413,o),
(460,413,c),
(476,530,l),
(377,530,o),
(282,491,o),
(216,423,c),
(214,423,l),
(226,520,l),
(98,520,l),
(23,0,l)
);
}
);
width = 456;
},
{
anchors = (
{
name = bottom;
position = "{189, 0}";
},
{
name = top;
position = "{189, 520}";
}
);
layerId = "E063002F-8124-4781-80CF-71870B1E9574";
shapes = (
{
closed = 1;
nodes = (
(110,0,l),
(147,260,ls),
(164,375,o),
(289,460,o),
(443,460,c),
(453,530,l),
(338,530,o),
(229,485,o),
(168,412,c),
(166,412,l),
(180,520,l),
(106,520,l),
(32,0,l)
);
}
);
width = 434;
},
{
anchors = (
{
name = bottom;
position = "{231, 0}";
},
{
name = top;
position = "{231, 520}";
}
);
layerId = "197DEB4F-431F-44AB-9E75-DFE960AF7369";
partSelection = {
Wt = 2;
};
associatedMasterId = "E3F1C297-59E6-4938-934E-5A7468ADCF5D";
shapes = (
{
closed = 1;
nodes = (
(130,0,l),
(130,270,ls),
(130,398,o),
(246,485,o),
(417,485,c),
(417,530,l),
(291,530,o),
(180,481,o),
(131,404,c),
(129,404,l),
(128,520,l),
(81,520,l),
(81,0,l)
);
}
);
width = 433;
},
{
anchors = (
{
name = bottom;
position = "{177, 0}";
},
{
name = top;
position = "{177, 520}";
}
);
layerId = "E3F1C297-59E6-4938-934E-5A7468ADCF5D";
shapes = (
{
closed = 1;
nodes = (
(60,0,l),
(100,280,ls),
(118,408,o),
(263,510,o),
(426,510,c),
(429,530,l),
(298,530,o),
(174,466,o),
(115,370,c),
(113,370,l),
(134,520,l),
(115,520,l),
(41,0,l)
);
}
);
width = 411;
}
);
partsSettings = (
{
bottomValue = 0;
name = Wt;
topValue = 1000;
}
);
leftKerningGroup = n;
rightKerningGroup = r;
unicode = 114;
}
{
color = 11;
glyphname = s;
layers = (
{
anchors = (
{
name = bottom;
position = "{246, 0}";
},
{
name = cedi;
position = "{188, 0}";
},
{
name = top;
position = "{246, 520}";
}
);
layerId = "C6DD9E83-6E4C-411A-ACA3-FEEFE39A9BB4";
name = "Medium.Dec 5 20, 15:24";
shapes = (
{
closed = 1;
nodes = (
(377,-10,o),
(459,48,o),
(459,143,cs),
(459,241,o),
(376,283,o),
(257,310,c),
(174,332,o),
(146,350,o),
(146,384,cs),
(146,421,o),
(181,440,o),
(257,440,cs),
(315,440,o),
(372,428,o),
(424,404,c),
(439,494,l),
(379,517,o),
(310,530,o),
(244,530,cs),
(111,530,o),
(36,478,o),
(36,385,cs),
(36,288,o),
(112,251,o),
(235,221,cs),
(323,198,o),
(349,180,o),
(349,144,cs),
(349,101,o),
(310,80,o),
(233,80,cs),
(171,80,o),
(117,94,o),
(57,122,c),
(42,32,l),
(98,6,o),
(175,-10,o),
(246,-10,cs)
);
}
);
width = 495;
},
{
anchors = (
{
name = bottom;
position = "{215, 0}";
},
{
name = cedi;
position = "{160, 0}";
},
{
name = top;
position = "{215, 520}";
}
);
layerId = "85FAA1A3-2184-4466-B7C1-269FA7F78F7B";
shapes = (
{
closed = 1;
nodes = (
(333,-10,o),
(474,43,o),
(474,177,cs),
(474,253,o),
(413,302,o),
(284,331,c),
(246,342,o),
(231,351,o),
(234,367,cs),
(236,384,o),
(253,390,o),
(297,390,cs),
(353,390,o),
(395,380,o),
(461,354,c),
(500,494,l),
(433,517,o),
(356,530,o),
(291,530,cs),
(168,530,o),
(37,488,o),
(37,344,cs),
(37,268,o),
(92,225,o),
(226,191,c),
(270,178,o),
(279,172,o),
(277,157,cs),
(274,137,o),
(257,130,o),
(213,130,cs),
(155,130,o),
(102,143,o),
(35,172,c),
(-4,32,l),
(59,4,o),
(133,-10,o),
(219,-10,cs)
);
}
);
width = 520;
},
{
anchors = (
{
name = bottom;
position = "{208, 0}";
},
{
name = cedi;
position = "{151, 0}";
},
{
name = top;
position = "{208, 520}";
}
);
layerId = "840EB1FB-AC3A-40D2-8862-608CEC91F102";
shapes = (
{
closed = 1;
nodes = (
(318,-10,o),
(451,38,o),
(451,169,cs),
(451,242,o),
(393,288,o),
(267,317,c),
(203,334,o),
(181,348,o),
(181,372,cs),
(181,422,o),
(249,423,o),
(284,423,cs),
(342,423,o),
(394,412,o),
(450,388,c),
(481,494,l),
(423,516,o),
(347,530,o),
(281,530,cs),
(168,530,o),
(42,490,o),
(42,356,cs),
(42,285,o),
(95,244,o),
(225,210,cs),
(292,193,o),
(314,180,o),
(314,157,cs),
(314,103,o),
(245,97,o),
(205,97,cs),
(144,97,o),
(90,110,o),
(28,138,c),
(-2,32,l),
(53,5,o),
(131,-10,o),
(207,-10,cs)
);
}
);
width = 502;
},
{
anchors = (
{
name = bottom;
position = "{201, 0}";
},
{
name = cedi;
position = "{144, 0}";
},
{
name = top;
position = "{201, 520}";
}
);
layerId = "E063002F-8124-4781-80CF-71870B1E9574";
shapes = (
{
closed = 1;
nodes = (
(304,-10,o),
(431,34,o),
(431,160,cs),
(431,236,o),
(362,273,o),
(251,300,cs),
(172,320,o),
(128,337,o),
(128,379,cs),
(128,452,o),
(218,463,o),
(273,463,cs),
(334,463,o),
(397,451,o),
(441,429,c),
(462,494,l),
(415,516,o),
(340,530,o),
(274,530,cs),
(170,530,o),
(49,492,o),
(49,369,cs),
(49,297,o),
(112,262,o),
(225,233,c),
(309,213,o),
(353,195,o),
(353,151,cs),
(353,72,o),
(259,57,o),
(198,57,cs),
(136,57,o),
(78,71,o),
(24,97,c),
(3,32,l),
(53,5,o),
(127,-10,o),
(198,-10,cs)
);
}
);
width = 489;
},
{
anchors = (
{
name = bottom;
position = "{227, 0}";
},
{
name = cedi;
position = "{168, 0}";
},
{
name = top;
position = "{227, 520}";
}
);
layerId = "37038833-C6D5-47D2-ABBD-9B6DC00A3C68";
associatedMasterId = "E3F1C297-59E6-4938-934E-5A7468ADCF5D";
name = "Dec 5 20, 15:22";
shapes = (
{
closed = 1;
nodes = (
(341,-10,o),
(412,42,o),
(412,130,cs),
(412,231,o),
(315,256,o),
(226,279,cs),
(140,301,o),
(62,321,o),
(62,400,cs),
(62,469,o),
(121,510,o),
(222,510,cs),
(282,510,o),
(351,496,o),
(387,476,c),
(397,494,l),
(357,515,o),
(284,530,o),
(222,530,cs),
(111,530,o),
(42,481,o),
(42,400,cs),
(42,305,o),
(135,282,o),
(221,260,cs),
(310,237,o),
(392,216,o),
(392,130,cs),
(392,54,o),
(330,10,o),
(222,10,cs),
(160,10,o),
(101,24,o),
(53,49,c),
(43,31,l),
(95,4,o),
(158,-10,o),
(222,-10,cs)
);
}
);
width = 454;
},
{
anchors = (
{
name = bottom;
position = "{195, 0}";
},
{
name = cedi;
position = "{137, 0}";
},
{
name = top;
position = "{195, 520}";
}
);
background = {
shapes = (
{
closed = 0;
nodes = (
(49,40,l),
(103,14,o),
(169,0,o),
(237,0,cs),
(360,0,o),
(433,48,o),
(433,130,cs),
(433,315,o),
(53,224,o),
(53,400,cs),
(53,475,o),
(122,520,o),
(237,520,cs),
(305,520,o),
(382,505,o),
(422,485,c)
);
}
);
};
layerId = "E3F1C297-59E6-4938-934E-5A7468ADCF5D";
shapes = (
{
closed = 1;
nodes = (
(289,-10,o),
(410,30,o),
(410,150,cs),
(410,235,o),
(318,258,o),
(234,279,cs),
(151,300,o),
(76,318,o),
(76,385,cs),
(76,483,o),
(182,510,o),
(262,510,cs),
(326,510,o),
(398,496,o),
(434,476,c),
(444,494,l),
(406,515,o),
(331,530,o),
(265,530,cs),
(173,530,o),
(56,493,o),
(56,382,cs),
(56,302,o),
(144,280,o),
(226,259,cs),
(311,238,o),
(390,219,o),
(390,146,cs),
(390,40,o),
(277,10,o),
(191,10,cs),
(125,10,o),
(65,24,o),
(17,49,c),
(6,31,l),
(56,4,o),
(120,-10,o),
(188,-10,cs)
);
}
);
width = 473;
}
);
leftKerningGroup = s;
rightKerningGroup = s;
unicode = 115;
}
{
color = 11;
glyphname = t;
layers = (
{
anchors = (
{
name = bottom;
position = "{238, 0}";
},
{
name = cedi;
position = "{235, 0}";
},
{
name = center;
position = "{242, 260}";
},
{
name = top;
position = "{242, 520}";
},
{
name = topright;
position = "{462, 520}";
}
);
layerId = "06A68DC2-D92F-41F3-8192-CE0142159756";
name = "Medium.Dec 5 20, 15:36";
shapes = (
{
closed = 1;
nodes = (
(342,-10,o),
(381,-5,o),
(427,8,c),
(417,100,l),
(386,90,o),
(353,85,o),
(325,85,cs),
(269,85,o),
(250,106,o),
(250,170,cs),
(250,430,l),
(427,430,l),
(427,520,l),
(250,520,l),
(250,690,l),
(141,690,l),
(141,520,l),
(18,520,l),
(18,430,l),
(141,430,l),
(141,150,ls),
(141,35,o),
(186,-10,o),
(303,-10,cs)
);
}
);
width = 473;
},
{
anchors = (
{
name = bottom;
position = "{219, 0}";
},
{
name = cedi;
position = "{180, 0}";
},
{
name = center;
position = "{219, 260}";
},
{
name = top;
position = "{219, 520}";
},
{
name = topright;
position = "{465, 520}";
}
);
layerId = "85FAA1A3-2184-4466-B7C1-269FA7F78F7B";
shapes = (
{
closed = 1;
nodes = (
(315,-10,o),
(364,-4,o),
(422,10,c),
(428,155,l),
(399,147,o),
(357,140,o),
(333,140,cs),
(301,140,o),
(294,152,o),
(301,200,cs),
(326,380,l),
(477,380,l),
(497,520,l),
(346,520,l),
(371,690,l),
(177,690,l),
(153,520,l),
(46,520,l),
(26,380,l),
(133,380,l),
(102,160,ls),
(84,38,o),
(132,-10,o),
(268,-10,cs)
);
}
);
width = 511;
},
{
anchors = (
{
name = bottom;
position = "{220, 0}";
},
{
name = cedi;
position = "{197, 0}";
},
{
name = center;
position = "{220, 260}";
},
{
name = top;
position = "{220, 520}";
},
{
name = topright;
position = "{445, 520}";
}
);
layerId = "840EB1FB-AC3A-40D2-8862-608CEC91F102";
shapes = (
{
closed = 1;
nodes = (
(321,-10,o),
(365,-5,o),
(416,9,c),
(419,118,l),
(387,109,o),
(350,103,o),
(323,103,cs),
(272,103,o),
(258,121,o),
(267,180,cs),
(300,413,l),
(475,413,l),
(490,520,l),
(315,520,l),
(340,690,l),
(205,690,l),
(181,520,l),
(60,520,l),
(45,413,l),
(165,413,l),
(128,153,ls),
(111,35,o),
(154,-10,o),
(278,-10,cs)
);
}
);
width = 489;
},
{
anchors = (
{
name = bottom;
position = "{212, 0}";
},
{
name = cedi;
position = "{204, 0}";
},
{
name = center;
position = "{212, 260}";
},
{
name = top;
position = "{212, 520}";
},
{
name = topright;
position = "{415, 520}";
}
);
layerId = "E063002F-8124-4781-80CF-71870B1E9574";
shapes = (
{
closed = 1;
nodes = (
(318,-10,o),
(357,-5,o),
(400,7,c),
(401,75,l),
(367,65,o),
(334,60,o),
(303,60,cs),
(233,60,o),
(213,84,o),
(224,160,cs),
(266,453,l),
(463,453,l),
(472,520,l),
(275,520,l),
(300,690,l),
(223,690,l),
(198,520,l),
(64,520,l),
(54,453,l),
(189,453,l),
(145,147,ls),
(129,33,o),
(165,-10,o),
(279,-10,cs)
);
}
);
width = 476;
},
{
anchors = (
{
name = bottom;
position = "{203, 0}";
},
{
name = cedi;
position = "{211, 0}";
},
{
name = center;
position = "{203, 260}";
},
{
name = top;
position = "{203, 520}";
},
{
name = topright;
position = "{385, 520}";
}
);
layerId = "E3F1C297-59E6-4938-934E-5A7468ADCF5D";
shapes = (
{
closed = 1;
nodes = (
(315,-10,o),
(349,-5,o),
(384,5,c),
(381,24,l),
(348,15,o),
(316,10,o),
(282,10,cs),
(191,10,o),
(167,41,o),
(181,140,cs),
(232,500,l),
(453,500,l),
(455,520,l),
(235,520,l),
(259,690,l),
(240,690,l),
(216,520,l),
(67,520,l),
(65,500,l),
(213,500,l),
(161,140,ls),
(146,30,o),
(177,-10,o),
(279,-10,cs)
);
}
);
width = 466;
}
);
leftKerningGroup = f;
rightKerningGroup = c;
unicode = 116;
}
{
color = 11;
glyphname = u;
layers = (
{
anchors = (
{
name = bottom;
position = "{259, 0}";
},
{
name = ogonek;
position = "{510, 0}";
},
{
name = top;
position = "{259, 520}";
},
{
name = top_ring;
position = "{259, 540}";
},
{
name = topright;
position = "{481, 480}";
}
);
layerId = "85FAA1A3-2184-4466-B7C1-269FA7F78F7B";
shapes = (
{
closed = 1;
nodes = (
(234,-10,o),
(280,10,o),
(334,60,c),
(336,60,l),
(329,0,l),
(510,0,l),
(584,520,l),
(393,520,l),
(350,220,ls),
(345,179,o),
(309,150,o),
(268,150,cs),
(230,150,o),
(219,175,o),
(228,240,cs),
(268,520,l),
(77,520,l),
(32,200,ls),
(11,53,o),
(52,-10,o),
(168,-10,cs)
);
}
);
width = 609;
},
{
anchors = (
{
name = bottom;
position = "{249, 0}";
},
{
name = ogonek;
position = "{479, 0}";
},
{
name = top;
position = "{249, 520}";
},
{
name = top_ring;
position = "{249, 540}";
},
{
name = topright;
position = "{459, 480}";
}
);
layerId = "840EB1FB-AC3A-40D2-8862-608CEC91F102";
shapes = (
{
closed = 1;
nodes = (
(246,-10,o),
(308,17,o),
(358,71,c),
(360,71,l),
(351,0,l),
(479,0,l),
(553,520,l),
(419,520,l),
(380,243,ls),
(369,168,o),
(302,103,o),
(237,103,cs),
(184,103,o),
(165,144,o),
(177,227,cs),
(219,520,l),
(85,520,l),
(39,200,ls),
(19,57,o),
(62,-10,o),
(175,-10,cs)
);
}
);
width = 586;
},
{
anchors = (
{
name = bottom;
position = "{237, 0}";
},
{
name = ogonek;
position = "{447, 0}";
},
{
name = top;
position = "{237, 520}";
},
{
name = top_ring;
position = "{237, 540}";
},
{
name = topright;
position = "{438, 480}";
}
);
layerId = "E063002F-8124-4781-80CF-71870B1E9574";
shapes = (
{
closed = 1;
nodes = (
(260,-10,o),
(335,26,o),
(383,87,c),
(385,87,l),
(373,0,l),
(446,0,l),
(521,520,l),
(444,520,l),
(405,247,ls),
(390,144,o),
(301,57,o),
(210,57,cs),
(139,57,o),
(110,110,o),
(125,214,cs),
(169,520,l),
(92,520,l),
(46,200,ls),
(26,59,o),
(71,-10,o),
(181,-10,cs)
);
}
);
width = 563;
},
{
anchors = (
{
name = bottom;
position = "{279, 0}";
},
{
name = ogonek;
position = "{484, 0}";
},
{
name = top;
position = "{279, 520}";
},
{
name = top_ring;
position = "{279, 540}";
},
{
name = topright;
position = "{480, 480}";
}
);
layerId = "197DEB4F-431F-44AB-9E75-DFE960AF7369";
partSelection = {
Wt = 2;
};
associatedMasterId = "E3F1C297-59E6-4938-934E-5A7468ADCF5D";
shapes = (
{
closed = 1;
nodes = (
(318,-10,o),
(396,32,o),
(435,98,c),
(437,98,l),
(437,0,l),
(484,0,l),
(484,520,l),
(435,520,l),
(435,238,ls),
(435,125,o),
(349,33,o),
(242,33,cs),
(157,33,o),
(114,92,o),
(114,207,cs),
(114,520,l),
(65,520,l),
(65,200,ls),
(65,60,o),
(120,-10,o),
(232,-10,cs)
);
}
);
width = 565;
},
{
anchors = (
{
name = bottom;
position = "{223, 0}";
},
{
name = ogonek;
position = "{414, 0}";
},
{
name = top;
position = "{223, 520}";
},
{
name = top_ring;
position = "{223, 540}";
},
{
name = topright;
position = "{414, 480}";
}
);
layerId = "E3F1C297-59E6-4938-934E-5A7468ADCF5D";
shapes = (
{
closed = 1;
nodes = (
(275,-10,o),
(362,44,o),
(412,132,c),
(414,132,l),
(395,0,l),
(414,0,l),
(489,520,l),
(469,520,l),
(428,230,ls),
(410,107,o),
(305,10,o),
(188,10,cs),
(93,10,o),
(54,74,o),
(72,200,cs),
(118,520,l),
(99,520,l),
(53,200,ls),
(33,64,o),
(78,-10,o),
(185,-10,cs)
);
}
);
width = 540;
}
);
partsSettings = (
{
bottomValue = 0;
name = Wt;
topValue = 1000;
}
);
leftKerningGroup = u;
rightKerningGroup = u;
unicode = 117;
}
{
color = 11;
glyphname = v;
layers = (
{
layerId = "85FAA1A3-2184-4466-B7C1-269FA7F78F7B";
shapes = (
{
closed = 1;
nodes = (
(378,0,l),
(600,520,l),
(404,520,l),
(263,120,l),
(261,120,l),
(234,520,l),
(37,520,l),
(111,0,l)
);
}
);
width = 573;
},
{
layerId = "840EB1FB-AC3A-40D2-8862-608CEC91F102";
shapes = (
{
closed = 1;
nodes = (
(327,0,l),
(571,520,l),
(429,520,l),
(247,92,l),
(245,92,l),
(185,520,l),
(43,520,l),
(138,0,l)
);
}
);
width = 550;
},
{
layerId = "E063002F-8124-4781-80CF-71870B1E9574";
shapes = (
{
closed = 1;
nodes = (
(270,0,l),
(537,520,l),
(453,520,l),
(225,58,l),
(223,58,l),
(128,520,l),
(44,520,l),
(162,0,l)
);
}
);
width = 517;
},
{
layerId = "E3F1C297-59E6-4938-934E-5A7468ADCF5D";
shapes = (
{
closed = 1;
nodes = (
(215,0,l),
(504,520,l),
(482,520,l),
(204,17,l),
(202,17,l),
(67,520,l),
(46,520,l),
(186,0,l)
);
}
);
width = 485;
}
);
leftKerningGroup = v;
rightKerningGroup = v;
unicode = 118;
}
{
color = 11;
glyphname = w;
layers = (
{
anchors = (
{
name = bottom;
position = "{363, 0}";
},
{
name = top;
position = "{363, 520}";
}
);
layerId = "85FAA1A3-2184-4466-B7C1-269FA7F78F7B";
shapes = (
{
closed = 1;
nodes = (
(319,0,l),
(412,350,l),
(414,350,l),
(407,0,l),
(636,0,l),
(829,520,l),
(640,520,l),
(549,170,l),
(547,170,l),
(552,520,l),
(322,520,l),
(227,170,l),
(225,170,l),
(234,520,l),
(45,520,l),
(90,0,l)
);
}
);
width = 809;
},
{
anchors = (
{
name = bottom;
position = "{352, 0}";
},
{
name = top;
position = "{352, 520}";
}
);
layerId = "840EB1FB-AC3A-40D2-8862-608CEC91F102";
shapes = (
{
closed = 1;
nodes = (
(278,0,l),
(405,387,l),
(407,387,l),
(424,0,l),
(592,0,l),
(798,520,l),
(657,520,l),
(530,127,l),
(528,127,l),
(511,520,l),
(340,520,l),
(211,127,l),
(209,127,l),
(193,520,l),
(54,520,l),
(111,0,l)
);
}
);
width = 787;
},
{
anchors = (
{
name = bottom;
position = "{333, 0}";
},
{
name = top;
position = "{333, 520}";
}
);
layerId = "E063002F-8124-4781-80CF-71870B1E9574";
shapes = (
{
closed = 1;
nodes = (
(226,0,l),
(395,436,l),
(397,436,l),
(441,0,l),
(541,0,l),
(760,520,l),
(676,520,l),
(505,77,l),
(503,77,l),
(460,520,l),
(355,520,l),
(186,77,l),
(184,77,l),
(140,520,l),
(56,520,l),
(126,0,l)
);
}
);
width = 751;
},
{
anchors = (
{
name = bottom;
position = "{316, 0}";
},
{
name = top;
position = "{316, 520}";
}
);
layerId = "E3F1C297-59E6-4938-934E-5A7468ADCF5D";
shapes = (
{
closed = 1;
nodes = (
(170,0,l),
(386,499,l),
(388,499,l),
(462,0,l),
(491,0,l),
(722,520,l),
(701,520,l),
(481,21,l),
(479,21,l),
(405,520,l),
(376,520,l),
(159,21,l),
(157,21,l),
(79,520,l),
(59,520,l),
(140,0,l)
);
}
);
width = 716;
}
);
leftKerningGroup = v;
rightKerningGroup = v;
unicode = 119;
}
{
color = 11;
glyphname = x;
layers = (
{
layerId = "85FAA1A3-2184-4466-B7C1-269FA7F78F7B";
shapes = (
{
closed = 1;
nodes = (
(175,0,l),
(267,160,l),
(269,160,l),
(314,0,l),
(511,0,l),
(413,260,l),
(583,520,l),
(386,520,l),
(297,360,l),
(295,360,l),
(251,520,l),
(54,520,l),
(150,260,l),
(-21,0,l)
);
}
);
width = 573;
},
{
layerId = "840EB1FB-AC3A-40D2-8862-608CEC91F102";
shapes = (
{
closed = 1;
nodes = (
(131,0,l),
(259,189,l),
(261,189,l),
(336,0,l),
(483,0,l),
(363,261,l),
(554,520,l),
(407,520,l),
(282,333,l),
(280,333,l),
(207,520,l),
(60,520,l),
(178,261,l),
(-16,0,l)
);
}
);
width = 551;
},
{
layerId = "E063002F-8124-4781-80CF-71870B1E9574";
shapes = (
{
closed = 1;
nodes = (
(77,0,l),
(249,218,l),
(251,218,l),
(363,0,l),
(451,0,l),
(309,262,l),
(522,520,l),
(433,520,l),
(264,306,l),
(262,306,l),
(154,520,l),
(65,520,l),
(205,262,l),
(-13,0,l)
);
}
);
width = 523;
},
{
layerId = "E3F1C297-59E6-4938-934E-5A7468ADCF5D";
shapes = (
{
closed = 1;
nodes = (
(17,0,l),
(240,247,l),
(242,247,l),
(395,0,l),
(420,0,l),
(256,263,l),
(489,520,l),
(464,520,l),
(247,279,l),
(245,279,l),
(95,520,l),
(70,520,l),
(231,263,l),
(-9,0,l)
);
}
);
width = 496;
}
);
leftKerningGroup = x;
rightKerningGroup = x;
unicode = 120;
}
{
color = 11;
glyphname = y;
layers = (
{
anchors = (
{
name = bottom;
position = "{247, 0}";
},
{
name = dotR;
position = "{377, -210}";
},
{
name = top;
position = "{247, 520}";
}
);
layerId = "85FAA1A3-2184-4466-B7C1-269FA7F78F7B";
shapes = (
{
closed = 1;
nodes = (
(609,520,l),
(404,520,l),
(276,170,l),
(274,170,l),
(238,520,l),
(33,520,l),
(155,0,l),
(49,-210,l),
(249,-210,l)
);
}
);
width = 577;
},
{
anchors = (
{
name = bottom;
position = "{244, 0}";
},
{
name = dotR;
position = "{338, -210}";
},
{
name = top;
position = "{244, 520}";
}
);
layerId = "840EB1FB-AC3A-40D2-8862-608CEC91F102";
shapes = (
{
closed = 1;
nodes = (
(589,520,l),
(446,520,l),
(265,135,l),
(263,135,l),
(193,520,l),
(49,519,l),
(178,3,l),
(63,-210,l),
(204,-210,l)
);
}
);
width = 567;
},
{
anchors = (
{
name = bottom;
position = "{227, 0}";
},
{
name = dotR;
position = "{285, -210}";
},
{
name = top;
position = "{227, 520}";
}
);
layerId = "E063002F-8124-4781-80CF-71870B1E9574";
shapes = (
{
closed = 1;
nodes = (
(556,520,l),
(473,520,l),
(238,90,l),
(236,90,l),
(134,520,l),
(51,519,l),
(187,6,l),
(64,-210,l),
(145,-210,l)
);
}
);
width = 535;
},
{
anchors = (
{
name = bottom;
position = "{211, 0}";
},
{
name = dotR;
position = "{232, -210}";
},
{
name = top;
position = "{211, 520}";
}
);
layerId = "E3F1C297-59E6-4938-934E-5A7468ADCF5D";
shapes = (
{
closed = 1;
nodes = (
(524,520,l),
(501,520,l),
(212,35,l),
(210,35,l),
(76,520,l),
(54,518,l),
(196,9,l),
(65,-210,l),
(86,-210,l)
);
}
);
width = 505;
}
);
leftKerningGroup = v;
rightKerningGroup = v;
unicode = 121;
}
{
color = 11;
glyphname = z;
layers = (
{
anchors = (
{
name = bottom;
position = "{264, 0}";
},
{
name = center;
position = "{264, 260}";
},
{
name = top;
position = "{264, 520}";
}
);
layerId = "8473AFB6-9108-4194-BCDA-FD380D14785A";
name = "Medium.Dec 5 20, 16:52";
shapes = (
{
closed = 1;
nodes = (
(474,0,l),
(474,90,l),
(190,90,l),
(190,92,l),
(474,430,l),
(474,520,l),
(54,520,l),
(54,430,l),
(338,430,l),
(338,428,l),
(54,90,l),
(54,0,l)
);
}
);
width = 528;
},
{
anchors = (
{
name = bottom;
position = "{238, 0}";
},
{
name = center;
position = "{238, 260}";
},
{
name = top;
position = "{238, 520}";
}
);
layerId = "85FAA1A3-2184-4466-B7C1-269FA7F78F7B";
shapes = (
{
closed = 1;
nodes = (
(467,0,l),
(487,140,l),
(270,140,l),
(270,142,l),
(521,380,l),
(541,520,l),
(83,520,l),
(63,380,l),
(280,380,l),
(280,378,l),
(29,140,l),
(9,0,l)
);
}
);
width = 560;
},
{
anchors = (
{
name = bottom;
position = "{213, 0}";
},
{
name = center;
position = "{213, 260}";
},
{
name = top;
position = "{213, 520}";
}
);
layerId = "840EB1FB-AC3A-40D2-8862-608CEC91F102";
shapes = (
{
closed = 1;
nodes = (
(430,0,l),
(445,107,l),
(185,107,l),
(185,109,l),
(489,413,l),
(504,520,l),
(71,520,l),
(56,413,l),
(316,413,l),
(316,411,l),
(12,107,l),
(-3,0,l)
);
}
);
width = 511;
},
{
anchors = (
{
name = bottom;
position = "{206, 0}";
},
{
name = center;
position = "{206, 260}";
},
{
name = top;
position = "{206, 520}";
}
);
layerId = "E063002F-8124-4781-80CF-71870B1E9574";
shapes = (
{
closed = 1;
nodes = (
(409,0,l),
(419,67,l),
(113,67,l),
(113,69,l),
(474,453,l),
(484,520,l),
(77,520,l),
(68,453,l),
(374,453,l),
(373,451,l),
(12,67,l),
(3,0,l)
);
}
);
width = 496;
},
{
anchors = (
{
name = bottom;
position = "{198, 0}";
},
{
name = center;
position = "{198, 260}";
},
{
name = top;
position = "{198, 520}";
}
);
layerId = "E3F1C297-59E6-4938-934E-5A7468ADCF5D";
shapes = (
{
closed = 1;
nodes = (
(388,0,l),
(391,20,l),
(37,20,l),
(37,22,l),
(459,500,l),
(462,520,l),
(82,520,l),
(79,500,l),
(433,500,l),
(433,498,l),
(11,20,l),
(8,0,l)
);
}
);
width = 480;
}
);
leftKerningGroup = z;
rightKerningGroup = z;
unicode = 122;
}
{
color = 10;
glyphname = braceleft;
layers = (
{
layerId = "85FAA1A3-2184-4466-B7C1-269FA7F78F7B";
shapes = (
{
closed = 1;
nodes = (
(412,-110,l),
(431,20,l),
(392,20,ls),
(310,20,o),
(305,26,o),
(317,110,cs),
(323,155,ls),
(337,253,o),
(312,301,o),
(231,329,c),
(231,331,l),
(320,359,o),
(359,407,o),
(373,505,cs),
(380,550,ls),
(392,634,o),
(398,640,o),
(480,640,cs),
(519,640,l),
(538,770,l),
(411,770,ls),
(293,770,o),
(238,721,o),
(221,600,cs),
(209,520,ls),
(198,438,o),
(172,410,o),
(107,410,cs),
(68,410,l),
(45,250,l),
(84,250,ls),
(149,250,o),
(167,222,o),
(155,140,cs),
(144,60,ls),
(126,-61,o),
(167,-110,o),
(285,-110,cs)
);
}
);
width = 528;
},
{
layerId = "840EB1FB-AC3A-40D2-8862-608CEC91F102";
shapes = (
{
closed = 1;
nodes = (
(372,-110,l),
(388,-3,l),
(343,-3,ls),
(265,-3,o),
(253,11,o),
(265,97,cs),
(275,166,ls),
(287,255,o),
(266,303,o),
(201,329,c),
(201,331,l),
(274,357,o),
(309,405,o),
(322,494,cs),
(331,563,ls),
(344,649,o),
(360,663,o),
(438,663,cs),
(483,663,l),
(498,770,l),
(388,770,ls),
(282,770,o),
(231,724,o),
(215,610,cs),
(200,507,ls),
(189,426,o),
(158,390,o),
(100,390,cs),
(58,390,l),
(41,270,l),
(83,270,ls),
(141,270,o),
(161,234,o),
(150,153,cs),
(135,50,ls),
(119,-64,o),
(156,-110,o),
(262,-110,cs)
);
}
);
width = 487;
},
{
layerId = "E063002F-8124-4781-80CF-71870B1E9574";
shapes = (
{
closed = 1;
nodes = (
(347,-110,l),
(357,-40,l),
(298,-40,ls),
(224,-40,o),
(207,-16,o),
(219,70,cs),
(234,178,ls),
(246,257,o),
(228,305,o),
(177,329,c),
(177,331,l),
(235,355,o),
(267,403,o),
(278,482,cs),
(293,590,ls),
(306,676,o),
(330,700,o),
(404,700,cs),
(463,700,l),
(473,770,l),
(378,770,ls),
(284,770,o),
(238,726,o),
(223,620,cs),
(204,490,ls),
(193,410,o),
(158,367,o),
(105,367,cs),
(60,367,l),
(50,293,l),
(95,293,ls),
(148,293,o),
(170,250,o),
(158,170,cs),
(140,40,ls),
(125,-66,o),
(158,-110,o),
(252,-110,cs)
);
}
);
width = 470;
},
{
layerId = "E3F1C297-59E6-4938-934E-5A7468ADCF5D";
shapes = (
{
closed = 1;
nodes = (
(319,-110,l),
(322,-90,l),
(244,-90,ls),
(174,-90,o),
(152,-57,o),
(164,30,cs),
(187,190,ls),
(197,258,o),
(181,308,o),
(147,329,c),
(147,331,l),
(187,352,o),
(217,402,o),
(227,470,cs),
(250,630,ls),
(262,717,o),
(294,750,o),
(364,750,cs),
(442,750,l),
(445,770,l),
(367,770,ls),
(285,770,o),
(244,727,o),
(230,630,cs),
(207,470,ls),
(196,391,o),
(158,340,o),
(111,340,cs),
(63,340,l),
(60,320,l),
(108,320,ls),
(155,320,o),
(178,269,o),
(167,190,cs),
(144,30,ls),
(130,-67,o),
(159,-110,o),
(241,-110,cs)
);
}
);
width = 450;
}
);
leftKerningGroup = "-";
rightKerningGroup = bracketin;
unicode = 123;
}
{
color = 10;
glyphname = bar;
layers = (
{
layerId = "85FAA1A3-2184-4466-B7C1-269FA7F78F7B";
shapes = (
{
closed = 1;
nodes = (
(191,-210,l),
(337,810,l),
(172,810,l),
(26,-210,l)
);
}
);
width = 360;
},
{
layerId = "840EB1FB-AC3A-40D2-8862-608CEC91F102";
shapes = (
{
closed = 1;
nodes = (
(148,-210,l),
(294,810,l),
(171,810,l),
(25,-210,l)
);
}
);
width = 316;
},
{
layerId = "E063002F-8124-4781-80CF-71870B1E9574";
shapes = (
{
closed = 1;
nodes = (
(111,-210,l),
(257,810,l),
(183,810,l),
(37,-210,l)
);
}
);
width = 292;
},
{
layerId = "E3F1C297-59E6-4938-934E-5A7468ADCF5D";
shapes = (
{
closed = 1;
nodes = (
(70,-210,l),
(216,810,l),
(197,810,l),
(51,-210,l)
);
}
);
width = 264;
}
);
leftKerningGroup = I;
rightKerningGroup = I;
unicode = 124;
}
{
color = 10;
glyphname = braceright;
layers = (
{
layerId = "85FAA1A3-2184-4466-B7C1-269FA7F78F7B";
shapes = (
{
closed = 1;
nodes = (
(126,-110,ls),
(244,-110,o),
(299,-61,o),
(317,60,cs),
(328,140,ls),
(340,222,o),
(366,250,o),
(432,250,cs),
(471,250,l),
(494,410,l),
(455,410,ls),
(389,410,o),
(371,438,o),
(382,520,cs),
(394,600,ls),
(411,721,o),
(370,770,o),
(252,770,cs),
(126,770,l),
(107,640,l),
(146,640,ls),
(227,640,o),
(233,634,o),
(221,550,cs),
(214,505,ls),
(200,407,o),
(225,359,o),
(306,331,c),
(306,329,l),
(217,301,o),
(178,253,o),
(164,155,cs),
(158,110,ls),
(146,26,o),
(139,20,o),
(58,20,cs),
(19,20,l),
(0,-110,l)
);
}
);
width = 527;
},
{
layerId = "840EB1FB-AC3A-40D2-8862-608CEC91F102";
shapes = (
{
closed = 1;
nodes = (
(109,-110,ls),
(214,-110,o),
(265,-64,o),
(281,50,cs),
(296,153,ls),
(307,234,o),
(339,270,o),
(398,270,cs),
(440,270,l),
(457,390,l),
(415,390,ls),
(356,390,o),
(335,426,o),
(346,507,cs),
(361,610,ls),
(377,724,o),
(340,770,o),
(235,770,cs),
(125,770,l),
(110,663,l),
(154,663,ls),
(232,663,o),
(244,649,o),
(231,563,cs),
(222,494,ls),
(209,405,o),
(230,357,o),
(296,331,c),
(296,329,l),
(222,303,o),
(187,255,o),
(175,166,cs),
(165,97,ls),
(153,11,o),
(137,-3,o),
(59,-3,cs),
(15,-3,l),
(-1,-110,l)
);
}
);
width = 486;
},
{
layerId = "E063002F-8124-4781-80CF-71870B1E9574";
shapes = (
{
closed = 1;
nodes = (
(102,-110,ls),
(196,-110,o),
(242,-66,o),
(257,40,cs),
(275,170,ls),
(287,250,o),
(322,293,o),
(374,293,cs),
(420,293,l),
(430,367,l),
(384,367,ls),
(332,367,o),
(310,410,o),
(321,490,cs),
(340,620,ls),
(355,726,o),
(322,770,o),
(228,770,cs),
(133,770,l),
(123,700,l),
(182,700,ls),
(256,700,o),
(273,676,o),
(260,590,cs),
(245,482,ls),
(234,403,o),
(253,355,o),
(302,331,c),
(302,329,l),
(246,305,o),
(213,257,o),
(201,178,cs),
(186,70,ls),
(174,-16,o),
(150,-40,o),
(76,-40,cs),
(17,-40,l),
(7,-110,l)
);
}
);
width = 469;
},
{
layerId = "E3F1C297-59E6-4938-934E-5A7468ADCF5D";
shapes = (
{
closed = 1;
nodes = (
(93,-110,ls),
(175,-110,o),
(216,-67,o),
(230,30,cs),
(253,190,ls),
(264,269,o),
(303,320,o),
(350,320,cs),
(399,320,l),
(402,340,l),
(353,340,ls),
(306,340,o),
(282,391,o),
(293,470,cs),
(316,630,ls),
(330,727,o),
(301,770,o),
(219,770,cs),
(141,770,l),
(138,750,l),
(216,750,ls),
(286,750,o),
(309,717,o),
(297,630,cs),
(274,470,ls),
(264,402,o),
(279,352,o),
(313,331,c),
(313,329,l),
(273,308,o),
(244,258,o),
(234,190,cs),
(211,30,ls),
(199,-57,o),
(166,-90,o),
(96,-90,cs),
(18,-90,l),
(15,-110,l)
);
}
);
width = 450;
}
);
leftKerningGroup = bracketin;
rightKerningGroup = "-";
unicode = 125;
}
{
color = 10;
glyphname = asciitilde;
leftMetricsKey = plus;
rightMetricsKey = "=|";
layers = (
{
layerId = "85FAA1A3-2184-4466-B7C1-269FA7F78F7B";
shapes = (
{
closed = 1;
nodes = (
(201,190,l),
(201,257,o),
(210,270,o),
(231,270,cs),
(246,270,o),
(272,263,o),
(311,245,cs),
(395,206,o),
(460,190,o),
(521,190,cs),
(624,190,o),
(681,258,o),
(681,420,c),
(521,420,l),
(521,363,o),
(512,350,o),
(491,350,cs),
(476,350,o),
(450,357,o),
(411,375,cs),
(327,414,o),
(262,430,o),
(201,430,cs),
(98,430,o),
(41,362,o),
(41,190,c)
);
}
);
width = 720;
},
{
layerId = "840EB1FB-AC3A-40D2-8862-608CEC91F102";
shapes = (
{
closed = 1;
nodes = (
(152,205,l),
(152,268,o),
(163,285,o),
(197,285,cs),
(222,285,o),
(254,276,o),
(307,252,cs),
(389,216,o),
(454,199,o),
(507,199,cs),
(600,199,o),
(648,261,o),
(648,399,c),
(531,399,l),
(531,339,o),
(520,323,o),
(486,323,cs),
(461,323,o),
(429,332,o),
(376,355,cs),
(293,391,o),
(229,409,o),
(176,409,cs),
(82,409,o),
(35,346,o),
(35,205,c)
);
}
);
width = 682;
},
{
layerId = "E063002F-8124-4781-80CF-71870B1E9574";
shapes = (
{
closed = 1;
nodes = (
(113,220,l),
(113,286,o),
(130,310,o),
(176,310,cs),
(209,310,o),
(249,298,o),
(316,268,cs),
(399,231,o),
(460,214,o),
(506,214,cs),
(581,214,o),
(629,261,o),
(629,377,c),
(558,377,l),
(558,314,o),
(541,291,o),
(495,291,cs),
(463,291,o),
(422,303,o),
(355,333,cs),
(272,369,o),
(212,387,o),
(165,387,cs),
(83,387,o),
(42,332,o),
(42,220,c)
);
}
);
width = 671;
},
{
layerId = "E3F1C297-59E6-4938-934E-5A7468ADCF5D";
shapes = (
{
closed = 1;
nodes = (
(69,235,l),
(69,311,o),
(95,345,o),
(154,345,cs),
(192,345,o),
(243,329,o),
(325,291,cs),
(409,252,o),
(463,235,o),
(504,235,cs),
(552,235,o),
(609,256,o),
(609,355,c),
(589,355,l),
(589,288,o),
(561,255,o),
(504,255,cs),
(466,255,o),
(415,271,o),
(333,309,cs),
(249,348,o),
(195,365,o),
(154,365,cs),
(84,365,o),
(49,321,o),
(49,235,c)
);
}
);
width = 659;
}
);
leftKerningGroup = "-";
rightKerningGroup = "-";
unicode = 126;
}
{
color = 3;
glyphname = cent;
layers = (
{
layerId = "85FAA1A3-2184-4466-B7C1-269FA7F78F7B";
shapes = (
{
closed = 1;
nodes = (
(365,-10,o),
(418,1,o),
(488,30,c),
(469,165,l),
(414,142,o),
(365,130,o),
(320,130,cs),
(245,130,o),
(207,164,o),
(207,230,cs),
(207,325,o),
(256,390,o),
(357,390,cs),
(402,390,o),
(448,378,o),
(496,355,c),
(554,490,l),
(492,519,o),
(442,530,o),
(373,530,cs),
(172,530,o),
(19,421,o),
(19,211,cs),
(19,70,o),
(117,-10,o),
(296,-10,cs)
);
},
{
closed = 1;
nodes = (
(370,-105,l),
(474,625,l),
(338,625,l),
(234,-105,l)
);
}
);
width = 571;
},
{
layerId = "840EB1FB-AC3A-40D2-8862-608CEC91F102";
shapes = (
{
closed = 1;
nodes = (
(341,-10,o),
(396,2,o),
(455,29,c),
(441,130,l),
(389,108,o),
(341,97,o),
(295,97,cs),
(203,97,o),
(154,141,o),
(154,224,cs),
(154,340,o),
(218,423,o),
(341,423,cs),
(387,423,o),
(433,412,o),
(478,390,c),
(521,491,l),
(470,518,o),
(418,530,o),
(354,530,cs),
(155,530,o),
(23,407,o),
(23,208,cs),
(23,68,o),
(113,-10,o),
(277,-10,cs)
);
},
{
closed = 1;
nodes = (
(324,-105,l),
(428,625,l),
(331,625,l),
(227,-105,l)
);
}
);
width = 545;
},
{
layerId = "E063002F-8124-4781-80CF-71870B1E9574";
shapes = (
{
closed = 1;
nodes = (
(320,-10,o),
(371,2,o),
(425,27,c),
(415,90,l),
(367,67,o),
(319,57,o),
(272,57,cs),
(163,57,o),
(104,115,o),
(104,217,cs),
(104,354,o),
(184,463,o),
(330,463,cs),
(377,463,o),
(422,453,o),
(463,430,c),
(491,493,l),
(445,518,o),
(397,530,o),
(338,530,cs),
(144,530,o),
(28,392,o),
(28,206,cs),
(28,69,o),
(112,-10,o),
(261,-10,cs)
);
},
{
closed = 1;
nodes = (
(283,-105,l),
(387,625,l),
(329,625,l),
(225,-105,l)
);
}
);
width = 522;
},
{
layerId = "E3F1C297-59E6-4938-934E-5A7468ADCF5D";
shapes = (
{
closed = 1;
nodes = (
(298,-10,o),
(343,1,o),
(393,25,c),
(386,43,l),
(339,20,o),
(297,10,o),
(250,10,cs),
(123,10,o),
(51,84,o),
(51,208,cs),
(51,370,o),
(148,510,o),
(322,510,cs),
(369,510,o),
(407,500,o),
(448,477,c),
(460,495,l),
(417,519,o),
(375,530,o),
(325,530,cs),
(139,530,o),
(32,379,o),
(32,205,cs),
(32,71,o),
(112,-10,o),
(248,-10,cs)
);
},
{
closed = 1;
nodes = (
(243,-105,l),
(347,625,l),
(328,625,l),
(224,-105,l)
);
}
);
width = 497;
}
);
leftKerningGroup = o;
rightKerningGroup = c;
unicode = 162;
}
{
color = 3;
glyphname = sterling;
layers = (
{
layerId = "85FAA1A3-2184-4466-B7C1-269FA7F78F7B";
shapes = (
{
closed = 1;
nodes = (
(554,0,l),
(577,160,l),
(270,160,l),
(270,162,l),
(311,178,o),
(343,230,o),
(353,298,cs),
(381,500,ls),
(390,560,o),
(414,580,o),
(481,580,cs),
(522,580,o),
(551,574,o),
(589,555,c),
(636,715,l),
(583,732,o),
(532,740,o),
(479,740,cs),
(312,740,o),
(210,663,o),
(189,520,cs),
(158,298,ls),
(145,213,o),
(107,164,o),
(50,160,c),
(27,0,l)
);
},
{
closed = 1;
nodes = (
(534,306,l),
(554,446,l),
(91,446,l),
(71,306,l)
);
}
);
width = 649;
},
{
layerId = "840EB1FB-AC3A-40D2-8862-608CEC91F102";
shapes = (
{
closed = 1;
nodes = (
(545,0,l),
(562,119,l),
(221,119,l),
(221,121,l),
(266,143,o),
(301,201,o),
(311,271,cs),
(345,511,ls),
(356,589,o),
(396,621,o),
(480,621,cs),
(519,621,o),
(550,615,o),
(584,597,c),
(624,714,l),
(576,732,o),
(531,740,o),
(480,740,cs),
(326,740,o),
(230,665,o),
(211,530,cs),
(174,271,ls),
(161,182,o),
(116,123,o),
(55,119,c),
(38,0,l)
);
},
{
closed = 1;
nodes = (
(531,327,l),
(546,434,l),
(100,434,l),
(85,327,l)
);
}
);
width = 641;
},
{
layerId = "E063002F-8124-4781-80CF-71870B1E9574";
shapes = (
{
closed = 1;
nodes = (
(536,0,l),
(546,72,l),
(170,72,l),
(171,74,l),
(221,103,o),
(257,164,o),
(268,238,cs),
(309,528,ls),
(323,622,o),
(377,668,o),
(478,668,cs),
(517,668,o),
(550,661,o),
(582,644,c),
(610,714,l),
(569,732,o),
(528,740,o),
(481,740,cs),
(340,740,o),
(251,668,o),
(233,540,cs),
(190,238,ls),
(176,140,o),
(120,76,o),
(59,72,c),
(49,0,l)
);
},
{
closed = 1;
nodes = (
(526,352,l),
(536,419,l),
(109,419,l),
(99,352,l)
);
}
);
width = 640;
},
{
layerId = "E3F1C297-59E6-4938-934E-5A7468ADCF5D";
shapes = (
{
closed = 1;
nodes = (
(527,0,l),
(530,20,l),
(119,20,l),
(119,22,l),
(172,56,o),
(213,120,o),
(225,200,cs),
(275,550,ls),
(290,661,o),
(360,720,o),
(479,720,cs),
(517,720,o),
(553,712,o),
(583,696,c),
(593,714,l),
(560,731,o),
(523,740,o),
(482,740,cs),
(353,740,o),
(272,673,o),
(255,550,cs),
(205,200,ls),
(189,89,o),
(119,24,o),
(62,20,c),
(59,0,l)
);
},
{
closed = 1;
nodes = (
(523,380,l),
(526,400,l),
(116,400,l),
(113,380,l)
);
}
);
width = 638;
}
);
leftKerningGroup = equal;
rightKerningGroup = E;
unicode = 163;
}
{
color = 3;
glyphname = currency;
layers = (
{
layerId = "85FAA1A3-2184-4466-B7C1-269FA7F78F7B";
shapes = (
{
closed = 1;
nodes = (
(470,115,o),
(602,253,o),
(602,402,cs),
(602,522,o),
(514,615,o),
(391,615,cs),
(241,615,o),
(108,477,o),
(108,328,cs),
(108,208,o),
(197,115,o),
(319,115,cs)
);
},
{
closed = 1;
nodes = (
(301,280,o),
(271,311,o),
(271,352,cs),
(271,403,o),
(316,450,o),
(367,450,cs),
(409,450,o),
(439,419,o),
(439,378,cs),
(439,327,o),
(394,280,o),
(343,280,cs)
);
},
{
closed = 1;
nodes = (
(259,186,l),
(171,292,l),
(26,163,l),
(114,57,l)
);
},
{
closed = 1;
nodes = (
(626,163,l),
(520,292,l),
(401,186,l),
(508,57,l)
);
},
{
closed = 1;
nodes = (
(310,544,l),
(202,673,l),
(84,567,l),
(192,438,l)
);
},
{
closed = 1;
nodes = (
(684,567,l),
(596,673,l),
(452,544,l),
(541,438,l)
);
}
);
width = 690;
},
{
layerId = "840EB1FB-AC3A-40D2-8862-608CEC91F102";
shapes = (
{
closed = 1;
nodes = (
(462,125,o),
(588,257,o),
(588,400,cs),
(588,516,o),
(503,605,o),
(385,605,cs),
(240,605,o),
(114,473,o),
(114,330,cs),
(114,214,o),
(200,125,o),
(317,125,cs)
);
},
{
closed = 1;
nodes = (
(277,247,o),
(235,291,o),
(235,348,cs),
(235,419,o),
(297,483,o),
(368,483,cs),
(426,483,o),
(467,439,o),
(467,382,cs),
(467,311,o),
(405,247,o),
(334,247,cs)
);
},
{
closed = 1;
nodes = (
(234,190,l),
(167,272,l),
(31,150,l),
(100,70,l)
);
},
{
closed = 1;
nodes = (
(606,150,l),
(506,272,l),
(416,191,l),
(517,70,l)
);
},
{
closed = 1;
nodes = (
(284,538,l),
(184,660,l),
(93,579,l),
(193,457,l)
);
},
{
closed = 1;
nodes = (
(669,579,l),
(601,660,l),
(466,539,l),
(532,457,l)
);
}
);
width = 680;
},
{
layerId = "E063002F-8124-4781-80CF-71870B1E9574";
shapes = (
{
closed = 1;
nodes = (
(448,135,o),
(570,261,o),
(570,398,cs),
(570,510,o),
(489,595,o),
(376,595,cs),
(238,595,o),
(117,468,o),
(117,332,cs),
(117,220,o),
(198,135,o),
(310,135,cs)
);
},
{
closed = 1;
nodes = (
(245,208,o),
(188,267,o),
(188,343,cs),
(188,436,o),
(273,522,o),
(366,522,cs),
(443,522,o),
(499,463,o),
(499,387,cs),
(499,294,o),
(415,208,o),
(321,208,cs)
);
},
{
closed = 1;
nodes = (
(204,198,l),
(164,249,l),
(36,135,l),
(79,85,l)
);
},
{
closed = 1;
nodes = (
(582,135,l),
(488,249,l),
(431,198,l),
(526,85,l)
);
},
{
closed = 1;
nodes = (
(252,530,l),
(159,644,l),
(102,594,l),
(197,480,l)
);
},
{
closed = 1;
nodes = (
(648,594,l),
(606,645,l),
(479,531,l),
(521,480,l)
);
}
);
width = 664;
},
{
layerId = "E3F1C297-59E6-4938-934E-5A7468ADCF5D";
shapes = (
{
closed = 1;
nodes = (
(435,145,o),
(549,266,o),
(549,399,cs),
(549,504,o),
(472,585,o),
(364,585,cs),
(232,585,o),
(115,465,o),
(115,333,cs),
(115,226,o),
(193,145,o),
(301,145,cs)
);
},
{
closed = 1;
nodes = (
(207,165,o),
(135,240,o),
(135,336,cs),
(135,455,o),
(241,565,o),
(361,565,cs),
(458,565,o),
(529,491,o),
(529,394,cs),
(529,276,o),
(424,165,o),
(304,165,cs)
);
},
{
closed = 1;
nodes = (
(172,209,l),
(160,224,l),
(41,118,l),
(54,103,l)
);
},
{
closed = 1;
nodes = (
(552,118,l),
(464,224,l),
(447,209,l),
(536,103,l)
);
},
{
closed = 1;
nodes = (
(216,521,l),
(129,627,l),
(112,613,l),
(200,506,l)
);
},
{
closed = 1;
nodes = (
(622,612,l),
(611,627,l),
(491,521,l),
(504,506,l)
);
}
);
width = 643;
}
);
unicode = 164;
}
{
color = 3;
glyphname = yen;
layers = (
{
layerId = "85FAA1A3-2184-4466-B7C1-269FA7F78F7B";
shapes = (
{
closed = 1;
nodes = (
(395,0,l),
(434,270,l),
(728,730,l),
(513,730,l),
(356,440,l),
(354,440,l),
(279,730,l),
(65,730,l),
(229,270,l),
(190,0,l)
);
},
{
closed = 1;
nodes = (
(591,110,l),
(608,230,l),
(43,230,l),
(26,110,l)
);
},
{
closed = 1;
nodes = (
(615,280,l),
(632,400,l),
(67,400,l),
(50,280,l)
);
}
);
width = 669;
},
{
layerId = "840EB1FB-AC3A-40D2-8862-608CEC91F102";
shapes = (
{
closed = 1;
nodes = (
(355,0,l),
(396,289,l),
(706,730,l),
(553,730,l),
(344,414,l),
(342,414,l),
(223,730,l),
(70,730,l),
(253,289,l),
(212,0,l)
);
},
{
closed = 1;
nodes = (
(568,117,l),
(582,217,l),
(48,217,l),
(34,117,l)
);
},
{
closed = 1;
nodes = (
(592,287,l),
(606,387,l),
(72,387,l),
(58,287,l)
);
}
);
width = 652;
},
{
layerId = "E063002F-8124-4781-80CF-71870B1E9574";
shapes = (
{
closed = 1;
nodes = (
(313,0,l),
(357,308,l),
(682,730,l),
(592,730,l),
(329,383,l),
(327,383,l),
(161,730,l),
(71,730,l),
(276,308,l),
(232,0,l)
);
},
{
closed = 1;
nodes = (
(542,130,l),
(551,197,l),
(50,197,l),
(41,130,l)
);
},
{
closed = 1;
nodes = (
(566,300,l),
(575,367,l),
(74,367,l),
(65,300,l)
);
}
);
width = 629;
},
{
layerId = "E3F1C297-59E6-4938-934E-5A7468ADCF5D";
shapes = (
{
closed = 1;
nodes = (
(271,0,l),
(318,327,l),
(658,730,l),
(633,730,l),
(312,348,l),
(310,348,l),
(97,730,l),
(73,730,l),
(298,327,l),
(251,0,l)
);
},
{
closed = 1;
nodes = (
(516,150,l),
(519,170,l),
(51,170,l),
(48,150,l)
);
},
{
closed = 1;
nodes = (
(541,320,l),
(544,340,l),
(76,340,l),
(73,320,l)
);
}
);
width = 607;
}
);
leftKerningGroup = W;
rightKerningGroup = W;
unicode = 165;
}
{
color = 3;
glyphname = brokenbar;
layers = (
{
layerId = "85FAA1A3-2184-4466-B7C1-269FA7F78F7B";
shapes = (
{
closed = 1;
nodes = (
(273,370,l),
(336,810,l),
(171,810,l),
(108,370,l)
);
},
{
closed = 1;
nodes = (
(189,-220,l),
(251,220,l),
(86,220,l),
(24,-220,l)
);
}
);
width = 359;
},
{
layerId = "840EB1FB-AC3A-40D2-8862-608CEC91F102";
shapes = (
{
closed = 1;
nodes = (
(230,370,l),
(293,810,l),
(170,810,l),
(107,370,l)
);
},
{
closed = 1;
nodes = (
(146,-220,l),
(208,220,l),
(85,220,l),
(23,-220,l)
);
}
);
width = 315;
},
{
layerId = "E063002F-8124-4781-80CF-71870B1E9574";
shapes = (
{
closed = 1;
nodes = (
(194,370,l),
(257,810,l),
(183,810,l),
(120,370,l)
);
},
{
closed = 1;
nodes = (
(110,-220,l),
(172,220,l),
(98,220,l),
(36,-220,l)
);
}
);
width = 292;
},
{
layerId = "E3F1C297-59E6-4938-934E-5A7468ADCF5D";
shapes = (
{
closed = 1;
nodes = (
(153,370,l),
(216,810,l),
(197,810,l),
(134,370,l)
);
},
{
closed = 1;
nodes = (
(69,-220,l),
(131,220,l),
(112,220,l),
(50,-220,l)
);
}
);
width = 264;
}
);
leftKerningGroup = I;
rightKerningGroup = I;
unicode = 166;
}
{
color = 3;
glyphname = section;
leftMetricsKey = "=H*.8";
rightMetricsKey = "=|";
layers = (
{
layerId = "85FAA1A3-2184-4466-B7C1-269FA7F78F7B";
shapes = (
{
closed = 1;
nodes = (
(277,120,l),
(431,131,o),
(517,198,o),
(533,310,cs),
(549,417,o),
(492,480,o),
(327,505,cs),
(278,513,o),
(262,528,o),
(266,550,cs),
(269,572,o),
(294,590,o),
(354,590,cs),
(407,590,o),
(463,577,o),
(524,550,c),
(579,700,l),
(511,726,o),
(432,740,o),
(356,740,cs),
(199,740,o),
(102,662,o),
(86,550,cs),
(71,445,o),
(110,397,o),
(287,360,cs),
(367,344,o),
(380,326,o),
(374,285,cs),
(368,242,o),
(330,210,o),
(290,210,c)
);
},
{
closed = 1;
nodes = (
(390,-120,o),
(488,-42,o),
(504,70,cs),
(519,175,o),
(479,222,o),
(302,260,cs),
(223,277,o),
(209,294,o),
(215,335,cs),
(221,378,o),
(260,410,o),
(300,410,c),
(312,500,l),
(159,489,o),
(71,422,o),
(55,310,cs),
(40,204,o),
(98,141,o),
(261,115,cs),
(311,107,o),
(327,92,o),
(324,70,cs),
(321,48,o),
(294,30,o),
(235,30,cs),
(181,30,o),
(126,43,o),
(65,70,c),
(10,-80,l),
(78,-106,o),
(157,-120,o),
(233,-120,cs)
);
}
);
width = 587;
},
{
layerId = "840EB1FB-AC3A-40D2-8862-608CEC91F102";
shapes = (
{
closed = 1;
nodes = (
(300,125,l),
(415,144,o),
(485,207,o),
(498,300,cs),
(512,399,o),
(454,461,o),
(309,486,cs),
(241,499,o),
(218,522,o),
(223,563,cs),
(230,607,o),
(266,630,o),
(338,630,cs),
(394,630,o),
(444,618,o),
(500,590,c),
(545,697,l),
(483,725,o),
(412,740,o),
(342,740,cs),
(201,740,o),
(112,673,o),
(96,563,cs),
(82,464,o),
(131,412,o),
(280,380,cs),
(370,361,o),
(393,339,o),
(387,292,cs),
(380,247,o),
(346,213,o),
(306,202,c)
);
},
{
closed = 1;
nodes = (
(360,-120,o),
(447,-53,o),
(463,57,cs),
(477,156,o),
(431,207,o),
(281,240,cs),
(191,260,o),
(168,281,o),
(175,328,cs),
(181,373,o),
(214,407,o),
(256,418,c),
(261,495,l),
(147,476,o),
(76,413,o),
(63,320,cs),
(49,221,o),
(108,160,o),
(251,134,cs),
(319,121,o),
(343,98,o),
(337,57,cs),
(331,13,o),
(295,-10,o),
(222,-10,cs),
(168,-10,o),
(116,2,o),
(59,30,c),
(16,-77,l),
(78,-105,o),
(150,-120,o),
(220,-120,cs)
);
}
);
width = 556;
},
{
layerId = "E063002F-8124-4781-80CF-71870B1E9574";
shapes = (
{
closed = 1;
nodes = (
(316,132,l),
(398,156,o),
(453,213,o),
(464,290,cs),
(478,384,o),
(423,441,o),
(294,468,cs),
(201,488,o),
(176,522,o),
(183,577,cs),
(192,639,o),
(243,673,o),
(326,673,cs),
(382,673,o),
(428,661,o),
(481,632,c),
(511,695,l),
(455,725,o),
(394,740,o),
(329,740,cs),
(207,740,o),
(126,679,o),
(111,577,cs),
(98,484,o),
(147,433,o),
(275,403,cs),
(376,381,o),
(409,350,o),
(400,290,cs),
(394,242,o),
(360,204,o),
(315,185,c)
);
},
{
closed = 1;
nodes = (
(330,-120,o),
(411,-59,o),
(425,43,cs),
(438,136,o),
(390,187,o),
(261,217,cs),
(161,239,o),
(129,270,o),
(137,330,cs),
(144,378,o),
(175,416,o),
(220,435,c),
(221,488,l),
(137,464,o),
(82,407,o),
(71,330,cs),
(58,236,o),
(114,179,o),
(243,152,cs),
(335,132,o),
(360,98,o),
(352,43,cs),
(343,-19,o),
(293,-53,o),
(209,-53,cs),
(154,-53,o),
(107,-41,o),
(54,-12,c),
(25,-75,l),
(81,-105,o),
(143,-120,o),
(207,-120,cs)
);
}
);
width = 532;
},
{
layerId = "E3F1C297-59E6-4938-934E-5A7468ADCF5D";
shapes = (
{
closed = 1;
nodes = (
(323,139,l),
(383,167,o),
(423,218,o),
(432,280,cs),
(445,371,o),
(398,421,o),
(277,450,cs),
(155,479,o),
(135,527,o),
(144,590,cs),
(156,669,o),
(223,720,o),
(314,720,cs),
(370,720,o),
(416,707,o),
(464,676,c),
(476,694,l),
(426,726,o),
(377,740,o),
(317,740,cs),
(215,740,o),
(138,680,o),
(125,590,cs),
(113,504,o),
(155,458,o),
(270,430,cs),
(383,404,o),
(423,360,o),
(412,280,cs),
(404,227,o),
(371,183,o),
(320,158,c)
);
},
{
closed = 1;
nodes = (
(297,-120,o),
(373,-60,o),
(386,30,cs),
(399,116,o),
(356,162,o),
(240,190,cs),
(128,216,o),
(88,260,o),
(100,340,cs),
(107,393,o),
(140,437,o),
(192,462,c),
(189,481,l),
(129,453,o),
(88,402,o),
(80,340,cs),
(67,249,o),
(113,199,o),
(233,170,cs),
(356,141,o),
(376,93,o),
(367,30,cs),
(356,-49,o),
(289,-100,o),
(197,-100,cs),
(142,-100,o),
(96,-86,o),
(47,-56,c),
(35,-74,l),
(86,-106,o),
(135,-120,o),
(194,-120,cs)
);
}
);
width = 509;
}
);
leftKerningGroup = S;
rightKerningGroup = S;
unicode = 167;
}
{
color = 3;
glyphname = copyright;
leftMetricsKey = O;
rightMetricsKey = "=|";
layers = (
{
layerId = "85FAA1A3-2184-4466-B7C1-269FA7F78F7B";
shapes = (
{
closed = 1;
nodes = (
(627,-10,o),
(795,158,o),
(795,365,cs),
(795,572,o),
(627,740,o),
(420,740,cs),
(213,740,o),
(45,572,o),
(45,365,cs),
(45,158,o),
(213,-10,o),
(420,-10,cs)
);
},
{
closed = 1;
nodes = (
(493,140,o),
(544,153,o),
(588,179,c),
(530,289,l),
(497,270,o),
(470,262,o),
(441,262,cs),
(386,262,o),
(356,297,o),
(356,365,cs),
(356,433,o),
(386,468,o),
(441,468,cs),
(469,468,o),
(496,459,o),
(530,440,c),
(588,550,l),
(544,577,o),
(493,590,o),
(435,590,cs),
(293,590,o),
(213,509,o),
(213,365,cs),
(213,220,o),
(293,140,o),
(435,140,cs)
);
},
{
closed = 1;
nodes = (
(260,75,o),
(130,205,o),
(130,365,cs),
(130,525,o),
(260,655,o),
(420,655,cs),
(580,655,o),
(710,525,o),
(710,365,cs),
(710,205,o),
(580,75,o),
(420,75,cs)
);
}
);
width = 821;
},
{
layerId = "840EB1FB-AC3A-40D2-8862-608CEC91F102";
shapes = (
{
closed = 1;
nodes = (
(627,-7,o),
(794,160,o),
(794,365,cs),
(794,571,o),
(627,737,o),
(422,737,cs),
(216,737,o),
(50,571,o),
(50,365,cs),
(50,160,o),
(216,-7,o),
(422,-7,cs)
);
},
{
closed = 1;
nodes = (
(490,140,o),
(540,153,o),
(582,179,c),
(532,270,l),
(500,250,o),
(472,241,o),
(439,241,cs),
(370,241,o),
(331,285,o),
(331,365,cs),
(331,445,o),
(371,489,o),
(439,489,cs),
(472,489,o),
(500,480,o),
(532,460,c),
(582,551,l),
(540,577,o),
(490,590,o),
(435,590,cs),
(298,590,o),
(216,506,o),
(216,365,cs),
(216,223,o),
(297,140,o),
(435,140,cs)
);
},
{
closed = 1;
nodes = (
(258,68,o),
(125,201,o),
(125,365,cs),
(125,529,o),
(258,662,o),
(422,662,cs),
(586,662,o),
(719,529,o),
(719,365,cs),
(719,201,o),
(586,68,o),
(422,68,cs)
);
}
);
width = 825;
},
{
layerId = "E063002F-8124-4781-80CF-71870B1E9574";
shapes = (
{
closed = 1;
nodes = (
(627,-3,o),
(792,162,o),
(792,365,cs),
(792,569,o),
(627,733,o),
(424,733,cs),
(220,733,o),
(55,569,o),
(55,365,cs),
(55,162,o),
(220,-3,o),
(424,-3,cs)
);
},
{
closed = 1;
nodes = (
(488,140,o),
(536,153,o),
(576,179,c),
(541,239,l),
(509,217,o),
(476,207,o),
(437,207,cs),
(347,207,o),
(293,266,o),
(293,365,cs),
(293,464,o),
(348,523,o),
(437,523,cs),
(476,523,o),
(509,513,o),
(541,491,c),
(576,551,l),
(536,577,o),
(488,590,o),
(435,590,cs),
(302,590,o),
(218,504,o),
(218,365,cs),
(218,226,o),
(301,140,o),
(435,140,cs)
);
},
{
closed = 1;
nodes = (
(249,50,o),
(109,191,o),
(109,365,cs),
(109,539,o),
(249,680,o),
(424,680,cs),
(598,680,o),
(739,539,o),
(739,365,cs),
(739,191,o),
(598,50,o),
(424,50,cs)
);
}
);
width = 829;
},
{
layerId = "E3F1C297-59E6-4938-934E-5A7468ADCF5D";
shapes = (
{
closed = 1;
nodes = (
(627,0,o),
(790,163,o),
(790,365,cs),
(790,567,o),
(627,730,o),
(425,730,cs),
(223,730,o),
(60,567,o),
(60,365,cs),
(60,163,o),
(223,0,o),
(425,0,cs)
);
},
{
closed = 1;
nodes = (
(485,140,o),
(531,153,o),
(569,179,c),
(558,196,l),
(523,172,o),
(482,160,o),
(435,160,cs),
(316,160,o),
(241,239,o),
(241,365,cs),
(241,490,o),
(317,570,o),
(435,570,cs),
(482,570,o),
(523,558,o),
(558,534,c),
(569,551,l),
(531,577,o),
(485,590,o),
(435,590,cs),
(306,590,o),
(221,501,o),
(221,365,cs),
(221,229,o),
(305,140,o),
(435,140,cs)
);
},
{
closed = 1;
nodes = (
(234,20,o),
(80,174,o),
(80,365,cs),
(80,556,o),
(234,710,o),
(425,710,cs),
(616,710,o),
(770,556,o),
(770,365,cs),
(770,174,o),
(616,20,o),
(425,20,cs)
);
}
);
width = 832;
}
);
leftKerningGroup = O;
rightKerningGroup = O;
unicode = 169;
}
{
glyphname = ordfeminine;
layers = (
{
layerId = "85FAA1A3-2184-4466-B7C1-269FA7F78F7B";
shapes = (
{
closed = 1;
nodes = (
(16,156,l),
(31,260,l),
(543,260,l),
(528,156,l)
);
},
{
closed = 1;
nodes = (
(236,425,o),
(248,416,o),
(271,416,cs),
(316,416,o),
(351,444,o),
(358,488,cs),
(359,500,l),
(335,500,ls),
(298,500,o),
(236,492,o),
(236,443,cs)
);
},
{
closed = 1;
nodes = (
(372,588,l),
(377,624,o),
(368,636,o),
(331,636,cs),
(274,636,o),
(217,624,o),
(162,600,c),
(157,704,l),
(219,728,o),
(285,740,o),
(354,740,cs),
(475,740,o),
(525,704,o),
(525,615,cs),
(525,602,o),
(524,588,o),
(522,572,cs),
(501,428,ls),
(496,389,o),
(494,352,o),
(497,316,c),
(353,316,l),
(352,343,o),
(353,362,o),
(353,372,c),
(351,372,l),
(317,333,o),
(264,308,o),
(216,308,cs),
(143,308,o),
(96,348,o),
(96,414,cs),
(96,547,o),
(238,588,o),
(348,588,cs)
);
}
);
width = 584;
},
{
layerId = "840EB1FB-AC3A-40D2-8862-608CEC91F102";
shapes = (
{
closed = 1;
nodes = (
(24,175,l),
(36,257,l),
(531,257,l),
(519,175,l)
);
},
{
closed = 1;
nodes = (
(214,410,o),
(232,394,o),
(264,394,cs),
(320,394,o),
(366,432,o),
(375,488,c),
(378,513,l),
(348,513,ls),
(301,513,o),
(214,500,o),
(214,437,cs)
);
},
{
closed = 1;
nodes = (
(389,586,l),
(396,638,o),
(382,656,o),
(330,656,cs),
(276,656,o),
(223,644,o),
(170,619,c),
(166,704,l),
(222,728,o),
(283,740,o),
(348,740,cs),
(462,740,o),
(510,705,o),
(510,619,cs),
(510,606,o),
(509,592,o),
(507,577,cs),
(485,428,ls),
(480,390,o),
(478,353,o),
(481,316,c),
(367,316,l),
(366,343,o),
(367,363,o),
(368,375,c),
(366,375,l),
(329,332,o),
(277,308,o),
(221,308,cs),
(149,308,o),
(104,346,o),
(104,412,cs),
(104,545,o),
(248,586,o),
(358,586,cs)
);
}
);
width = 577;
},
{
layerId = "E063002F-8124-4781-80CF-71870B1E9574";
shapes = (
{
closed = 1;
nodes = (
(35,200,l),
(42,252,l),
(515,252,l),
(507,200,l)
);
},
{
closed = 1;
nodes = (
(187,386,o),
(212,364,o),
(254,364,cs),
(325,364,o),
(387,415,o),
(397,487,cs),
(403,529,l),
(364,529,ls),
(297,529,o),
(187,510,o),
(187,423,cs)
);
},
{
closed = 1;
nodes = (
(411,581,l),
(422,646,o),
(405,682,o),
(331,682,cs),
(281,682,o),
(231,670,o),
(183,645,c),
(177,703,l),
(227,728,o),
(282,740,o),
(342,740,cs),
(445,740,o),
(488,708,o),
(488,626,cs),
(488,613,o),
(487,598,o),
(485,582,cs),
(463,428,ls),
(458,391,o),
(456,353,o),
(459,316,c),
(388,316,l),
(387,342,o),
(387,363,o),
(388,380,c),
(387,380,l),
(347,331,o),
(294,307,o),
(228,307,cs),
(157,307,o),
(114,344,o),
(114,407,cs),
(114,541,o),
(262,581,o),
(372,581,cs)
);
}
);
width = 569;
},
{
layerId = "E3F1C297-59E6-4938-934E-5A7468ADCF5D";
shapes = (
{
closed = 1;
nodes = (
(46,224,l),
(49,244,l),
(497,244,l),
(494,224,l)
);
},
{
closed = 1;
nodes = (
(146,358,o),
(183,326,o),
(247,326,c),
(340,328,o),
(414,390,o),
(427,484,cs),
(438,558,l),
(392,558,ls),
(298,558,o),
(146,533,o),
(146,410,cs)
);
},
{
closed = 1;
nodes = (
(441,578,l),
(455,665,o),
(446,720,o),
(337,720,cs),
(288,720,o),
(240,708,o),
(195,683,c),
(187,700,l),
(238,728,o),
(288,740,o),
(346,740,cs),
(435,740,o),
(465,703,o),
(465,632,cs),
(465,617,o),
(464,599,o),
(461,580,cs),
(439,428,ls),
(434,391,o),
(432,353,o),
(435,316,c),
(415,316,l),
(412,346,o),
(413,374,o),
(416,400,c),
(415,400,l),
(378,341,o),
(315,306,o),
(244,306,cs),
(170,306,o),
(126,347,o),
(126,409,cs),
(126,545,o),
(288,578,o),
(395,578,cs)
);
}
);
width = 560;
}
);
leftKerningGroup = asterisk;
rightKerningGroup = asterisk;
unicode = 170;
}
{
color = 3;
glyphname = guillemotleft;
layers = (
{
layerId = "85FAA1A3-2184-4466-B7C1-269FA7F78F7B";
shapes = (
{
closed = 1;
nodes = (
(281,0,l),
(164,260,l),
(355,520,l),
(186,520,l),
(0,260,l),
(112,0,l)
);
},
{
closed = 1;
nodes = (
(524,0,l),
(407,260,l),
(598,520,l),
(430,520,l),
(244,260,l),
(356,0,l)
);
}
);
width = 587;
},
{
layerId = "840EB1FB-AC3A-40D2-8862-608CEC91F102";
shapes = (
{
closed = 1;
nodes = (
(242,0,l),
(125,260,l),
(316,520,l),
(195,520,l),
(6,260,l),
(121,0,l)
);
},
{
closed = 1;
nodes = (
(453,0,l),
(336,260,l),
(527,520,l),
(406,520,l),
(217,260,l),
(332,0,l)
);
}
);
width = 522;
},
{
layerId = "E063002F-8124-4781-80CF-71870B1E9574";
shapes = (
{
closed = 1;
nodes = (
(195,0,l),
(78,260,l),
(269,520,l),
(196,520,l),
(7,260,l),
(122,0,l)
);
},
{
closed = 1;
nodes = (
(373,0,l),
(256,260,l),
(447,520,l),
(374,520,l),
(185,260,l),
(300,0,l)
);
}
);
width = 444;
},
{
layerId = "E3F1C297-59E6-4938-934E-5A7468ADCF5D";
shapes = (
{
closed = 1;
nodes = (
(144,0,l),
(31,260,l),
(218,520,l),
(196,520,l),
(9,260,l),
(122,0,l)
);
},
{
closed = 1;
nodes = (
(290,0,l),
(176,260,l),
(364,520,l),
(341,520,l),
(154,260,l),
(267,0,l)
);
}
);
width = 365;
}
);
leftKerningGroup = plus;
rightKerningGroup = x;
unicode = 171;
}
{
color = 3;
glyphname = logicalnot;
leftMetricsKey = plus;
rightMetricsKey = equal;
layers = (
{
layerId = "85FAA1A3-2184-4466-B7C1-269FA7F78F7B";
shapes = (
{
closed = 1;
nodes = (
(679,80,l),
(679,500,l),
(79,500,l),
(79,330,l),
(509,330,l),
(509,80,l)
);
}
);
width = 779;
},
{
layerId = "840EB1FB-AC3A-40D2-8862-608CEC91F102";
shapes = (
{
closed = 1;
nodes = (
(654,110,l),
(654,470,l),
(68,470,l),
(68,347,l),
(531,347,l),
(531,110,l)
);
}
);
width = 762;
},
{
layerId = "E063002F-8124-4781-80CF-71870B1E9574";
shapes = (
{
closed = 1;
nodes = (
(643,140,l),
(643,440,l),
(69,440,l),
(69,367,l),
(569,367,l),
(569,140,l)
);
}
);
width = 758;
},
{
layerId = "E3F1C297-59E6-4938-934E-5A7468ADCF5D";
shapes = (
{
closed = 1;
nodes = (
(631,170,l),
(631,410,l),
(71,410,l),
(71,390,l),
(611,390,l),
(611,170,l)
);
}
);
width = 751;
}
);
leftKerningGroup = "-";
rightKerningGroup = equal;
unicode = 172;
}
{
color = 3;
glyphname = registered;
leftMetricsKey = O;
rightMetricsKey = "=|";
layers = (
{
layerId = "4467A6B0-79B6-4B3C-9012-CA39053C2E8A";
partSelection = {
Wt = 2;
};
name = Medium.;
shapes = (
{
closed = 1;
nodes = (
(614,-8,o),
(781,159,o),
(781,365,cs),
(781,571,o),
(614,738,o),
(408,738,cs),
(202,738,o),
(35,571,o),
(35,365,cs),
(35,159,o),
(202,-8,o),
(408,-8,cs)
);
},
{
closed = 1;
nodes = (
(595,146,l),
(475,352,l),
(350,352,l),
(451,146,l)
);
},
{
closed = 1;
nodes = (
(246,72,o),
(115,203,o),
(115,365,cs),
(115,527,o),
(246,658,o),
(408,658,cs),
(570,658,o),
(701,527,o),
(701,365,cs),
(701,203,o),
(570,72,o),
(408,72,cs)
);
},
{
closed = 1;
nodes = (
(380,146,l),
(380,483,l),
(396,483,ls),
(441,483,o),
(461,468,o),
(461,437,cs),
(461,405,o),
(441,390,o),
(396,390,cs),
(304,390,l),
(304,297,l),
(411,297,ls),
(529,297,o),
(590,347,o),
(590,442,cs),
(590,538,o),
(526,584,o),
(391,584,cs),
(253,584,l),
(253,146,l)
);
}
);
width = 816;
},
{
background = {
shapes = (
{
closed = 1;
nodes = (
(376,146,l),
(376,481,l),
(390,481,ls),
(446,481,o),
(471,468,o),
(471,438,cs),
(471,407,o),
(445,392,o),
(390,392,cs),
(312,392,l),
(312,292,l),
(408,292,ls),
(523,292,o),
(588,347,o),
(588,444,cs),
(588,540,o),
(524,584,o),
(384,584,cs),
(246,584,l),
(246,146,l)
);
},
{
closed = 1;
nodes = (
(600,146,l),
(498,350,l),
(368,350,l),
(458,146,l)
);
},
{
closed = 1;
nodes = (
(615,-10,o),
(783,158,o),
(783,365,cs),
(783,572,o),
(615,740,o),
(408,740,cs),
(201,740,o),
(33,572,o),
(33,365,cs),
(33,158,o),
(201,-10,o),
(408,-10,cs)
);
},
{
closed = 1;
nodes = (
(248,75,o),
(118,205,o),
(118,365,cs),
(118,525,o),
(248,655,o),
(408,655,cs),
(568,655,o),
(698,525,o),
(698,365,cs),
(698,205,o),
(568,75,o),
(408,75,cs)
);
}
);
};
layerId = "85FAA1A3-2184-4466-B7C1-269FA7F78F7B";
shapes = (
{
closed = 1;
nodes = (
(627,-10,o),
(795,158,o),
(795,365,cs),
(795,572,o),
(627,740,o),
(420,740,cs),
(213,740,o),
(45,572,o),
(45,365,cs),
(45,158,o),
(213,-10,o),
(420,-10,cs)
);
},
{
closed = 1;
nodes = (
(618,146,l),
(506,350,l),
(370,350,l),
(462,146,l)
);
},
{
closed = 1;
nodes = (
(260,75,o),
(130,205,o),
(130,365,cs),
(130,525,o),
(260,655,o),
(420,655,cs),
(580,655,o),
(710,525,o),
(710,365,cs),
(710,205,o),
(580,75,o),
(420,75,cs)
);
},
{
closed = 1;
nodes = (
(398,146,l),
(398,473,l),
(412,473,ls),
(449,473,o),
(467,459,o),
(467,432,cs),
(467,404,o),
(449,391,o),
(412,391,cs),
(318,391,l),
(318,289,l),
(430,289,ls),
(547,289,o),
(610,341,o),
(610,438,cs),
(610,536,o),
(544,584,o),
(406,584,cs),
(258,584,l),
(258,146,l)
);
}
);
width = 821;
},
{
layerId = "840EB1FB-AC3A-40D2-8862-608CEC91F102";
shapes = (
{
closed = 1;
nodes = (
(625,-6,o),
(791,160,o),
(791,365,cs),
(791,570,o),
(625,736,o),
(420,736,cs),
(215,736,o),
(49,570,o),
(49,365,cs),
(49,160,o),
(215,-6,o),
(420,-6,cs)
);
},
{
closed = 1;
nodes = (
(611,146,l),
(468,354,l),
(354,354,l),
(479,146,l)
);
},
{
closed = 1;
nodes = (
(256,68,o),
(123,201,o),
(123,365,cs),
(123,529,o),
(256,662,o),
(420,662,cs),
(584,662,o),
(717,529,o),
(717,365,cs),
(717,201,o),
(584,68,o),
(420,68,cs)
);
},
{
closed = 1;
nodes = (
(385,146,l),
(385,494,l),
(404,494,ls),
(457,494,o),
(479,477,o),
(479,442,cs),
(479,406,o),
(457,389,o),
(404,389,cs),
(314,389,l),
(314,305,l),
(416,305,ls),
(535,305,o),
(594,353,o),
(594,446,cs),
(594,540,o),
(532,584,o),
(400,584,cs),
(272,584,l),
(272,146,l)
);
}
);
width = 822;
},
{
layerId = "E063002F-8124-4781-80CF-71870B1E9574";
shapes = (
{
closed = 1;
nodes = (
(627,-3,o),
(792,162,o),
(792,365,cs),
(792,569,o),
(627,733,o),
(424,733,cs),
(220,733,o),
(55,569,o),
(55,365,cs),
(55,162,o),
(220,-3,o),
(424,-3,cs)
);
},
{
closed = 1;
nodes = (
(606,146,l),
(418,358,l),
(339,358,l),
(516,146,l)
);
},
{
closed = 1;
nodes = (
(249,50,o),
(109,191,o),
(109,365,cs),
(109,539,o),
(249,680,o),
(424,680,cs),
(598,680,o),
(739,539,o),
(739,365,cs),
(739,191,o),
(598,50,o),
(424,50,cs)
);
},
{
closed = 1;
nodes = (
(363,146,l),
(363,524,l),
(401,524,ls),
(478,524,o),
(508,503,o),
(508,454,cs),
(508,405,o),
(478,385,o),
(401,385,cs),
(314,385,l),
(314,327,l),
(407,327,ls),
(527,327,o),
(583,369,o),
(583,456,cs),
(583,544,o),
(525,584,o),
(399,584,cs),
(290,584,l),
(290,146,l)
);
}
);
width = 829;
},
{
layerId = "E3F1C297-59E6-4938-934E-5A7468ADCF5D";
shapes = (
{
closed = 1;
nodes = (
(627,0,o),
(790,163,o),
(790,365,cs),
(790,567,o),
(627,730,o),
(425,730,cs),
(223,730,o),
(60,567,o),
(60,365,cs),
(60,163,o),
(223,0,o),
(425,0,cs)
);
},
{
closed = 1;
nodes = (
(584,146,l),
(348,362,l),
(318,362,l),
(553,146,l)
);
},
{
closed = 1;
nodes = (
(234,20,o),
(80,174,o),
(80,365,cs),
(80,556,o),
(234,710,o),
(425,710,cs),
(616,710,o),
(770,556,o),
(770,365,cs),
(770,174,o),
(616,20,o),
(425,20,cs)
);
},
{
closed = 1;
nodes = (
(325,146,l),
(325,564,l),
(395,564,ls),
(506,564,o),
(549,537,o),
(549,470,cs),
(549,403,o),
(506,376,o),
(395,376,cs),
(311,376,l),
(311,356,l),
(395,356,ls),
(516,356,o),
(569,390,o),
(569,470,cs),
(569,550,o),
(516,584,o),
(395,584,cs),
(305,584,l),
(305,146,l)
);
}
);
width = 832;
}
);
partsSettings = (
{
bottomValue = 0;
name = Wt;
topValue = 1000;
}
);
leftKerningGroup = O;
rightKerningGroup = O;
unicode = 174;
}
{
color = 3;
glyphname = degree;
layers = (
{
layerId = "85FAA1A3-2184-4466-B7C1-269FA7F78F7B";
shapes = (
{
closed = 1;
nodes = (
(321,360,o),
(415,444,o),
(430,548,cs),
(445,651,o),
(375,735,o),
(275,735,cs),
(173,735,o),
(79,651,o),
(64,548,cs),
(49,444,o),
(119,360,o),
(221,360,cs)
);
},
{
closed = 1;
nodes = (
(198,475,o),
(170,507,o),
(176,548,cs),
(182,588,o),
(219,620,o),
(259,620,cs),
(298,620,o),
(324,588,o),
(318,548,cs),
(312,507,o),
(277,475,o),
(238,475,cs)
);
}
);
width = 422;
},
{
layerId = "840EB1FB-AC3A-40D2-8862-608CEC91F102";
shapes = (
{
closed = 1;
nodes = (
(312,380,o),
(402,460,o),
(416,558,cs),
(430,656,o),
(363,735,o),
(269,735,cs),
(172,735,o),
(84,656,o),
(70,558,cs),
(56,460,o),
(121,380,o),
(218,380,cs)
);
},
{
closed = 1;
nodes = (
(183,472,o),
(152,510,o),
(159,558,cs),
(165,605,o),
(208,643,o),
(256,643,cs),
(302,643,o),
(333,605,o),
(327,558,cs),
(320,510,o),
(277,472,o),
(231,472,cs)
);
}
);
width = 410;
},
{
layerId = "E063002F-8124-4781-80CF-71870B1E9574";
shapes = (
{
closed = 1;
nodes = (
(305,400,o),
(390,476,o),
(403,568,cs),
(416,660,o),
(353,735,o),
(264,735,cs),
(173,735,o),
(89,660,o),
(76,568,cs),
(63,476,o),
(125,400,o),
(216,400,cs)
);
},
{
closed = 1;
nodes = (
(166,460,o),
(127,508,o),
(135,568,cs),
(144,627,o),
(196,675,o),
(255,675,cs),
(312,675,o),
(353,627,o),
(344,568,cs),
(336,508,o),
(282,460,o),
(225,460,cs)
);
}
);
width = 401;
},
{
layerId = "C82F37FC-C231-4439-813D-BAE12AC5285D";
associatedMasterId = "E3F1C297-59E6-4938-934E-5A7468ADCF5D";
name = "Jan 12 20, 21:52";
shapes = (
{
closed = 1;
nodes = (
(334,360,o),
(418,444,o),
(418,548,cs),
(418,651,o),
(334,735,o),
(231,735,cs),
(127,735,o),
(43,651,o),
(43,548,cs),
(43,444,o),
(127,360,o),
(231,360,cs)
);
},
{
closed = 1;
nodes = (
(138,380,o),
(63,455,o),
(63,548,cs),
(63,640,o),
(138,715,o),
(231,715,cs),
(323,715,o),
(398,640,o),
(398,548,cs),
(398,455,o),
(323,380,o),
(231,380,cs)
);
}
);
width = 461;
},
{
layerId = "88636A74-BC28-4676-836A-B0502746ACAF";
associatedMasterId = "E3F1C297-59E6-4938-934E-5A7468ADCF5D";
name = "Jan 12 20, 21:50";
shapes = (
{
closed = 1;
nodes = (
(273,460,o),
(336,523,o),
(336,600,cs),
(336,677,o),
(273,740,o),
(196,740,cs),
(119,740,o),
(56,677,o),
(56,600,cs),
(56,523,o),
(119,460,o),
(196,460,cs)
);
},
{
closed = 1;
nodes = (
(130,480,o),
(76,534,o),
(76,600,cs),
(76,666,o),
(130,720,o),
(196,720,cs),
(262,720,o),
(316,666,o),
(316,600,cs),
(316,534,o),
(262,480,o),
(196,480,cs)
);
}
);
width = 461;
},
{
layerId = "E3F1C297-59E6-4938-934E-5A7468ADCF5D";
shapes = (
{
closed = 1;
nodes = (
(297,420,o),
(376,491,o),
(389,578,cs),
(401,664,o),
(342,735,o),
(258,735,cs),
(173,735,o),
(94,664,o),
(82,578,cs),
(69,491,o),
(128,420,o),
(213,420,cs)
);
},
{
closed = 1;
nodes = (
(142,440,o),
(90,502,o),
(101,578,cs),
(111,653,o),
(181,715,o),
(255,715,cs),
(328,715,o),
(380,653,o),
(370,578,cs),
(359,502,o),
(289,440,o),
(216,440,cs)
);
}
);
width = 389;
}
);
leftKerningGroup = quote;
rightKerningGroup = quote;
unicode = 176;
}
{
color = 3;
glyphname = plusminus;
leftMetricsKey = equal;
rightMetricsKey = "=|";
layers = (
{
layerId = "85FAA1A3-2184-4466-B7C1-269FA7F78F7B";
shapes = (
{
closed = 1;
nodes = (
(481,215,l),
(481,390,l),
(686,390,l),
(686,555,l),
(481,555,l),
(481,730,l),
(311,730,l),
(311,555,l),
(106,555,l),
(106,390,l),
(311,390,l),
(311,215,l)
);
},
{
closed = 1;
nodes = (
(686,0,l),
(686,165,l),
(106,165,l),
(106,0,l)
);
}
);
width = 797;
},
{
layerId = "840EB1FB-AC3A-40D2-8862-608CEC91F102";
shapes = (
{
closed = 1;
nodes = (
(465,196,l),
(465,403,l),
(693,403,l),
(693,523,l),
(465,523,l),
(465,730,l),
(342,730,l),
(342,523,l),
(113,523,l),
(113,403,l),
(342,403,l),
(342,196,l)
);
},
{
closed = 1;
nodes = (
(693,0,l),
(693,120,l),
(113,120,l),
(113,0,l)
);
}
);
width = 816;
},
{
layerId = "E063002F-8124-4781-80CF-71870B1E9574";
shapes = (
{
closed = 1;
nodes = (
(446,175,l),
(446,417,l),
(699,417,l),
(699,488,l),
(446,488,l),
(446,730,l),
(373,730,l),
(373,488,l),
(119,488,l),
(119,417,l),
(373,417,l),
(373,175,l)
);
},
{
closed = 1;
nodes = (
(699,0,l),
(699,71,l),
(119,71,l),
(119,0,l)
);
}
);
width = 833;
},
{
layerId = "E3F1C297-59E6-4938-934E-5A7468ADCF5D";
shapes = (
{
closed = 1;
nodes = (
(423,150,l),
(423,430,l),
(703,430,l),
(703,450,l),
(423,450,l),
(423,730,l),
(403,730,l),
(403,450,l),
(123,450,l),
(123,430,l),
(403,430,l),
(403,150,l)
);
},
{
closed = 1;
nodes = (
(703,0,l),
(703,20,l),
(123,20,l),
(123,0,l)
);
}
);
width = 846;
}
);
leftKerningGroup = z;
rightKerningGroup = z;
unicode = 177;
}
{
color = 3;
glyphname = twosuperior;
layers = (
{
layerId = "85FAA1A3-2184-4466-B7C1-269FA7F78F7B";
shapes = (
{
closed = 1;
nodes = (
(347,292,l),
(364,411,l),
(243,411,l),
(243,413,l),
(331,474,o),
(379,537,o),
(388,604,cs),
(400,686,o),
(349,736,o),
(255,736,cs),
(198,736,o),
(132,717,o),
(87,688,c),
(100,573,l),
(147,601,o),
(180,614,o),
(207,614,cs),
(234,614,o),
(248,600,o),
(245,575,cs),
(239,535,o),
(191,492,o),
(60,411,c),
(43,292,l)
);
}
);
width = 390;
},
{
layerId = "840EB1FB-AC3A-40D2-8862-608CEC91F102";
shapes = (
{
closed = 1;
nodes = (
(329,292,l),
(344,392,l),
(215,392,l),
(215,394,l),
(310,466,o),
(360,534,o),
(370,606,cs),
(382,689,o),
(337,736,o),
(246,736,cs),
(191,736,o),
(131,718,o),
(88,691,c),
(98,592,l),
(139,621,o),
(174,635,o),
(203,635,cs),
(240,635,o),
(259,614,o),
(254,580,cs),
(248,536,o),
(201,490,o),
(57,392,c),
(43,292,l)
);
}
);
width = 377;
},
{
layerId = "E063002F-8124-4781-80CF-71870B1E9574";
shapes = (
{
closed = 1;
nodes = (
(312,292,l),
(321,359,l),
(158,359,l),
(159,361,l),
(290,466,o),
(342,534,o),
(353,608,cs),
(365,689,o),
(322,736,o),
(237,736,cs),
(186,736,o),
(129,718,o),
(88,690,c),
(97,625,l),
(135,654,o),
(174,669,o),
(210,669,cs),
(258,669,o),
(285,639,o),
(279,592,cs),
(271,538,o),
(220,486,o),
(52,359,c),
(43,292,l)
);
}
);
width = 364;
},
{
layerId = "E3F1C297-59E6-4938-934E-5A7468ADCF5D";
shapes = (
{
closed = 1;
nodes = (
(294,292,l),
(297,312,l),
(75,312,l),
(75,314,l),
(269,473,o),
(324,536,o),
(335,610,cs),
(346,686,o),
(304,736,o),
(228,736,cs),
(182,736,o),
(128,717,o),
(87,686,c),
(98,671,l),
(135,699,o),
(183,716,o),
(225,716,cs),
(290,716,o),
(325,675,o),
(315,610,cs),
(305,541,o),
(252,481,o),
(45,312,c),
(43,292,l)
);
}
);
width = 351;
}
);
leftKerningGroup = superior;
rightKerningGroup = superior;
unicode = 178;
}
